%TF.GenerationSoftware,KiCad,Pcbnew,9.0.2*%
%TF.CreationDate,2025-06-11T08:09:26-04:00*%
%TF.ProjectId,DarkQuest_SiPM_Motherboard,4461726b-5175-4657-9374-5f5369504d5f,10*%
%TF.SameCoordinates,Original*%
%TF.FileFunction,Legend,Top*%
%TF.FilePolarity,Positive*%
%FSLAX46Y46*%
G04 Gerber Fmt 4.6, Leading zero omitted, Abs format (unit mm)*
G04 Created by KiCad (PCBNEW 9.0.2) date 2025-06-11 08:09:26*
%MOMM*%
%LPD*%
G01*
G04 APERTURE LIST*
%ADD10C,0.120000*%
%ADD11C,0.150000*%
%ADD12C,0.100000*%
G04 APERTURE END LIST*
D10*
X51000000Y-100000000D02*
X149000000Y-100000000D01*
X100000000Y-51000000D02*
X100000000Y-149000000D01*
D11*
X99238095Y-91054819D02*
X99238095Y-90054819D01*
X99238095Y-90531009D02*
X99809523Y-90531009D01*
X99809523Y-91054819D02*
X99809523Y-90054819D01*
X100238095Y-90150057D02*
X100285714Y-90102438D01*
X100285714Y-90102438D02*
X100380952Y-90054819D01*
X100380952Y-90054819D02*
X100619047Y-90054819D01*
X100619047Y-90054819D02*
X100714285Y-90102438D01*
X100714285Y-90102438D02*
X100761904Y-90150057D01*
X100761904Y-90150057D02*
X100809523Y-90245295D01*
X100809523Y-90245295D02*
X100809523Y-90340533D01*
X100809523Y-90340533D02*
X100761904Y-90483390D01*
X100761904Y-90483390D02*
X100190476Y-91054819D01*
X100190476Y-91054819D02*
X100809523Y-91054819D01*
X104238095Y-129454819D02*
X104238095Y-128454819D01*
X104238095Y-128931009D02*
X104809523Y-128931009D01*
X104809523Y-129454819D02*
X104809523Y-128454819D01*
X105190476Y-128454819D02*
X105809523Y-128454819D01*
X105809523Y-128454819D02*
X105476190Y-128835771D01*
X105476190Y-128835771D02*
X105619047Y-128835771D01*
X105619047Y-128835771D02*
X105714285Y-128883390D01*
X105714285Y-128883390D02*
X105761904Y-128931009D01*
X105761904Y-128931009D02*
X105809523Y-129026247D01*
X105809523Y-129026247D02*
X105809523Y-129264342D01*
X105809523Y-129264342D02*
X105761904Y-129359580D01*
X105761904Y-129359580D02*
X105714285Y-129407200D01*
X105714285Y-129407200D02*
X105619047Y-129454819D01*
X105619047Y-129454819D02*
X105333333Y-129454819D01*
X105333333Y-129454819D02*
X105238095Y-129407200D01*
X105238095Y-129407200D02*
X105190476Y-129359580D01*
X136238095Y-91054819D02*
X136238095Y-90054819D01*
X136238095Y-90531009D02*
X136809523Y-90531009D01*
X136809523Y-91054819D02*
X136809523Y-90054819D01*
X137714285Y-90388152D02*
X137714285Y-91054819D01*
X137476190Y-90007200D02*
X137238095Y-90721485D01*
X137238095Y-90721485D02*
X137857142Y-90721485D01*
X62238095Y-91054819D02*
X62238095Y-90054819D01*
X62238095Y-90531009D02*
X62809523Y-90531009D01*
X62809523Y-91054819D02*
X62809523Y-90054819D01*
X63761904Y-90054819D02*
X63285714Y-90054819D01*
X63285714Y-90054819D02*
X63238095Y-90531009D01*
X63238095Y-90531009D02*
X63285714Y-90483390D01*
X63285714Y-90483390D02*
X63380952Y-90435771D01*
X63380952Y-90435771D02*
X63619047Y-90435771D01*
X63619047Y-90435771D02*
X63714285Y-90483390D01*
X63714285Y-90483390D02*
X63761904Y-90531009D01*
X63761904Y-90531009D02*
X63809523Y-90626247D01*
X63809523Y-90626247D02*
X63809523Y-90864342D01*
X63809523Y-90864342D02*
X63761904Y-90959580D01*
X63761904Y-90959580D02*
X63714285Y-91007200D01*
X63714285Y-91007200D02*
X63619047Y-91054819D01*
X63619047Y-91054819D02*
X63380952Y-91054819D01*
X63380952Y-91054819D02*
X63285714Y-91007200D01*
X63285714Y-91007200D02*
X63238095Y-90959580D01*
X99238095Y-54054819D02*
X99238095Y-53054819D01*
X99238095Y-53531009D02*
X99809523Y-53531009D01*
X99809523Y-54054819D02*
X99809523Y-53054819D01*
X100809523Y-54054819D02*
X100238095Y-54054819D01*
X100523809Y-54054819D02*
X100523809Y-53054819D01*
X100523809Y-53054819D02*
X100428571Y-53197676D01*
X100428571Y-53197676D02*
X100333333Y-53292914D01*
X100333333Y-53292914D02*
X100238095Y-53340533D01*
X146166666Y-93654819D02*
X146166666Y-94369104D01*
X146166666Y-94369104D02*
X146119047Y-94511961D01*
X146119047Y-94511961D02*
X146023809Y-94607200D01*
X146023809Y-94607200D02*
X145880952Y-94654819D01*
X145880952Y-94654819D02*
X145785714Y-94654819D01*
X146642857Y-94654819D02*
X146642857Y-93654819D01*
X146642857Y-93654819D02*
X147023809Y-93654819D01*
X147023809Y-93654819D02*
X147119047Y-93702438D01*
X147119047Y-93702438D02*
X147166666Y-93750057D01*
X147166666Y-93750057D02*
X147214285Y-93845295D01*
X147214285Y-93845295D02*
X147214285Y-93988152D01*
X147214285Y-93988152D02*
X147166666Y-94083390D01*
X147166666Y-94083390D02*
X147119047Y-94131009D01*
X147119047Y-94131009D02*
X147023809Y-94178628D01*
X147023809Y-94178628D02*
X146642857Y-94178628D01*
X147547619Y-93654819D02*
X148166666Y-93654819D01*
X148166666Y-93654819D02*
X147833333Y-94035771D01*
X147833333Y-94035771D02*
X147976190Y-94035771D01*
X147976190Y-94035771D02*
X148071428Y-94083390D01*
X148071428Y-94083390D02*
X148119047Y-94131009D01*
X148119047Y-94131009D02*
X148166666Y-94226247D01*
X148166666Y-94226247D02*
X148166666Y-94464342D01*
X148166666Y-94464342D02*
X148119047Y-94559580D01*
X148119047Y-94559580D02*
X148071428Y-94607200D01*
X148071428Y-94607200D02*
X147976190Y-94654819D01*
X147976190Y-94654819D02*
X147690476Y-94654819D01*
X147690476Y-94654819D02*
X147595238Y-94607200D01*
X147595238Y-94607200D02*
X147547619Y-94559580D01*
X146166666Y-101654819D02*
X146166666Y-102369104D01*
X146166666Y-102369104D02*
X146119047Y-102511961D01*
X146119047Y-102511961D02*
X146023809Y-102607200D01*
X146023809Y-102607200D02*
X145880952Y-102654819D01*
X145880952Y-102654819D02*
X145785714Y-102654819D01*
X146642857Y-102654819D02*
X146642857Y-101654819D01*
X146642857Y-101654819D02*
X147023809Y-101654819D01*
X147023809Y-101654819D02*
X147119047Y-101702438D01*
X147119047Y-101702438D02*
X147166666Y-101750057D01*
X147166666Y-101750057D02*
X147214285Y-101845295D01*
X147214285Y-101845295D02*
X147214285Y-101988152D01*
X147214285Y-101988152D02*
X147166666Y-102083390D01*
X147166666Y-102083390D02*
X147119047Y-102131009D01*
X147119047Y-102131009D02*
X147023809Y-102178628D01*
X147023809Y-102178628D02*
X146642857Y-102178628D01*
X148166666Y-102654819D02*
X147595238Y-102654819D01*
X147880952Y-102654819D02*
X147880952Y-101654819D01*
X147880952Y-101654819D02*
X147785714Y-101797676D01*
X147785714Y-101797676D02*
X147690476Y-101892914D01*
X147690476Y-101892914D02*
X147595238Y-101940533D01*
D12*
X69596095Y-84797019D02*
X69596095Y-85606542D01*
X69596095Y-85606542D02*
X69643714Y-85701780D01*
X69643714Y-85701780D02*
X69691333Y-85749400D01*
X69691333Y-85749400D02*
X69786571Y-85797019D01*
X69786571Y-85797019D02*
X69977047Y-85797019D01*
X69977047Y-85797019D02*
X70072285Y-85749400D01*
X70072285Y-85749400D02*
X70119904Y-85701780D01*
X70119904Y-85701780D02*
X70167523Y-85606542D01*
X70167523Y-85606542D02*
X70167523Y-84797019D01*
X71072285Y-85130352D02*
X71072285Y-85797019D01*
X70834190Y-84749400D02*
X70596095Y-85463685D01*
X70596095Y-85463685D02*
X71215142Y-85463685D01*
D11*
X123690476Y-142124819D02*
X123690476Y-142839104D01*
X123690476Y-142839104D02*
X123642857Y-142981961D01*
X123642857Y-142981961D02*
X123547619Y-143077200D01*
X123547619Y-143077200D02*
X123404762Y-143124819D01*
X123404762Y-143124819D02*
X123309524Y-143124819D01*
X124690476Y-143124819D02*
X124119048Y-143124819D01*
X124404762Y-143124819D02*
X124404762Y-142124819D01*
X124404762Y-142124819D02*
X124309524Y-142267676D01*
X124309524Y-142267676D02*
X124214286Y-142362914D01*
X124214286Y-142362914D02*
X124119048Y-142410533D01*
X125023810Y-142124819D02*
X125642857Y-142124819D01*
X125642857Y-142124819D02*
X125309524Y-142505771D01*
X125309524Y-142505771D02*
X125452381Y-142505771D01*
X125452381Y-142505771D02*
X125547619Y-142553390D01*
X125547619Y-142553390D02*
X125595238Y-142601009D01*
X125595238Y-142601009D02*
X125642857Y-142696247D01*
X125642857Y-142696247D02*
X125642857Y-142934342D01*
X125642857Y-142934342D02*
X125595238Y-143029580D01*
X125595238Y-143029580D02*
X125547619Y-143077200D01*
X125547619Y-143077200D02*
X125452381Y-143124819D01*
X125452381Y-143124819D02*
X125166667Y-143124819D01*
X125166667Y-143124819D02*
X125071429Y-143077200D01*
X125071429Y-143077200D02*
X125023810Y-143029580D01*
X52166666Y-105254819D02*
X52166666Y-105969104D01*
X52166666Y-105969104D02*
X52119047Y-106111961D01*
X52119047Y-106111961D02*
X52023809Y-106207200D01*
X52023809Y-106207200D02*
X51880952Y-106254819D01*
X51880952Y-106254819D02*
X51785714Y-106254819D01*
X52642857Y-106254819D02*
X52642857Y-105254819D01*
X52642857Y-105254819D02*
X53023809Y-105254819D01*
X53023809Y-105254819D02*
X53119047Y-105302438D01*
X53119047Y-105302438D02*
X53166666Y-105350057D01*
X53166666Y-105350057D02*
X53214285Y-105445295D01*
X53214285Y-105445295D02*
X53214285Y-105588152D01*
X53214285Y-105588152D02*
X53166666Y-105683390D01*
X53166666Y-105683390D02*
X53119047Y-105731009D01*
X53119047Y-105731009D02*
X53023809Y-105778628D01*
X53023809Y-105778628D02*
X52642857Y-105778628D01*
X53595238Y-105350057D02*
X53642857Y-105302438D01*
X53642857Y-105302438D02*
X53738095Y-105254819D01*
X53738095Y-105254819D02*
X53976190Y-105254819D01*
X53976190Y-105254819D02*
X54071428Y-105302438D01*
X54071428Y-105302438D02*
X54119047Y-105350057D01*
X54119047Y-105350057D02*
X54166666Y-105445295D01*
X54166666Y-105445295D02*
X54166666Y-105540533D01*
X54166666Y-105540533D02*
X54119047Y-105683390D01*
X54119047Y-105683390D02*
X53547619Y-106254819D01*
X53547619Y-106254819D02*
X54166666Y-106254819D01*
D12*
X67424395Y-118138919D02*
X67424395Y-118948442D01*
X67424395Y-118948442D02*
X67472014Y-119043680D01*
X67472014Y-119043680D02*
X67519633Y-119091300D01*
X67519633Y-119091300D02*
X67614871Y-119138919D01*
X67614871Y-119138919D02*
X67805347Y-119138919D01*
X67805347Y-119138919D02*
X67900585Y-119091300D01*
X67900585Y-119091300D02*
X67948204Y-119043680D01*
X67948204Y-119043680D02*
X67995823Y-118948442D01*
X67995823Y-118948442D02*
X67995823Y-118138919D01*
X68995823Y-119138919D02*
X68424395Y-119138919D01*
X68710109Y-119138919D02*
X68710109Y-118138919D01*
X68710109Y-118138919D02*
X68614871Y-118281776D01*
X68614871Y-118281776D02*
X68519633Y-118377014D01*
X68519633Y-118377014D02*
X68424395Y-118424633D01*
D11*
X122360476Y-55574819D02*
X122360476Y-56289104D01*
X122360476Y-56289104D02*
X122312857Y-56431961D01*
X122312857Y-56431961D02*
X122217619Y-56527200D01*
X122217619Y-56527200D02*
X122074762Y-56574819D01*
X122074762Y-56574819D02*
X121979524Y-56574819D01*
X123360476Y-56574819D02*
X122789048Y-56574819D01*
X123074762Y-56574819D02*
X123074762Y-55574819D01*
X123074762Y-55574819D02*
X122979524Y-55717676D01*
X122979524Y-55717676D02*
X122884286Y-55812914D01*
X122884286Y-55812914D02*
X122789048Y-55860533D01*
X124265238Y-55574819D02*
X123789048Y-55574819D01*
X123789048Y-55574819D02*
X123741429Y-56051009D01*
X123741429Y-56051009D02*
X123789048Y-56003390D01*
X123789048Y-56003390D02*
X123884286Y-55955771D01*
X123884286Y-55955771D02*
X124122381Y-55955771D01*
X124122381Y-55955771D02*
X124217619Y-56003390D01*
X124217619Y-56003390D02*
X124265238Y-56051009D01*
X124265238Y-56051009D02*
X124312857Y-56146247D01*
X124312857Y-56146247D02*
X124312857Y-56384342D01*
X124312857Y-56384342D02*
X124265238Y-56479580D01*
X124265238Y-56479580D02*
X124217619Y-56527200D01*
X124217619Y-56527200D02*
X124122381Y-56574819D01*
X124122381Y-56574819D02*
X123884286Y-56574819D01*
X123884286Y-56574819D02*
X123789048Y-56527200D01*
X123789048Y-56527200D02*
X123741429Y-56479580D01*
D12*
X122529695Y-118257619D02*
X122529695Y-119067142D01*
X122529695Y-119067142D02*
X122577314Y-119162380D01*
X122577314Y-119162380D02*
X122624933Y-119210000D01*
X122624933Y-119210000D02*
X122720171Y-119257619D01*
X122720171Y-119257619D02*
X122910647Y-119257619D01*
X122910647Y-119257619D02*
X123005885Y-119210000D01*
X123005885Y-119210000D02*
X123053504Y-119162380D01*
X123053504Y-119162380D02*
X123101123Y-119067142D01*
X123101123Y-119067142D02*
X123101123Y-118257619D01*
X123529695Y-118352857D02*
X123577314Y-118305238D01*
X123577314Y-118305238D02*
X123672552Y-118257619D01*
X123672552Y-118257619D02*
X123910647Y-118257619D01*
X123910647Y-118257619D02*
X124005885Y-118305238D01*
X124005885Y-118305238D02*
X124053504Y-118352857D01*
X124053504Y-118352857D02*
X124101123Y-118448095D01*
X124101123Y-118448095D02*
X124101123Y-118543333D01*
X124101123Y-118543333D02*
X124053504Y-118686190D01*
X124053504Y-118686190D02*
X123482076Y-119257619D01*
X123482076Y-119257619D02*
X124101123Y-119257619D01*
D11*
X65835476Y-144334819D02*
X65835476Y-145049104D01*
X65835476Y-145049104D02*
X65787857Y-145191961D01*
X65787857Y-145191961D02*
X65692619Y-145287200D01*
X65692619Y-145287200D02*
X65549762Y-145334819D01*
X65549762Y-145334819D02*
X65454524Y-145334819D01*
X66835476Y-145334819D02*
X66264048Y-145334819D01*
X66549762Y-145334819D02*
X66549762Y-144334819D01*
X66549762Y-144334819D02*
X66454524Y-144477676D01*
X66454524Y-144477676D02*
X66359286Y-144572914D01*
X66359286Y-144572914D02*
X66264048Y-144620533D01*
X67692619Y-144668152D02*
X67692619Y-145334819D01*
X67454524Y-144287200D02*
X67216429Y-145001485D01*
X67216429Y-145001485D02*
X67835476Y-145001485D01*
X69190476Y-52954819D02*
X69190476Y-53669104D01*
X69190476Y-53669104D02*
X69142857Y-53811961D01*
X69142857Y-53811961D02*
X69047619Y-53907200D01*
X69047619Y-53907200D02*
X68904762Y-53954819D01*
X68904762Y-53954819D02*
X68809524Y-53954819D01*
X70190476Y-53954819D02*
X69619048Y-53954819D01*
X69904762Y-53954819D02*
X69904762Y-52954819D01*
X69904762Y-52954819D02*
X69809524Y-53097676D01*
X69809524Y-53097676D02*
X69714286Y-53192914D01*
X69714286Y-53192914D02*
X69619048Y-53240533D01*
X71047619Y-52954819D02*
X70857143Y-52954819D01*
X70857143Y-52954819D02*
X70761905Y-53002438D01*
X70761905Y-53002438D02*
X70714286Y-53050057D01*
X70714286Y-53050057D02*
X70619048Y-53192914D01*
X70619048Y-53192914D02*
X70571429Y-53383390D01*
X70571429Y-53383390D02*
X70571429Y-53764342D01*
X70571429Y-53764342D02*
X70619048Y-53859580D01*
X70619048Y-53859580D02*
X70666667Y-53907200D01*
X70666667Y-53907200D02*
X70761905Y-53954819D01*
X70761905Y-53954819D02*
X70952381Y-53954819D01*
X70952381Y-53954819D02*
X71047619Y-53907200D01*
X71047619Y-53907200D02*
X71095238Y-53859580D01*
X71095238Y-53859580D02*
X71142857Y-53764342D01*
X71142857Y-53764342D02*
X71142857Y-53526247D01*
X71142857Y-53526247D02*
X71095238Y-53431009D01*
X71095238Y-53431009D02*
X71047619Y-53383390D01*
X71047619Y-53383390D02*
X70952381Y-53335771D01*
X70952381Y-53335771D02*
X70761905Y-53335771D01*
X70761905Y-53335771D02*
X70666667Y-53383390D01*
X70666667Y-53383390D02*
X70619048Y-53431009D01*
X70619048Y-53431009D02*
X70571429Y-53526247D01*
X52166666Y-97254819D02*
X52166666Y-97969104D01*
X52166666Y-97969104D02*
X52119047Y-98111961D01*
X52119047Y-98111961D02*
X52023809Y-98207200D01*
X52023809Y-98207200D02*
X51880952Y-98254819D01*
X51880952Y-98254819D02*
X51785714Y-98254819D01*
X52642857Y-98254819D02*
X52642857Y-97254819D01*
X52642857Y-97254819D02*
X53023809Y-97254819D01*
X53023809Y-97254819D02*
X53119047Y-97302438D01*
X53119047Y-97302438D02*
X53166666Y-97350057D01*
X53166666Y-97350057D02*
X53214285Y-97445295D01*
X53214285Y-97445295D02*
X53214285Y-97588152D01*
X53214285Y-97588152D02*
X53166666Y-97683390D01*
X53166666Y-97683390D02*
X53119047Y-97731009D01*
X53119047Y-97731009D02*
X53023809Y-97778628D01*
X53023809Y-97778628D02*
X52642857Y-97778628D01*
X54071428Y-97588152D02*
X54071428Y-98254819D01*
X53833333Y-97207200D02*
X53595238Y-97921485D01*
X53595238Y-97921485D02*
X54214285Y-97921485D01*
D12*
X125979295Y-84166419D02*
X125979295Y-84975942D01*
X125979295Y-84975942D02*
X126026914Y-85071180D01*
X126026914Y-85071180D02*
X126074533Y-85118800D01*
X126074533Y-85118800D02*
X126169771Y-85166419D01*
X126169771Y-85166419D02*
X126360247Y-85166419D01*
X126360247Y-85166419D02*
X126455485Y-85118800D01*
X126455485Y-85118800D02*
X126503104Y-85071180D01*
X126503104Y-85071180D02*
X126550723Y-84975942D01*
X126550723Y-84975942D02*
X126550723Y-84166419D01*
X126931676Y-84166419D02*
X127550723Y-84166419D01*
X127550723Y-84166419D02*
X127217390Y-84547371D01*
X127217390Y-84547371D02*
X127360247Y-84547371D01*
X127360247Y-84547371D02*
X127455485Y-84594990D01*
X127455485Y-84594990D02*
X127503104Y-84642609D01*
X127503104Y-84642609D02*
X127550723Y-84737847D01*
X127550723Y-84737847D02*
X127550723Y-84975942D01*
X127550723Y-84975942D02*
X127503104Y-85071180D01*
X127503104Y-85071180D02*
X127455485Y-85118800D01*
X127455485Y-85118800D02*
X127360247Y-85166419D01*
X127360247Y-85166419D02*
X127074533Y-85166419D01*
X127074533Y-85166419D02*
X126979295Y-85118800D01*
X126979295Y-85118800D02*
X126931676Y-85071180D01*
D11*
X141666666Y-143624819D02*
X141666666Y-144339104D01*
X141666666Y-144339104D02*
X141619047Y-144481961D01*
X141619047Y-144481961D02*
X141523809Y-144577200D01*
X141523809Y-144577200D02*
X141380952Y-144624819D01*
X141380952Y-144624819D02*
X141285714Y-144624819D01*
X142666666Y-144624819D02*
X142095238Y-144624819D01*
X142380952Y-144624819D02*
X142380952Y-143624819D01*
X142380952Y-143624819D02*
X142285714Y-143767676D01*
X142285714Y-143767676D02*
X142190476Y-143862914D01*
X142190476Y-143862914D02*
X142095238Y-143910533D01*
X57190476Y-144164819D02*
X57190476Y-144879104D01*
X57190476Y-144879104D02*
X57142857Y-145021961D01*
X57142857Y-145021961D02*
X57047619Y-145117200D01*
X57047619Y-145117200D02*
X56904762Y-145164819D01*
X56904762Y-145164819D02*
X56809524Y-145164819D01*
X58190476Y-145164819D02*
X57619048Y-145164819D01*
X57904762Y-145164819D02*
X57904762Y-144164819D01*
X57904762Y-144164819D02*
X57809524Y-144307676D01*
X57809524Y-144307676D02*
X57714286Y-144402914D01*
X57714286Y-144402914D02*
X57619048Y-144450533D01*
X59142857Y-145164819D02*
X58571429Y-145164819D01*
X58857143Y-145164819D02*
X58857143Y-144164819D01*
X58857143Y-144164819D02*
X58761905Y-144307676D01*
X58761905Y-144307676D02*
X58666667Y-144402914D01*
X58666667Y-144402914D02*
X58571429Y-144450533D01*
X142666666Y-55244819D02*
X142666666Y-55959104D01*
X142666666Y-55959104D02*
X142619047Y-56101961D01*
X142619047Y-56101961D02*
X142523809Y-56197200D01*
X142523809Y-56197200D02*
X142380952Y-56244819D01*
X142380952Y-56244819D02*
X142285714Y-56244819D01*
X143047619Y-55244819D02*
X143666666Y-55244819D01*
X143666666Y-55244819D02*
X143333333Y-55625771D01*
X143333333Y-55625771D02*
X143476190Y-55625771D01*
X143476190Y-55625771D02*
X143571428Y-55673390D01*
X143571428Y-55673390D02*
X143619047Y-55721009D01*
X143619047Y-55721009D02*
X143666666Y-55816247D01*
X143666666Y-55816247D02*
X143666666Y-56054342D01*
X143666666Y-56054342D02*
X143619047Y-56149580D01*
X143619047Y-56149580D02*
X143571428Y-56197200D01*
X143571428Y-56197200D02*
X143476190Y-56244819D01*
X143476190Y-56244819D02*
X143190476Y-56244819D01*
X143190476Y-56244819D02*
X143095238Y-56197200D01*
X143095238Y-56197200D02*
X143047619Y-56149580D01*
X113166666Y-144124819D02*
X113166666Y-144839104D01*
X113166666Y-144839104D02*
X113119047Y-144981961D01*
X113119047Y-144981961D02*
X113023809Y-145077200D01*
X113023809Y-145077200D02*
X112880952Y-145124819D01*
X112880952Y-145124819D02*
X112785714Y-145124819D01*
X113690476Y-145124819D02*
X113880952Y-145124819D01*
X113880952Y-145124819D02*
X113976190Y-145077200D01*
X113976190Y-145077200D02*
X114023809Y-145029580D01*
X114023809Y-145029580D02*
X114119047Y-144886723D01*
X114119047Y-144886723D02*
X114166666Y-144696247D01*
X114166666Y-144696247D02*
X114166666Y-144315295D01*
X114166666Y-144315295D02*
X114119047Y-144220057D01*
X114119047Y-144220057D02*
X114071428Y-144172438D01*
X114071428Y-144172438D02*
X113976190Y-144124819D01*
X113976190Y-144124819D02*
X113785714Y-144124819D01*
X113785714Y-144124819D02*
X113690476Y-144172438D01*
X113690476Y-144172438D02*
X113642857Y-144220057D01*
X113642857Y-144220057D02*
X113595238Y-144315295D01*
X113595238Y-144315295D02*
X113595238Y-144553390D01*
X113595238Y-144553390D02*
X113642857Y-144648628D01*
X113642857Y-144648628D02*
X113690476Y-144696247D01*
X113690476Y-144696247D02*
X113785714Y-144743866D01*
X113785714Y-144743866D02*
X113976190Y-144743866D01*
X113976190Y-144743866D02*
X114071428Y-144696247D01*
X114071428Y-144696247D02*
X114119047Y-144648628D01*
X114119047Y-144648628D02*
X114166666Y-144553390D01*
X84940476Y-55124819D02*
X84940476Y-55839104D01*
X84940476Y-55839104D02*
X84892857Y-55981961D01*
X84892857Y-55981961D02*
X84797619Y-56077200D01*
X84797619Y-56077200D02*
X84654762Y-56124819D01*
X84654762Y-56124819D02*
X84559524Y-56124819D01*
X85940476Y-56124819D02*
X85369048Y-56124819D01*
X85654762Y-56124819D02*
X85654762Y-55124819D01*
X85654762Y-55124819D02*
X85559524Y-55267676D01*
X85559524Y-55267676D02*
X85464286Y-55362914D01*
X85464286Y-55362914D02*
X85369048Y-55410533D01*
X86559524Y-55124819D02*
X86654762Y-55124819D01*
X86654762Y-55124819D02*
X86750000Y-55172438D01*
X86750000Y-55172438D02*
X86797619Y-55220057D01*
X86797619Y-55220057D02*
X86845238Y-55315295D01*
X86845238Y-55315295D02*
X86892857Y-55505771D01*
X86892857Y-55505771D02*
X86892857Y-55743866D01*
X86892857Y-55743866D02*
X86845238Y-55934342D01*
X86845238Y-55934342D02*
X86797619Y-56029580D01*
X86797619Y-56029580D02*
X86750000Y-56077200D01*
X86750000Y-56077200D02*
X86654762Y-56124819D01*
X86654762Y-56124819D02*
X86559524Y-56124819D01*
X86559524Y-56124819D02*
X86464286Y-56077200D01*
X86464286Y-56077200D02*
X86416667Y-56029580D01*
X86416667Y-56029580D02*
X86369048Y-55934342D01*
X86369048Y-55934342D02*
X86321429Y-55743866D01*
X86321429Y-55743866D02*
X86321429Y-55505771D01*
X86321429Y-55505771D02*
X86369048Y-55315295D01*
X86369048Y-55315295D02*
X86416667Y-55220057D01*
X86416667Y-55220057D02*
X86464286Y-55172438D01*
X86464286Y-55172438D02*
X86559524Y-55124819D01*
X58416666Y-55284819D02*
X58416666Y-55999104D01*
X58416666Y-55999104D02*
X58369047Y-56141961D01*
X58369047Y-56141961D02*
X58273809Y-56237200D01*
X58273809Y-56237200D02*
X58130952Y-56284819D01*
X58130952Y-56284819D02*
X58035714Y-56284819D01*
X59321428Y-55618152D02*
X59321428Y-56284819D01*
X59083333Y-55237200D02*
X58845238Y-55951485D01*
X58845238Y-55951485D02*
X59464285Y-55951485D01*
X86690476Y-142834819D02*
X86690476Y-143549104D01*
X86690476Y-143549104D02*
X86642857Y-143691961D01*
X86642857Y-143691961D02*
X86547619Y-143787200D01*
X86547619Y-143787200D02*
X86404762Y-143834819D01*
X86404762Y-143834819D02*
X86309524Y-143834819D01*
X87690476Y-143834819D02*
X87119048Y-143834819D01*
X87404762Y-143834819D02*
X87404762Y-142834819D01*
X87404762Y-142834819D02*
X87309524Y-142977676D01*
X87309524Y-142977676D02*
X87214286Y-143072914D01*
X87214286Y-143072914D02*
X87119048Y-143120533D01*
X88071429Y-142930057D02*
X88119048Y-142882438D01*
X88119048Y-142882438D02*
X88214286Y-142834819D01*
X88214286Y-142834819D02*
X88452381Y-142834819D01*
X88452381Y-142834819D02*
X88547619Y-142882438D01*
X88547619Y-142882438D02*
X88595238Y-142930057D01*
X88595238Y-142930057D02*
X88642857Y-143025295D01*
X88642857Y-143025295D02*
X88642857Y-143120533D01*
X88642857Y-143120533D02*
X88595238Y-143263390D01*
X88595238Y-143263390D02*
X88023810Y-143834819D01*
X88023810Y-143834819D02*
X88642857Y-143834819D01*
X113166666Y-55284819D02*
X113166666Y-55999104D01*
X113166666Y-55999104D02*
X113119047Y-56141961D01*
X113119047Y-56141961D02*
X113023809Y-56237200D01*
X113023809Y-56237200D02*
X112880952Y-56284819D01*
X112880952Y-56284819D02*
X112785714Y-56284819D01*
X113595238Y-55380057D02*
X113642857Y-55332438D01*
X113642857Y-55332438D02*
X113738095Y-55284819D01*
X113738095Y-55284819D02*
X113976190Y-55284819D01*
X113976190Y-55284819D02*
X114071428Y-55332438D01*
X114071428Y-55332438D02*
X114119047Y-55380057D01*
X114119047Y-55380057D02*
X114166666Y-55475295D01*
X114166666Y-55475295D02*
X114166666Y-55570533D01*
X114166666Y-55570533D02*
X114119047Y-55713390D01*
X114119047Y-55713390D02*
X113547619Y-56284819D01*
X113547619Y-56284819D02*
X114166666Y-56284819D01*
D10*
%TO.C,JP3*%
X145600000Y-96300000D02*
X145600000Y-95700000D01*
X146300000Y-95000000D02*
X147700000Y-95000000D01*
X147700000Y-97000000D02*
X146300000Y-97000000D01*
X148400000Y-95700000D02*
X148400000Y-96300000D01*
X145600000Y-95700000D02*
G75*
G02*
X146300000Y-95000000I699999J1D01*
G01*
X146300000Y-97000000D02*
G75*
G02*
X145600000Y-96300000I-1J699999D01*
G01*
X147700000Y-95000000D02*
G75*
G02*
X148400000Y-95700000I0J-700000D01*
G01*
X148400000Y-96300000D02*
G75*
G02*
X147700000Y-97000000I-700000J0D01*
G01*
%TO.C,J22*%
X59584000Y-137922000D02*
X59584000Y-115002000D01*
X62091600Y-139293600D02*
X62091600Y-140623600D01*
X62091600Y-140623600D02*
X60761600Y-140623600D01*
X62244000Y-115002000D02*
X59584000Y-115002000D01*
X62244000Y-137922000D02*
X59584000Y-137922000D01*
X62244000Y-137922000D02*
X62244000Y-115002000D01*
X82444000Y-137922000D02*
X82444000Y-115002000D01*
X85104000Y-115002000D02*
X82444000Y-115002000D01*
X85104000Y-137922000D02*
X82444000Y-137922000D01*
X85104000Y-137922000D02*
X85104000Y-115002000D01*
X85104000Y-139192000D02*
X85104000Y-140522000D01*
X85104000Y-140522000D02*
X83774000Y-140522000D01*
%TO.C,JP1*%
X145600000Y-104300000D02*
X145600000Y-103700000D01*
X146300000Y-103000000D02*
X147700000Y-103000000D01*
X147700000Y-105000000D02*
X146300000Y-105000000D01*
X148400000Y-103700000D02*
X148400000Y-104300000D01*
X145600000Y-103700000D02*
G75*
G02*
X146300000Y-103000000I699999J1D01*
G01*
X146300000Y-105000000D02*
G75*
G02*
X145600000Y-104300000I-1J699999D01*
G01*
X147700000Y-103000000D02*
G75*
G02*
X148400000Y-103700000I0J-700000D01*
G01*
X148400000Y-104300000D02*
G75*
G02*
X147700000Y-105000000I-700000J0D01*
G01*
%TO.C,J23*%
X114956000Y-137922000D02*
X114956000Y-115002000D01*
X117463600Y-139293600D02*
X117463600Y-140623600D01*
X117463600Y-140623600D02*
X116133600Y-140623600D01*
X117616000Y-115002000D02*
X114956000Y-115002000D01*
X117616000Y-137922000D02*
X114956000Y-137922000D01*
X117616000Y-137922000D02*
X117616000Y-115002000D01*
X137816000Y-137922000D02*
X137816000Y-115002000D01*
X140476000Y-115002000D02*
X137816000Y-115002000D01*
X140476000Y-137922000D02*
X137816000Y-137922000D01*
X140476000Y-137922000D02*
X140476000Y-115002000D01*
X140476000Y-139192000D02*
X140476000Y-140522000D01*
X140476000Y-140522000D02*
X139146000Y-140522000D01*
%TO.C,J24*%
X114956000Y-82550000D02*
X114956000Y-59630000D01*
X117463600Y-83921600D02*
X117463600Y-85251600D01*
X117463600Y-85251600D02*
X116133600Y-85251600D01*
X117616000Y-59630000D02*
X114956000Y-59630000D01*
X117616000Y-82550000D02*
X114956000Y-82550000D01*
X117616000Y-82550000D02*
X117616000Y-59630000D01*
X137816000Y-82550000D02*
X137816000Y-59630000D01*
X140476000Y-59630000D02*
X137816000Y-59630000D01*
X140476000Y-82550000D02*
X137816000Y-82550000D01*
X140476000Y-82550000D02*
X140476000Y-59630000D01*
X140476000Y-83820000D02*
X140476000Y-85150000D01*
X140476000Y-85150000D02*
X139146000Y-85150000D01*
D12*
%TO.C,U4*%
X67360800Y-82600800D02*
X67259200Y-82600800D01*
X67564000Y-81635600D02*
X67564000Y-81127600D01*
X68732400Y-80060800D02*
X69494400Y-80060800D01*
X70662800Y-80060800D02*
X71475600Y-80060800D01*
X72644000Y-81635600D02*
X72644000Y-81127600D01*
X72847200Y-82600800D02*
X72948800Y-82600800D01*
D10*
%TO.C,J13*%
X123670000Y-146000000D02*
X123670000Y-144670000D01*
X125000000Y-146000000D02*
X123670000Y-146000000D01*
X126270000Y-143340000D02*
X131410000Y-143340000D01*
X126270000Y-146000000D02*
X126270000Y-143340000D01*
X126270000Y-146000000D02*
X131410000Y-146000000D01*
X131410000Y-146000000D02*
X131410000Y-143340000D01*
%TO.C,JP2*%
X51600000Y-104300000D02*
X51600000Y-103700000D01*
X52300000Y-103000000D02*
X53700000Y-103000000D01*
X53700000Y-105000000D02*
X52300000Y-105000000D01*
X54400000Y-103700000D02*
X54400000Y-104300000D01*
X51600000Y-103700000D02*
G75*
G02*
X52300000Y-103000000I700000J0D01*
G01*
X52300000Y-105000000D02*
G75*
G02*
X51600000Y-104300000I0J700000D01*
G01*
X53700000Y-103000000D02*
G75*
G02*
X54400000Y-103700000I1J-699999D01*
G01*
X54400000Y-104300000D02*
G75*
G02*
X53700000Y-105000000I-699999J-1D01*
G01*
D12*
%TO.C,U1*%
X65341500Y-123126500D02*
X65239900Y-123126500D01*
X65544700Y-122161300D02*
X65544700Y-121653300D01*
X66713100Y-120586500D02*
X67475100Y-120586500D01*
X68643500Y-120586500D02*
X69456300Y-120586500D01*
X70624700Y-122161300D02*
X70624700Y-121653300D01*
X70827900Y-123126500D02*
X70929500Y-123126500D01*
D10*
%TO.C,J15*%
X124170000Y-57450000D02*
X124170000Y-56120000D01*
X125500000Y-57450000D02*
X124170000Y-57450000D01*
X126770000Y-54790000D02*
X131910000Y-54790000D01*
X126770000Y-57450000D02*
X126770000Y-54790000D01*
X126770000Y-57450000D02*
X131910000Y-57450000D01*
X131910000Y-57450000D02*
X131910000Y-54790000D01*
D12*
%TO.C,U2*%
X120446800Y-123499200D02*
X120345200Y-123499200D01*
X120650000Y-122534000D02*
X120650000Y-122026000D01*
X121818400Y-120959200D02*
X122580400Y-120959200D01*
X123748800Y-120959200D02*
X124561600Y-120959200D01*
X125730000Y-122534000D02*
X125730000Y-122026000D01*
X125933200Y-123499200D02*
X126034800Y-123499200D01*
D10*
%TO.C,J14*%
X67645000Y-146210000D02*
X67645000Y-144880000D01*
X68975000Y-146210000D02*
X67645000Y-146210000D01*
X70245000Y-143550000D02*
X75385000Y-143550000D01*
X70245000Y-146210000D02*
X70245000Y-143550000D01*
X70245000Y-146210000D02*
X75385000Y-146210000D01*
X75385000Y-146210000D02*
X75385000Y-143550000D01*
%TO.C,J16*%
X68170000Y-57330000D02*
X68170000Y-56000000D01*
X69500000Y-57330000D02*
X68170000Y-57330000D01*
X70770000Y-54670000D02*
X75910000Y-54670000D01*
X70770000Y-57330000D02*
X70770000Y-54670000D01*
X70770000Y-57330000D02*
X75910000Y-57330000D01*
X75910000Y-57330000D02*
X75910000Y-54670000D01*
%TO.C,JP4*%
X51600000Y-96300000D02*
X51600000Y-95700000D01*
X52300000Y-95000000D02*
X53700000Y-95000000D01*
X53700000Y-97000000D02*
X52300000Y-97000000D01*
X54400000Y-95700000D02*
X54400000Y-96300000D01*
X51600000Y-95700000D02*
G75*
G02*
X52300000Y-95000000I700000J0D01*
G01*
X52300000Y-97000000D02*
G75*
G02*
X51600000Y-96300000I0J700000D01*
G01*
X53700000Y-95000000D02*
G75*
G02*
X54400000Y-95700000I1J-699999D01*
G01*
X54400000Y-96300000D02*
G75*
G02*
X53700000Y-97000000I-699999J-1D01*
G01*
%TO.C,J25*%
X59584000Y-82550000D02*
X59584000Y-59630000D01*
X62091600Y-83921600D02*
X62091600Y-85251600D01*
X62091600Y-85251600D02*
X60761600Y-85251600D01*
X62244000Y-59630000D02*
X59584000Y-59630000D01*
X62244000Y-82550000D02*
X59584000Y-82550000D01*
X62244000Y-82550000D02*
X62244000Y-59630000D01*
X82444000Y-82550000D02*
X82444000Y-59630000D01*
X85104000Y-59630000D02*
X82444000Y-59630000D01*
X85104000Y-82550000D02*
X82444000Y-82550000D01*
X85104000Y-82550000D02*
X85104000Y-59630000D01*
X85104000Y-83820000D02*
X85104000Y-85150000D01*
X85104000Y-85150000D02*
X83774000Y-85150000D01*
D12*
%TO.C,U3*%
X123744000Y-82804000D02*
X123642400Y-82804000D01*
X123947200Y-81838800D02*
X123947200Y-81330800D01*
X125115600Y-80264000D02*
X125877600Y-80264000D01*
X127046000Y-80264000D02*
X127858800Y-80264000D01*
X129027200Y-81838800D02*
X129027200Y-81330800D01*
X129230400Y-82804000D02*
X129332000Y-82804000D01*
%TD*%
M02*
