%TF.GenerationSoftware,KiCad,Pcbnew,9.0.2*%
%TF.CreationDate,2025-06-11T08:09:26-04:00*%
%TF.ProjectId,DarkQuest_SiPM_Motherboard,4461726b-5175-4657-9374-5f5369504d5f,10*%
%TF.SameCoordinates,Original*%
%TF.FileFunction,Copper,L1,Top*%
%TF.FilePolarity,Positive*%
%FSLAX46Y46*%
G04 Gerber Fmt 4.6, Leading zero omitted, Abs format (unit mm)*
G04 Created by KiCad (PCBNEW 9.0.2) date 2025-06-11 08:09:26*
%MOMM*%
%LPD*%
G01*
G04 APERTURE LIST*
G04 Aperture macros list*
%AMFreePoly0*
4,1,23,0.500000,-0.750000,0.000000,-0.750000,0.000000,-0.745722,-0.065263,-0.745722,-0.191342,-0.711940,-0.304381,-0.646677,-0.396677,-0.554381,-0.461940,-0.441342,-0.495722,-0.315263,-0.495722,-0.250000,-0.500000,-0.250000,-0.500000,0.250000,-0.495722,0.250000,-0.495722,0.315263,-0.461940,0.441342,-0.396677,0.554381,-0.304381,0.646677,-0.191342,0.711940,-0.065263,0.745722,0.000000,0.745722,
0.000000,0.750000,0.500000,0.750000,0.500000,-0.750000,0.500000,-0.750000,$1*%
%AMFreePoly1*
4,1,23,0.000000,0.745722,0.065263,0.745722,0.191342,0.711940,0.304381,0.646677,0.396677,0.554381,0.461940,0.441342,0.495722,0.315263,0.495722,0.250000,0.500000,0.250000,0.500000,-0.250000,0.495722,-0.250000,0.495722,-0.315263,0.461940,-0.441342,0.396677,-0.554381,0.304381,-0.646677,0.191342,-0.711940,0.065263,-0.745722,0.000000,-0.745722,0.000000,-0.750000,-0.500000,-0.750000,
-0.500000,0.750000,0.000000,0.750000,0.000000,0.745722,0.000000,0.745722,$1*%
%AMFreePoly2*
4,1,5,0.508000,-1.498600,-0.508000,-1.498600,-0.508000,1.498600,0.508000,1.498600,0.508000,-1.498600,0.508000,-1.498600,$1*%
G04 Aperture macros list end*
%TA.AperFunction,ComponentPad*%
%ADD10C,16.800000*%
%TD*%
%TA.AperFunction,ComponentPad*%
%ADD11C,12.000000*%
%TD*%
%TA.AperFunction,SMDPad,CuDef*%
%ADD12FreePoly0,0.000000*%
%TD*%
%TA.AperFunction,SMDPad,CuDef*%
%ADD13FreePoly1,0.000000*%
%TD*%
%TA.AperFunction,ComponentPad*%
%ADD14R,1.700000X1.700000*%
%TD*%
%TA.AperFunction,ComponentPad*%
%ADD15O,1.700000X1.700000*%
%TD*%
%TA.AperFunction,SMDPad,CuDef*%
%ADD16R,1.625600X1.108800*%
%TD*%
%TA.AperFunction,SMDPad,CuDef*%
%ADD17R,1.727200X1.117600*%
%TD*%
%TA.AperFunction,SMDPad,CuDef*%
%ADD18R,5.207000X1.143000*%
%TD*%
%TA.AperFunction,SMDPad,CuDef*%
%ADD19FreePoly2,0.000000*%
%TD*%
%TA.AperFunction,SMDPad,CuDef*%
%ADD20FreePoly0,180.000000*%
%TD*%
%TA.AperFunction,SMDPad,CuDef*%
%ADD21FreePoly1,180.000000*%
%TD*%
%TA.AperFunction,WasherPad*%
%ADD22C,3.650000*%
%TD*%
%TA.AperFunction,ComponentPad*%
%ADD23C,1.500000*%
%TD*%
%TA.AperFunction,ComponentPad*%
%ADD24C,2.500000*%
%TD*%
%TA.AperFunction,ViaPad*%
%ADD25C,0.800000*%
%TD*%
%TA.AperFunction,ViaPad*%
%ADD26C,0.600000*%
%TD*%
%TA.AperFunction,Conductor*%
%ADD27C,0.635000*%
%TD*%
%TA.AperFunction,Conductor*%
%ADD28C,1.000000*%
%TD*%
%TA.AperFunction,Conductor*%
%ADD29C,0.500000*%
%TD*%
G04 APERTURE END LIST*
D10*
%TO.P,H2,1*%
%TO.N,N/C*%
X100000000Y-100000000D03*
%TD*%
D11*
%TO.P,H3,1*%
%TO.N,N/C*%
X100000000Y-137000000D03*
%TD*%
%TO.P,H4,1*%
%TO.N,N/C*%
X137000000Y-100000000D03*
%TD*%
%TO.P,H5,1*%
%TO.N,N/C*%
X63000000Y-100000000D03*
%TD*%
%TO.P,H1,1*%
%TO.N,N/C*%
X100000000Y-63000000D03*
%TD*%
D12*
%TO.P,JP3,1,A*%
%TO.N,GND3*%
X146350000Y-96000000D03*
D13*
%TO.P,JP3,2,B*%
%TO.N,Net-(JP1-B)*%
X147650000Y-96000000D03*
%TD*%
D14*
%TO.P,J22,*%
%TO.N,*%
X83774000Y-139192000D03*
D15*
X83774000Y-136652000D03*
X83774000Y-134112000D03*
X83774000Y-131572000D03*
X83774000Y-126492000D03*
X83774000Y-123952000D03*
X83774000Y-121412000D03*
X83774000Y-118872000D03*
X83774000Y-116332000D03*
D14*
X60914000Y-139192000D03*
D15*
X60914000Y-136652000D03*
X60914000Y-134112000D03*
X60914000Y-131572000D03*
X60914000Y-126492000D03*
X60914000Y-121412000D03*
X60914000Y-118872000D03*
X60914000Y-116332000D03*
%TO.P,J22,1,Anode*%
%TO.N,/A2_PreAtten*%
X60914000Y-129032000D03*
%TO.P,J22,2,GND*%
%TO.N,GND2*%
X60914000Y-123952000D03*
%TO.P,J22,3,Cathode*%
%TO.N,/K2*%
X83774000Y-129032000D03*
%TD*%
D12*
%TO.P,JP1,1,A*%
%TO.N,GND1*%
X146350000Y-104000000D03*
D13*
%TO.P,JP1,2,B*%
%TO.N,Net-(JP1-B)*%
X147650000Y-104000000D03*
%TD*%
D14*
%TO.P,J23,*%
%TO.N,*%
X139146000Y-139192000D03*
D15*
X139146000Y-136652000D03*
X139146000Y-134112000D03*
X139146000Y-131572000D03*
X139146000Y-126492000D03*
X139146000Y-123952000D03*
X139146000Y-121412000D03*
X139146000Y-118872000D03*
X139146000Y-116332000D03*
D14*
X116286000Y-139192000D03*
D15*
X116286000Y-136652000D03*
X116286000Y-134112000D03*
X116286000Y-131572000D03*
X116286000Y-126492000D03*
X116286000Y-121412000D03*
X116286000Y-118872000D03*
X116286000Y-116332000D03*
%TO.P,J23,1,Anode*%
%TO.N,/A1_PreAtten*%
X116286000Y-129032000D03*
%TO.P,J23,2,GND*%
%TO.N,GND1*%
X116286000Y-123952000D03*
%TO.P,J23,3,Cathode*%
%TO.N,/K1*%
X139146000Y-129032000D03*
%TD*%
D14*
%TO.P,J24,*%
%TO.N,*%
X139146000Y-83820000D03*
D15*
X139146000Y-81280000D03*
X139146000Y-78740000D03*
X139146000Y-76200000D03*
X139146000Y-71120000D03*
X139146000Y-68580000D03*
X139146000Y-66040000D03*
X139146000Y-63500000D03*
X139146000Y-60960000D03*
D14*
X116286000Y-83820000D03*
D15*
X116286000Y-81280000D03*
X116286000Y-78740000D03*
X116286000Y-76200000D03*
X116286000Y-71120000D03*
X116286000Y-66040000D03*
X116286000Y-63500000D03*
X116286000Y-60960000D03*
%TO.P,J24,1,Anode*%
%TO.N,/A3_PreAtten*%
X116286000Y-73660000D03*
%TO.P,J24,2,GND*%
%TO.N,GND3*%
X116286000Y-68580000D03*
%TO.P,J24,3,Cathode*%
%TO.N,/K3*%
X139146000Y-73660000D03*
%TD*%
D16*
%TO.P,U4,1*%
%TO.N,Net-(SW2-C)*%
X67818000Y-80513600D03*
D17*
%TO.P,U4,2*%
%TO.N,Net-(SW2-0)*%
X72390000Y-80518000D03*
D18*
%TO.P,U4,3,G*%
%TO.N,GND4*%
X70091300Y-82410300D03*
D19*
X70104000Y-81457800D03*
%TD*%
D14*
%TO.P,J13,1,Pin_1*%
%TO.N,GND1*%
X125000000Y-144670000D03*
D15*
%TO.P,J13,2,Pin_2*%
%TO.N,/A1*%
X127540000Y-144670000D03*
%TO.P,J13,3,Pin_3*%
%TO.N,/K1*%
X130080000Y-144670000D03*
%TD*%
D20*
%TO.P,JP2,1,A*%
%TO.N,GND2*%
X53650000Y-104000000D03*
D21*
%TO.P,JP2,2,B*%
%TO.N,Net-(JP1-B)*%
X52350000Y-104000000D03*
%TD*%
D16*
%TO.P,U1,1*%
%TO.N,Net-(SW1-C)*%
X65798700Y-121039300D03*
D17*
%TO.P,U1,2*%
%TO.N,Net-(SW1-0)*%
X70370700Y-121043700D03*
D18*
%TO.P,U1,3,G*%
%TO.N,GND2*%
X68072000Y-122936000D03*
D19*
X68084700Y-121983500D03*
%TD*%
D14*
%TO.P,J15,1,Pin_1*%
%TO.N,GND3*%
X125500000Y-56120000D03*
D15*
%TO.P,J15,2,Pin_2*%
%TO.N,/A3*%
X128040000Y-56120000D03*
%TO.P,J15,3,Pin_3*%
%TO.N,/K3*%
X130580000Y-56120000D03*
%TD*%
D16*
%TO.P,U2,1*%
%TO.N,Net-(SW3-C)*%
X120904000Y-121412000D03*
D17*
%TO.P,U2,2*%
%TO.N,Net-(SW3-0)*%
X125476000Y-121416400D03*
D18*
%TO.P,U2,3,G*%
%TO.N,GND1*%
X123177300Y-123308700D03*
D19*
X123190000Y-122356200D03*
%TD*%
D14*
%TO.P,J14,1,Pin_1*%
%TO.N,GND2*%
X68975000Y-144880000D03*
D15*
%TO.P,J14,2,Pin_2*%
%TO.N,/A2*%
X71515000Y-144880000D03*
%TO.P,J14,3,Pin_3*%
%TO.N,/K2*%
X74055000Y-144880000D03*
%TD*%
D14*
%TO.P,J16,1,Pin_1*%
%TO.N,GND4*%
X69500000Y-56000000D03*
D15*
%TO.P,J16,2,Pin_2*%
%TO.N,/A4*%
X72040000Y-56000000D03*
%TO.P,J16,3,Pin_3*%
%TO.N,/K4*%
X74580000Y-56000000D03*
%TD*%
D20*
%TO.P,JP4,1,A*%
%TO.N,GND4*%
X53650000Y-96000000D03*
D21*
%TO.P,JP4,2,B*%
%TO.N,Net-(JP1-B)*%
X52350000Y-96000000D03*
%TD*%
D14*
%TO.P,J25,*%
%TO.N,*%
X83774000Y-83820000D03*
D15*
X83774000Y-81280000D03*
X83774000Y-78740000D03*
X83774000Y-76200000D03*
X83774000Y-71120000D03*
X83774000Y-68580000D03*
X83774000Y-66040000D03*
X83774000Y-63500000D03*
X83774000Y-60960000D03*
D14*
X60914000Y-83820000D03*
D15*
X60914000Y-81280000D03*
X60914000Y-78740000D03*
X60914000Y-76200000D03*
X60914000Y-71120000D03*
X60914000Y-66040000D03*
X60914000Y-63500000D03*
X60914000Y-60960000D03*
%TO.P,J25,1,Anode*%
%TO.N,/A4_PreAtten*%
X60914000Y-73660000D03*
%TO.P,J25,2,GND*%
%TO.N,GND4*%
X60914000Y-68580000D03*
%TO.P,J25,3,Cathode*%
%TO.N,/K4*%
X83774000Y-73660000D03*
%TD*%
D16*
%TO.P,U3,1*%
%TO.N,Net-(SW4-C)*%
X124201200Y-80716800D03*
D17*
%TO.P,U3,2*%
%TO.N,Net-(SW4-0)*%
X128773200Y-80721200D03*
D18*
%TO.P,U3,3,G*%
%TO.N,GND3*%
X126474500Y-82613500D03*
D19*
X126487200Y-81661000D03*
%TD*%
D22*
%TO.P,J21,*%
%TO.N,*%
X96800000Y-124590000D03*
X96800000Y-113160000D03*
D23*
%TO.P,J21,1*%
%TO.N,/K1*%
X103150000Y-123320000D03*
%TO.P,J21,2*%
%TO.N,/A1*%
X105690000Y-122050000D03*
%TO.P,J21,3*%
%TO.N,/K2*%
X103150000Y-120780000D03*
%TO.P,J21,4*%
%TO.N,/A3*%
X105690000Y-119510000D03*
%TO.P,J21,5*%
%TO.N,/K3*%
X103150000Y-118240000D03*
%TO.P,J21,6*%
%TO.N,/A2*%
X105690000Y-116970000D03*
%TO.P,J21,7*%
%TO.N,/K4*%
X103150000Y-115700000D03*
%TO.P,J21,8*%
%TO.N,/A4*%
X105690000Y-114430000D03*
D24*
%TO.P,J21,SH*%
%TO.N,Net-(JP1-B)*%
X99850000Y-126750000D03*
X99850000Y-111000000D03*
%TD*%
D25*
%TO.N,Net-(SW1-0)*%
X72644000Y-125984000D03*
%TO.N,Net-(SW2-0)*%
X73505000Y-72390000D03*
%TO.N,Net-(SW3-0)*%
X127000000Y-126238000D03*
%TO.N,Net-(SW4-0)*%
X130302000Y-72390000D03*
%TO.N,Net-(SW1-C)*%
X63500000Y-130302000D03*
%TO.N,Net-(SW2-C)*%
X65532000Y-76200000D03*
%TO.N,Net-(SW3-C)*%
X118872000Y-130048000D03*
%TO.N,Net-(SW4-C)*%
X120396000Y-76708000D03*
%TO.N,GND1*%
X123190000Y-124968000D03*
D26*
X114000000Y-105000000D03*
D25*
%TO.N,GND2*%
X68072000Y-124714000D03*
%TO.N,GND3*%
X126492000Y-78232000D03*
%TO.N,GND4*%
X70104000Y-77978000D03*
%TD*%
D27*
%TO.N,Net-(SW1-0)*%
X70370700Y-121043700D02*
X72644000Y-123317000D01*
X72644000Y-123317000D02*
X72644000Y-125984000D01*
%TO.N,Net-(SW2-0)*%
X73660000Y-72390000D02*
X73505000Y-72390000D01*
X76200000Y-78486000D02*
X76200000Y-74930000D01*
X72390000Y-80518000D02*
X74168000Y-80518000D01*
X76200000Y-74930000D02*
X73660000Y-72390000D01*
X74168000Y-80518000D02*
X76200000Y-78486000D01*
%TO.N,Net-(SW3-0)*%
X127000000Y-122940400D02*
X127000000Y-126238000D01*
X125476000Y-121416400D02*
X127000000Y-122940400D01*
%TO.N,Net-(SW4-0)*%
X130606800Y-80721200D02*
X128773200Y-80721200D01*
X132080000Y-79248000D02*
X130606800Y-80721200D01*
X130810000Y-72390000D02*
X132080000Y-73660000D01*
X132080000Y-73660000D02*
X132080000Y-79248000D01*
X130302000Y-72390000D02*
X130810000Y-72390000D01*
%TO.N,Net-(SW1-C)*%
X63500000Y-123338000D02*
X63500000Y-130302000D01*
X65798700Y-121039300D02*
X63500000Y-123338000D01*
%TO.N,Net-(SW2-C)*%
X67818000Y-80513600D02*
X67051600Y-80513600D01*
X65532000Y-78994000D02*
X65532000Y-76200000D01*
X67051600Y-80513600D02*
X65532000Y-78994000D01*
%TO.N,Net-(SW3-C)*%
X120904000Y-121412000D02*
X118872000Y-123444000D01*
X118872000Y-123444000D02*
X118872000Y-130048000D01*
%TO.N,Net-(SW4-C)*%
X121610800Y-80716800D02*
X124201200Y-80716800D01*
X120396000Y-79502000D02*
X121610800Y-80716800D01*
X120396000Y-76708000D02*
X120396000Y-79502000D01*
D28*
%TO.N,GND1*%
X128460000Y-113540000D02*
X123190000Y-113540000D01*
X136810000Y-113540000D02*
X128460000Y-113540000D01*
D27*
X123177300Y-124955300D02*
X123190000Y-124968000D01*
D28*
X128460000Y-113540000D02*
X122540000Y-113540000D01*
X122540000Y-113540000D02*
X114000000Y-105000000D01*
X146350000Y-104000000D02*
X136810000Y-113540000D01*
X123190000Y-113540000D02*
X123190000Y-122356200D01*
D27*
X123177300Y-123308700D02*
X123177300Y-124955300D01*
%TO.N,/K1*%
X110000000Y-130170000D02*
X103150000Y-123320000D01*
X136968000Y-129032000D02*
X122000000Y-144000000D01*
X110000000Y-140000000D02*
X110000000Y-130170000D01*
X114000000Y-144000000D02*
X110000000Y-140000000D01*
X139146000Y-129032000D02*
X136968000Y-129032000D01*
X122000000Y-144000000D02*
X114000000Y-144000000D01*
D29*
%TO.N,/K2*%
X83774000Y-129032000D02*
X92026000Y-120780000D01*
X92026000Y-120780000D02*
X103150000Y-120780000D01*
D28*
%TO.N,GND2*%
X68084700Y-119484900D02*
X68084700Y-121983500D01*
X68084700Y-119484900D02*
X53650000Y-105050200D01*
X53650000Y-105050200D02*
X53650000Y-104000000D01*
D27*
X68072000Y-122936000D02*
X68072000Y-124714000D01*
D28*
%TO.N,GND3*%
X133525500Y-83175500D02*
X146350000Y-96000000D01*
D27*
X126487200Y-78236800D02*
X126492000Y-78232000D01*
D28*
X126474500Y-82613500D02*
X126474500Y-83175500D01*
D27*
X126487200Y-81661000D02*
X126487200Y-78236800D01*
D28*
X126474500Y-83175500D02*
X133525500Y-83175500D01*
D27*
%TO.N,/K4*%
X88000000Y-77886000D02*
X88000000Y-109000000D01*
X88000000Y-109000000D02*
X94700000Y-115700000D01*
X83774000Y-73660000D02*
X88000000Y-77886000D01*
X94700000Y-115700000D02*
X103150000Y-115700000D01*
%TO.N,GND4*%
X70104000Y-81457800D02*
X70104000Y-77978000D01*
D28*
X72760300Y-82410300D02*
X70091300Y-82410300D01*
X70091300Y-82410300D02*
X67239700Y-82410300D01*
X67239700Y-82410300D02*
X53650000Y-96000000D01*
D27*
%TO.N,Net-(JP1-B)*%
X145000000Y-148000000D02*
X101181500Y-148000000D01*
X147650000Y-96000000D02*
X147650000Y-104000000D01*
X92000000Y-134600000D02*
X99850000Y-126750000D01*
X55000000Y-148000000D02*
X52350000Y-145350000D01*
X52350000Y-145350000D02*
X52350000Y-96000000D01*
X101181500Y-148000000D02*
X55000000Y-148000000D01*
X101181500Y-148000000D02*
X92000000Y-148000000D01*
D28*
X99484000Y-110634000D02*
X99850000Y-111000000D01*
D27*
X147650000Y-145350000D02*
X145000000Y-148000000D01*
X147650000Y-104000000D02*
X147650000Y-145350000D01*
X92000000Y-148000000D02*
X92000000Y-134600000D01*
%TD*%
M02*
