%TF.GenerationSoftware,KiCad,Pcbnew,9.0.1-9.0.1-0~ubuntu24.04.1*%
%TF.CreationDate,2025-06-12T19:46:07-04:00*%
%TF.ProjectId,DarkQuest_SiPM_Motherboard,4461726b-5175-4657-9374-5f5369504d5f,11*%
%TF.SameCoordinates,Original*%
%TF.FileFunction,Copper,L1,Top*%
%TF.FilePolarity,Positive*%
%FSLAX46Y46*%
G04 Gerber Fmt 4.6, Leading zero omitted, Abs format (unit mm)*
G04 Created by KiCad (PCBNEW 9.0.1-9.0.1-0~ubuntu24.04.1) date 2025-06-12 19:46:07*
%MOMM*%
%LPD*%
G01*
G04 APERTURE LIST*
%TA.AperFunction,ComponentPad*%
%ADD10C,16.800000*%
%TD*%
%TA.AperFunction,ComponentPad*%
%ADD11C,12.000000*%
%TD*%
%TA.AperFunction,ComponentPad*%
%ADD12R,1.700000X1.700000*%
%TD*%
%TA.AperFunction,ComponentPad*%
%ADD13O,1.700000X1.700000*%
%TD*%
%TA.AperFunction,WasherPad*%
%ADD14C,3.650000*%
%TD*%
%TA.AperFunction,ComponentPad*%
%ADD15C,1.500000*%
%TD*%
%TA.AperFunction,ComponentPad*%
%ADD16C,2.500000*%
%TD*%
%TA.AperFunction,Conductor*%
%ADD17C,0.635000*%
%TD*%
G04 APERTURE END LIST*
D10*
%TO.P,H2,1*%
%TO.N,N/C*%
X100000000Y-100000000D03*
%TD*%
D11*
%TO.P,H3,1*%
%TO.N,N/C*%
X100000000Y-137000000D03*
%TD*%
%TO.P,H4,1*%
%TO.N,N/C*%
X137000000Y-100000000D03*
%TD*%
%TO.P,H5,1*%
%TO.N,N/C*%
X63000000Y-100000000D03*
%TD*%
%TO.P,H1,1*%
%TO.N,N/C*%
X100000000Y-63000000D03*
%TD*%
D12*
%TO.P,J3,*%
%TO.N,*%
X83774000Y-139192000D03*
D13*
X83774000Y-136652000D03*
X83774000Y-134112000D03*
X83774000Y-131572000D03*
X83774000Y-126492000D03*
X83774000Y-123952000D03*
X83774000Y-121412000D03*
X83774000Y-118872000D03*
X83774000Y-116332000D03*
D12*
X60914000Y-139192000D03*
D13*
X60914000Y-136652000D03*
X60914000Y-134112000D03*
X60914000Y-131572000D03*
X60914000Y-126492000D03*
X60914000Y-121412000D03*
X60914000Y-118872000D03*
X60914000Y-116332000D03*
%TO.P,J3,1,Anode*%
%TO.N,/A1*%
X60914000Y-129032000D03*
%TO.P,J3,2,GND*%
%TO.N,GND*%
X60914000Y-123952000D03*
%TO.P,J3,3,Cathode*%
%TO.N,/K1*%
X83774000Y-129032000D03*
%TD*%
D12*
%TO.P,J2,*%
%TO.N,*%
X139146000Y-139192000D03*
D13*
X139146000Y-136652000D03*
X139146000Y-134112000D03*
X139146000Y-131572000D03*
X139146000Y-126492000D03*
X139146000Y-123952000D03*
X139146000Y-121412000D03*
X139146000Y-118872000D03*
X139146000Y-116332000D03*
D12*
X116286000Y-139192000D03*
D13*
X116286000Y-136652000D03*
X116286000Y-134112000D03*
X116286000Y-131572000D03*
X116286000Y-126492000D03*
X116286000Y-121412000D03*
X116286000Y-118872000D03*
X116286000Y-116332000D03*
%TO.P,J2,1,Anode*%
%TO.N,/A0*%
X116286000Y-129032000D03*
%TO.P,J2,2,GND*%
%TO.N,GND*%
X116286000Y-123952000D03*
%TO.P,J2,3,Cathode*%
%TO.N,/K0*%
X139146000Y-129032000D03*
%TD*%
D12*
%TO.P,J4,*%
%TO.N,*%
X139146000Y-83820000D03*
D13*
X139146000Y-81280000D03*
X139146000Y-78740000D03*
X139146000Y-76200000D03*
X139146000Y-71120000D03*
X139146000Y-68580000D03*
X139146000Y-66040000D03*
X139146000Y-63500000D03*
X139146000Y-60960000D03*
D12*
X116286000Y-83820000D03*
D13*
X116286000Y-81280000D03*
X116286000Y-78740000D03*
X116286000Y-76200000D03*
X116286000Y-71120000D03*
X116286000Y-66040000D03*
X116286000Y-63500000D03*
X116286000Y-60960000D03*
%TO.P,J4,1,Anode*%
%TO.N,/A2*%
X116286000Y-73660000D03*
%TO.P,J4,2,GND*%
%TO.N,GND*%
X116286000Y-68580000D03*
%TO.P,J4,3,Cathode*%
%TO.N,/K2*%
X139146000Y-73660000D03*
%TD*%
D12*
%TO.P,J5,*%
%TO.N,*%
X83774000Y-83820000D03*
D13*
X83774000Y-81280000D03*
X83774000Y-78740000D03*
X83774000Y-76200000D03*
X83774000Y-71120000D03*
X83774000Y-68580000D03*
X83774000Y-66040000D03*
X83774000Y-63500000D03*
X83774000Y-60960000D03*
D12*
X60914000Y-83820000D03*
D13*
X60914000Y-81280000D03*
X60914000Y-78740000D03*
X60914000Y-76200000D03*
X60914000Y-71120000D03*
X60914000Y-66040000D03*
X60914000Y-63500000D03*
X60914000Y-60960000D03*
%TO.P,J5,1,Anode*%
%TO.N,/A3*%
X60914000Y-73660000D03*
%TO.P,J5,2,GND*%
%TO.N,GND*%
X60914000Y-68580000D03*
%TO.P,J5,3,Cathode*%
%TO.N,/K3*%
X83774000Y-73660000D03*
%TD*%
D14*
%TO.P,J1,*%
%TO.N,*%
X96800000Y-124590000D03*
X96800000Y-113160000D03*
D15*
%TO.P,J1,1*%
%TO.N,/K0*%
X103150000Y-123320000D03*
%TO.P,J1,2*%
%TO.N,/A0*%
X105690000Y-122050000D03*
%TO.P,J1,3*%
%TO.N,/K1*%
X103150000Y-120780000D03*
%TO.P,J1,4*%
%TO.N,/A2*%
X105690000Y-119510000D03*
%TO.P,J1,5*%
%TO.N,/K2*%
X103150000Y-118240000D03*
%TO.P,J1,6*%
%TO.N,/A1*%
X105690000Y-116970000D03*
%TO.P,J1,7*%
%TO.N,/K3*%
X103150000Y-115700000D03*
%TO.P,J1,8*%
%TO.N,/A3*%
X105690000Y-114430000D03*
D16*
%TO.P,J1,SH*%
%TO.N,GND*%
X99850000Y-126750000D03*
X99850000Y-111000000D03*
%TD*%
D17*
%TO.N,/A3*%
X104950400Y-113690400D02*
X105690000Y-114430000D01*
X64389000Y-76885800D02*
X64389000Y-85953600D01*
X101473000Y-113690400D02*
X104950400Y-113690400D01*
X61163200Y-73660000D02*
X64389000Y-76885800D01*
X94259400Y-115824000D02*
X99339400Y-115824000D01*
X99339400Y-115824000D02*
X101473000Y-113690400D01*
X64389000Y-85953600D02*
X94259400Y-115824000D01*
X60914000Y-73660000D02*
X61163200Y-73660000D01*
%TO.N,/A1*%
X108991400Y-118999000D02*
X106962400Y-116970000D01*
X108991400Y-139369800D02*
X108991400Y-118999000D01*
X106962400Y-116970000D02*
X105690000Y-116970000D01*
X102946200Y-145415000D02*
X108991400Y-139369800D01*
X60914000Y-129032000D02*
X77297000Y-145415000D01*
X77297000Y-145415000D02*
X102946200Y-145415000D01*
%TD*%
M02*
