%TF.GenerationSoftware,KiCad,Pcbnew,9.0.1-9.0.1-0~ubuntu24.04.1*%
%TF.CreationDate,2025-06-12T19:46:07-04:00*%
%TF.ProjectId,DarkQuest_SiPM_Motherboard,4461726b-5175-4657-9374-5f5369504d5f,11*%
%TF.SameCoordinates,Original*%
%TF.FileFunction,Legend,Top*%
%TF.FilePolarity,Positive*%
%FSLAX46Y46*%
G04 Gerber Fmt 4.6, Leading zero omitted, Abs format (unit mm)*
G04 Created by KiCad (PCBNEW 9.0.1-9.0.1-0~ubuntu24.04.1) date 2025-06-12 19:46:07*
%MOMM*%
%LPD*%
G01*
G04 APERTURE LIST*
%ADD10C,0.120000*%
%ADD11C,0.150000*%
G04 APERTURE END LIST*
D10*
X51000000Y-100000000D02*
X149000000Y-100000000D01*
X100000000Y-51000000D02*
X100000000Y-149000000D01*
D11*
X99238095Y-91054819D02*
X99238095Y-90054819D01*
X99238095Y-90531009D02*
X99809523Y-90531009D01*
X99809523Y-91054819D02*
X99809523Y-90054819D01*
X100238095Y-90150057D02*
X100285714Y-90102438D01*
X100285714Y-90102438D02*
X100380952Y-90054819D01*
X100380952Y-90054819D02*
X100619047Y-90054819D01*
X100619047Y-90054819D02*
X100714285Y-90102438D01*
X100714285Y-90102438D02*
X100761904Y-90150057D01*
X100761904Y-90150057D02*
X100809523Y-90245295D01*
X100809523Y-90245295D02*
X100809523Y-90340533D01*
X100809523Y-90340533D02*
X100761904Y-90483390D01*
X100761904Y-90483390D02*
X100190476Y-91054819D01*
X100190476Y-91054819D02*
X100809523Y-91054819D01*
X104238095Y-129454819D02*
X104238095Y-128454819D01*
X104238095Y-128931009D02*
X104809523Y-128931009D01*
X104809523Y-129454819D02*
X104809523Y-128454819D01*
X105190476Y-128454819D02*
X105809523Y-128454819D01*
X105809523Y-128454819D02*
X105476190Y-128835771D01*
X105476190Y-128835771D02*
X105619047Y-128835771D01*
X105619047Y-128835771D02*
X105714285Y-128883390D01*
X105714285Y-128883390D02*
X105761904Y-128931009D01*
X105761904Y-128931009D02*
X105809523Y-129026247D01*
X105809523Y-129026247D02*
X105809523Y-129264342D01*
X105809523Y-129264342D02*
X105761904Y-129359580D01*
X105761904Y-129359580D02*
X105714285Y-129407200D01*
X105714285Y-129407200D02*
X105619047Y-129454819D01*
X105619047Y-129454819D02*
X105333333Y-129454819D01*
X105333333Y-129454819D02*
X105238095Y-129407200D01*
X105238095Y-129407200D02*
X105190476Y-129359580D01*
X136238095Y-91054819D02*
X136238095Y-90054819D01*
X136238095Y-90531009D02*
X136809523Y-90531009D01*
X136809523Y-91054819D02*
X136809523Y-90054819D01*
X137714285Y-90388152D02*
X137714285Y-91054819D01*
X137476190Y-90007200D02*
X137238095Y-90721485D01*
X137238095Y-90721485D02*
X137857142Y-90721485D01*
X62238095Y-91054819D02*
X62238095Y-90054819D01*
X62238095Y-90531009D02*
X62809523Y-90531009D01*
X62809523Y-91054819D02*
X62809523Y-90054819D01*
X63761904Y-90054819D02*
X63285714Y-90054819D01*
X63285714Y-90054819D02*
X63238095Y-90531009D01*
X63238095Y-90531009D02*
X63285714Y-90483390D01*
X63285714Y-90483390D02*
X63380952Y-90435771D01*
X63380952Y-90435771D02*
X63619047Y-90435771D01*
X63619047Y-90435771D02*
X63714285Y-90483390D01*
X63714285Y-90483390D02*
X63761904Y-90531009D01*
X63761904Y-90531009D02*
X63809523Y-90626247D01*
X63809523Y-90626247D02*
X63809523Y-90864342D01*
X63809523Y-90864342D02*
X63761904Y-90959580D01*
X63761904Y-90959580D02*
X63714285Y-91007200D01*
X63714285Y-91007200D02*
X63619047Y-91054819D01*
X63619047Y-91054819D02*
X63380952Y-91054819D01*
X63380952Y-91054819D02*
X63285714Y-91007200D01*
X63285714Y-91007200D02*
X63238095Y-90959580D01*
X99238095Y-54054819D02*
X99238095Y-53054819D01*
X99238095Y-53531009D02*
X99809523Y-53531009D01*
X99809523Y-54054819D02*
X99809523Y-53054819D01*
X100809523Y-54054819D02*
X100238095Y-54054819D01*
X100523809Y-54054819D02*
X100523809Y-53054819D01*
X100523809Y-53054819D02*
X100428571Y-53197676D01*
X100428571Y-53197676D02*
X100333333Y-53292914D01*
X100333333Y-53292914D02*
X100238095Y-53340533D01*
D10*
%TO.C,J3*%
X59584000Y-137922000D02*
X59584000Y-115002000D01*
X62091600Y-139293600D02*
X62091600Y-140623600D01*
X62091600Y-140623600D02*
X60761600Y-140623600D01*
X62244000Y-115002000D02*
X59584000Y-115002000D01*
X62244000Y-137922000D02*
X59584000Y-137922000D01*
X62244000Y-137922000D02*
X62244000Y-115002000D01*
X82444000Y-137922000D02*
X82444000Y-115002000D01*
X85104000Y-115002000D02*
X82444000Y-115002000D01*
X85104000Y-137922000D02*
X82444000Y-137922000D01*
X85104000Y-137922000D02*
X85104000Y-115002000D01*
X85104000Y-139192000D02*
X85104000Y-140522000D01*
X85104000Y-140522000D02*
X83774000Y-140522000D01*
%TO.C,J2*%
X114956000Y-137922000D02*
X114956000Y-115002000D01*
X117463600Y-139293600D02*
X117463600Y-140623600D01*
X117463600Y-140623600D02*
X116133600Y-140623600D01*
X117616000Y-115002000D02*
X114956000Y-115002000D01*
X117616000Y-137922000D02*
X114956000Y-137922000D01*
X117616000Y-137922000D02*
X117616000Y-115002000D01*
X137816000Y-137922000D02*
X137816000Y-115002000D01*
X140476000Y-115002000D02*
X137816000Y-115002000D01*
X140476000Y-137922000D02*
X137816000Y-137922000D01*
X140476000Y-137922000D02*
X140476000Y-115002000D01*
X140476000Y-139192000D02*
X140476000Y-140522000D01*
X140476000Y-140522000D02*
X139146000Y-140522000D01*
%TO.C,J4*%
X114956000Y-82550000D02*
X114956000Y-59630000D01*
X117463600Y-83921600D02*
X117463600Y-85251600D01*
X117463600Y-85251600D02*
X116133600Y-85251600D01*
X117616000Y-59630000D02*
X114956000Y-59630000D01*
X117616000Y-82550000D02*
X114956000Y-82550000D01*
X117616000Y-82550000D02*
X117616000Y-59630000D01*
X137816000Y-82550000D02*
X137816000Y-59630000D01*
X140476000Y-59630000D02*
X137816000Y-59630000D01*
X140476000Y-82550000D02*
X137816000Y-82550000D01*
X140476000Y-82550000D02*
X140476000Y-59630000D01*
X140476000Y-83820000D02*
X140476000Y-85150000D01*
X140476000Y-85150000D02*
X139146000Y-85150000D01*
%TO.C,J5*%
X59584000Y-82550000D02*
X59584000Y-59630000D01*
X62091600Y-83921600D02*
X62091600Y-85251600D01*
X62091600Y-85251600D02*
X60761600Y-85251600D01*
X62244000Y-59630000D02*
X59584000Y-59630000D01*
X62244000Y-82550000D02*
X59584000Y-82550000D01*
X62244000Y-82550000D02*
X62244000Y-59630000D01*
X82444000Y-82550000D02*
X82444000Y-59630000D01*
X85104000Y-59630000D02*
X82444000Y-59630000D01*
X85104000Y-82550000D02*
X82444000Y-82550000D01*
X85104000Y-82550000D02*
X85104000Y-59630000D01*
X85104000Y-83820000D02*
X85104000Y-85150000D01*
X85104000Y-85150000D02*
X83774000Y-85150000D01*
%TD*%
M02*
