M48
; DRILL file {KiCad 9.0.2} date 2025-05-19T01:06:38-0400
; FORMAT={-:-/ absolute / metric / decimal}
; #@! TF.CreationDate,2025-05-19T01:06:38-04:00
; #@! TF.GenerationSoftware,Kicad,Pcbnew,9.0.2
; #@! TF.FileFunction,Plated,1,2,PTH
FMAT,2
METRIC
; #@! TA.AperFunction,Plated,PTH,ViaDrill
T1C0.300
; #@! TA.AperFunction,Plated,PTH,ViaDrill
T2C0.400
; #@! TA.AperFunction,Plated,PTH,ComponentDrill
T3C0.900
; #@! TA.AperFunction,Plated,PTH,ComponentDrill
T4C1.000
; #@! TA.AperFunction,Plated,PTH,ComponentDrill
T5C1.700
; #@! TA.AperFunction,Plated,PTH,ComponentDrill
T6C6.400
; #@! TA.AperFunction,Plated,PTH,ComponentDrill
T7C12.000
%
G90
G05
T1
X114.0Y-105.0
T2
X63.5Y-130.302
X65.532Y-76.2
X68.072Y-124.714
X70.104Y-77.978
X72.644Y-125.984
X73.505Y-72.39
X118.872Y-130.048
X120.396Y-76.708
X123.19Y-124.968
X126.492Y-78.232
X127.0Y-126.238
X130.302Y-72.39
T3
X103.15Y-115.7
X103.15Y-118.24
X103.15Y-120.78
X103.15Y-123.32
X105.69Y-114.43
X105.69Y-116.97
X105.69Y-119.51
X105.69Y-122.05
T4
X60.914Y-60.96
X60.914Y-63.5
X60.914Y-66.04
X60.914Y-68.58
X60.914Y-71.12
X60.914Y-73.66
X60.914Y-76.2
X60.914Y-78.74
X60.914Y-81.28
X60.914Y-83.82
X60.914Y-116.332
X60.914Y-118.872
X60.914Y-121.412
X60.914Y-123.952
X60.914Y-126.492
X60.914Y-129.032
X60.914Y-131.572
X60.914Y-134.112
X60.914Y-136.652
X60.914Y-139.192
X68.975Y-144.88
X69.5Y-56.0
X71.515Y-144.88
X72.04Y-56.0
X74.055Y-144.88
X74.58Y-56.0
X83.774Y-60.96
X83.774Y-63.5
X83.774Y-66.04
X83.774Y-68.58
X83.774Y-71.12
X83.774Y-73.66
X83.774Y-76.2
X83.774Y-78.74
X83.774Y-81.28
X83.774Y-83.82
X83.774Y-116.332
X83.774Y-118.872
X83.774Y-121.412
X83.774Y-123.952
X83.774Y-126.492
X83.774Y-129.032
X83.774Y-131.572
X83.774Y-134.112
X83.774Y-136.652
X83.774Y-139.192
X116.286Y-60.96
X116.286Y-63.5
X116.286Y-66.04
X116.286Y-68.58
X116.286Y-71.12
X116.286Y-73.66
X116.286Y-76.2
X116.286Y-78.74
X116.286Y-81.28
X116.286Y-83.82
X116.286Y-116.332
X116.286Y-118.872
X116.286Y-121.412
X116.286Y-123.952
X116.286Y-126.492
X116.286Y-129.032
X116.286Y-131.572
X116.286Y-134.112
X116.286Y-136.652
X116.286Y-139.192
X125.0Y-144.67
X125.5Y-56.12
X127.54Y-144.67
X128.04Y-56.12
X130.08Y-144.67
X130.58Y-56.12
X139.146Y-60.96
X139.146Y-63.5
X139.146Y-66.04
X139.146Y-68.58
X139.146Y-71.12
X139.146Y-73.66
X139.146Y-76.2
X139.146Y-78.74
X139.146Y-81.28
X139.146Y-83.82
X139.146Y-116.332
X139.146Y-118.872
X139.146Y-121.412
X139.146Y-123.952
X139.146Y-126.492
X139.146Y-129.032
X139.146Y-131.572
X139.146Y-134.112
X139.146Y-136.652
X139.146Y-139.192
T5
X99.85Y-111.0
X99.85Y-126.75
T6
X63.0Y-100.0
X100.0Y-63.0
X100.0Y-137.0
X137.0Y-100.0
T7
X100.0Y-100.0
M30
