<?xml version="1.0" standalone="no"?>
 <!DOCTYPE svg PUBLIC "-//W3C//DTD SVG 1.1//EN" 
 "http://www.w3.org/Graphics/SVG/1.1/DTD/svg11.dtd"> 
<svg
  xmlns:svg="http://www.w3.org/2000/svg"
  xmlns="http://www.w3.org/2000/svg"
  xmlns:xlink="http://www.w3.org/1999/xlink"
  version="1.1"
  width="297.002200mm" height="210.007200mm" viewBox="0.000000 0.000000 297.002200 210.007200">
<title>SVG Image created as DarkQuest_SiPM_Motherboard-F_Silkscreen.svg date 2025/06/11 08:09:42 </title>
  <desc>Image generated by PCBNEW </desc>
<g style="fill:#000000; fill-opacity:1.000000;stroke:#000000; stroke-opacity:1.000000;
stroke-linecap:round; stroke-linejoin:round;"
 transform="translate(0 0) scale(1 1)">
</g>
<g style="fill:none; 
stroke:#000000; stroke-width:0.120000; stroke-opacity:1; 
stroke-linecap:round; stroke-linejoin:round;">
<path d="M51.000000 100.000000
L149.000000 100.000000
" />
<path d="M100.000000 51.000000
L100.000000 149.000000
" />
</g>
<g style="fill:none; 
stroke:#000000; stroke-width:0.150000; stroke-opacity:1; 
stroke-linecap:round; stroke-linejoin:round;">
<text x="100.000000" y="91.100000"
textLength="2.250000" font-size="1.333333" lengthAdjust="spacingAndGlyphs"
text-anchor="middle" opacity="0" stroke-opacity="0">H2</text>
<g class="stroked-text"><desc>H2</desc>
<path d="M99.238095 91.054819
L99.238095 90.054819
" />
<path d="M99.238095 90.531009
L99.809523 90.531009
" />
<path d="M99.809523 91.054819
L99.809523 90.054819
" />
<path d="M100.238095 90.150057
L100.285714 90.102438
" />
<path d="M100.285714 90.102438
L100.380952 90.054819
" />
<path d="M100.380952 90.054819
L100.619047 90.054819
" />
<path d="M100.619047 90.054819
L100.714285 90.102438
" />
<path d="M100.714285 90.102438
L100.761904 90.150057
" />
<path d="M100.761904 90.150057
L100.809523 90.245295
" />
<path d="M100.809523 90.245295
L100.809523 90.340533
" />
<path d="M100.809523 90.340533
L100.761904 90.483390
" />
<path d="M100.761904 90.483390
L100.190476 91.054819
" />
<path d="M100.190476 91.054819
L100.809523 91.054819
" />
</g><text x="105.000000" y="129.500000"
textLength="2.250000" font-size="1.333333" lengthAdjust="spacingAndGlyphs"
text-anchor="middle" opacity="0" stroke-opacity="0">H3</text>
<g class="stroked-text"><desc>H3</desc>
<path d="M104.238095 129.454819
L104.238095 128.454819
" />
<path d="M104.238095 128.931009
L104.809523 128.931009
" />
<path d="M104.809523 129.454819
L104.809523 128.454819
" />
<path d="M105.190476 128.454819
L105.809523 128.454819
" />
<path d="M105.809523 128.454819
L105.476190 128.835771
" />
<path d="M105.476190 128.835771
L105.619047 128.835771
" />
<path d="M105.619047 128.835771
L105.714285 128.883390
" />
<path d="M105.714285 128.883390
L105.761904 128.931009
" />
<path d="M105.761904 128.931009
L105.809523 129.026247
" />
<path d="M105.809523 129.026247
L105.809523 129.264342
" />
<path d="M105.809523 129.264342
L105.761904 129.359580
" />
<path d="M105.761904 129.359580
L105.714285 129.407200
" />
<path d="M105.714285 129.407200
L105.619047 129.454819
" />
<path d="M105.619047 129.454819
L105.333333 129.454819
" />
<path d="M105.333333 129.454819
L105.238095 129.407200
" />
<path d="M105.238095 129.407200
L105.190476 129.359580
" />
</g><text x="137.000000" y="91.100000"
textLength="2.250000" font-size="1.333333" lengthAdjust="spacingAndGlyphs"
text-anchor="middle" opacity="0" stroke-opacity="0">H4</text>
<g class="stroked-text"><desc>H4</desc>
<path d="M136.238095 91.054819
L136.238095 90.054819
" />
<path d="M136.238095 90.531009
L136.809523 90.531009
" />
<path d="M136.809523 91.054819
L136.809523 90.054819
" />
<path d="M137.714285 90.388152
L137.714285 91.054819
" />
<path d="M137.476190 90.007200
L137.238095 90.721485
" />
<path d="M137.238095 90.721485
L137.857142 90.721485
" />
</g><text x="63.000000" y="91.100000"
textLength="2.250000" font-size="1.333333" lengthAdjust="spacingAndGlyphs"
text-anchor="middle" opacity="0" stroke-opacity="0">H5</text>
<g class="stroked-text"><desc>H5</desc>
<path d="M62.238095 91.054819
L62.238095 90.054819
" />
<path d="M62.238095 90.531009
L62.809523 90.531009
" />
<path d="M62.809523 91.054819
L62.809523 90.054819
" />
<path d="M63.761904 90.054819
L63.285714 90.054819
" />
<path d="M63.285714 90.054819
L63.238095 90.531009
" />
<path d="M63.238095 90.531009
L63.285714 90.483390
" />
<path d="M63.285714 90.483390
L63.380952 90.435771
" />
<path d="M63.380952 90.435771
L63.619047 90.435771
" />
<path d="M63.619047 90.435771
L63.714285 90.483390
" />
<path d="M63.714285 90.483390
L63.761904 90.531009
" />
<path d="M63.761904 90.531009
L63.809523 90.626247
" />
<path d="M63.809523 90.626247
L63.809523 90.864342
" />
<path d="M63.809523 90.864342
L63.761904 90.959580
" />
<path d="M63.761904 90.959580
L63.714285 91.007200
" />
<path d="M63.714285 91.007200
L63.619047 91.054819
" />
<path d="M63.619047 91.054819
L63.380952 91.054819
" />
<path d="M63.380952 91.054819
L63.285714 91.007200
" />
<path d="M63.285714 91.007200
L63.238095 90.959580
" />
</g><text x="100.000000" y="54.100000"
textLength="2.250000" font-size="1.333333" lengthAdjust="spacingAndGlyphs"
text-anchor="middle" opacity="0" stroke-opacity="0">H1</text>
<g class="stroked-text"><desc>H1</desc>
<path d="M99.238095 54.054819
L99.238095 53.054819
" />
<path d="M99.238095 53.531009
L99.809523 53.531009
" />
<path d="M99.809523 54.054819
L99.809523 53.054819
" />
<path d="M100.809523 54.054819
L100.238095 54.054819
" />
<path d="M100.523809 54.054819
L100.523809 53.054819
" />
<path d="M100.523809 53.054819
L100.428571 53.197676
" />
<path d="M100.428571 53.197676
L100.333333 53.292914
" />
<path d="M100.333333 53.292914
L100.238095 53.340533
" />
</g><text x="147.000000" y="94.700000"
textLength="2.964286" font-size="1.333333" lengthAdjust="spacingAndGlyphs"
text-anchor="middle" opacity="0" stroke-opacity="0">JP3</text>
<g class="stroked-text"><desc>JP3</desc>
<path d="M146.166666 93.654819
L146.166666 94.369104
" />
<path d="M146.166666 94.369104
L146.119047 94.511961
" />
<path d="M146.119047 94.511961
L146.023809 94.607200
" />
<path d="M146.023809 94.607200
L145.880952 94.654819
" />
<path d="M145.880952 94.654819
L145.785714 94.654819
" />
<path d="M146.642857 94.654819
L146.642857 93.654819
" />
<path d="M146.642857 93.654819
L147.023809 93.654819
" />
<path d="M147.023809 93.654819
L147.119047 93.702438
" />
<path d="M147.119047 93.702438
L147.166666 93.750057
" />
<path d="M147.166666 93.750057
L147.214285 93.845295
" />
<path d="M147.214285 93.845295
L147.214285 93.988152
" />
<path d="M147.214285 93.988152
L147.166666 94.083390
" />
<path d="M147.166666 94.083390
L147.119047 94.131009
" />
<path d="M147.119047 94.131009
L147.023809 94.178628
" />
<path d="M147.023809 94.178628
L146.642857 94.178628
" />
<path d="M147.547619 93.654819
L148.166666 93.654819
" />
<path d="M148.166666 93.654819
L147.833333 94.035771
" />
<path d="M147.833333 94.035771
L147.976190 94.035771
" />
<path d="M147.976190 94.035771
L148.071428 94.083390
" />
<path d="M148.071428 94.083390
L148.119047 94.131009
" />
<path d="M148.119047 94.131009
L148.166666 94.226247
" />
<path d="M148.166666 94.226247
L148.166666 94.464342
" />
<path d="M148.166666 94.464342
L148.119047 94.559580
" />
<path d="M148.119047 94.559580
L148.071428 94.607200
" />
<path d="M148.071428 94.607200
L147.976190 94.654819
" />
<path d="M147.976190 94.654819
L147.690476 94.654819
" />
<path d="M147.690476 94.654819
L147.595238 94.607200
" />
<path d="M147.595238 94.607200
L147.547619 94.559580
" />
</g><text x="147.000000" y="102.700000"
textLength="2.964286" font-size="1.333333" lengthAdjust="spacingAndGlyphs"
text-anchor="middle" opacity="0" stroke-opacity="0">JP1</text>
<g class="stroked-text"><desc>JP1</desc>
<path d="M146.166666 101.654819
L146.166666 102.369104
" />
<path d="M146.166666 102.369104
L146.119047 102.511961
" />
<path d="M146.119047 102.511961
L146.023809 102.607200
" />
<path d="M146.023809 102.607200
L145.880952 102.654819
" />
<path d="M145.880952 102.654819
L145.785714 102.654819
" />
<path d="M146.642857 102.654819
L146.642857 101.654819
" />
<path d="M146.642857 101.654819
L147.023809 101.654819
" />
<path d="M147.023809 101.654819
L147.119047 101.702438
" />
<path d="M147.119047 101.702438
L147.166666 101.750057
" />
<path d="M147.166666 101.750057
L147.214285 101.845295
" />
<path d="M147.214285 101.845295
L147.214285 101.988152
" />
<path d="M147.214285 101.988152
L147.166666 102.083390
" />
<path d="M147.166666 102.083390
L147.119047 102.131009
" />
<path d="M147.119047 102.131009
L147.023809 102.178628
" />
<path d="M147.023809 102.178628
L146.642857 102.178628
" />
<path d="M148.166666 102.654819
L147.595238 102.654819
" />
<path d="M147.880952 102.654819
L147.880952 101.654819
" />
<path d="M147.880952 101.654819
L147.785714 101.797676
" />
<path d="M147.785714 101.797676
L147.690476 101.892914
" />
<path d="M147.690476 101.892914
L147.595238 101.940533
" />
</g></g>
<g style="fill:none; 
stroke:#000000; stroke-width:0.100000; stroke-opacity:1; 
stroke-linecap:round; stroke-linejoin:round;">
<text x="70.358000" y="85.839600"
textLength="2.100000" font-size="1.333333" lengthAdjust="spacingAndGlyphs"
text-anchor="middle" opacity="0" stroke-opacity="0">U4</text>
<g class="stroked-text"><desc>U4</desc>
<path d="M69.596095 84.797019
L69.596095 85.606542
" />
<path d="M69.596095 85.606542
L69.643714 85.701780
" />
<path d="M69.643714 85.701780
L69.691333 85.749400
" />
<path d="M69.691333 85.749400
L69.786571 85.797019
" />
<path d="M69.786571 85.797019
L69.977047 85.797019
" />
<path d="M69.977047 85.797019
L70.072285 85.749400
" />
<path d="M70.072285 85.749400
L70.119904 85.701780
" />
<path d="M70.119904 85.701780
L70.167523 85.606542
" />
<path d="M70.167523 85.606542
L70.167523 84.797019
" />
<path d="M71.072285 85.130352
L71.072285 85.797019
" />
<path d="M70.834190 84.749400
L70.596095 85.463685
" />
<path d="M70.596095 85.463685
L71.215142 85.463685
" />
</g></g>
<g style="fill:none; 
stroke:#000000; stroke-width:0.150000; stroke-opacity:1; 
stroke-linecap:round; stroke-linejoin:round;">
<text x="124.500000" y="143.170000"
textLength="2.916667" font-size="1.333333" lengthAdjust="spacingAndGlyphs"
text-anchor="middle" opacity="0" stroke-opacity="0">J13</text>
<g class="stroked-text"><desc>J13</desc>
<path d="M123.690476 142.124819
L123.690476 142.839104
" />
<path d="M123.690476 142.839104
L123.642857 142.981961
" />
<path d="M123.642857 142.981961
L123.547619 143.077200
" />
<path d="M123.547619 143.077200
L123.404762 143.124819
" />
<path d="M123.404762 143.124819
L123.309524 143.124819
" />
<path d="M124.690476 143.124819
L124.119048 143.124819
" />
<path d="M124.404762 143.124819
L124.404762 142.124819
" />
<path d="M124.404762 142.124819
L124.309524 142.267676
" />
<path d="M124.309524 142.267676
L124.214286 142.362914
" />
<path d="M124.214286 142.362914
L124.119048 142.410533
" />
<path d="M125.023810 142.124819
L125.642857 142.124819
" />
<path d="M125.642857 142.124819
L125.309524 142.505771
" />
<path d="M125.309524 142.505771
L125.452381 142.505771
" />
<path d="M125.452381 142.505771
L125.547619 142.553390
" />
<path d="M125.547619 142.553390
L125.595238 142.601009
" />
<path d="M125.595238 142.601009
L125.642857 142.696247
" />
<path d="M125.642857 142.696247
L125.642857 142.934342
" />
<path d="M125.642857 142.934342
L125.595238 143.029580
" />
<path d="M125.595238 143.029580
L125.547619 143.077200
" />
<path d="M125.547619 143.077200
L125.452381 143.124819
" />
<path d="M125.452381 143.124819
L125.166667 143.124819
" />
<path d="M125.166667 143.124819
L125.071429 143.077200
" />
<path d="M125.071429 143.077200
L125.023810 143.029580
" />
</g><text x="53.000000" y="106.300000"
textLength="2.964286" font-size="1.333333" lengthAdjust="spacingAndGlyphs"
text-anchor="middle" opacity="0" stroke-opacity="0">JP2</text>
<g class="stroked-text"><desc>JP2</desc>
<path d="M52.166666 105.254819
L52.166666 105.969104
" />
<path d="M52.166666 105.969104
L52.119047 106.111961
" />
<path d="M52.119047 106.111961
L52.023809 106.207200
" />
<path d="M52.023809 106.207200
L51.880952 106.254819
" />
<path d="M51.880952 106.254819
L51.785714 106.254819
" />
<path d="M52.642857 106.254819
L52.642857 105.254819
" />
<path d="M52.642857 105.254819
L53.023809 105.254819
" />
<path d="M53.023809 105.254819
L53.119047 105.302438
" />
<path d="M53.119047 105.302438
L53.166666 105.350057
" />
<path d="M53.166666 105.350057
L53.214285 105.445295
" />
<path d="M53.214285 105.445295
L53.214285 105.588152
" />
<path d="M53.214285 105.588152
L53.166666 105.683390
" />
<path d="M53.166666 105.683390
L53.119047 105.731009
" />
<path d="M53.119047 105.731009
L53.023809 105.778628
" />
<path d="M53.023809 105.778628
L52.642857 105.778628
" />
<path d="M53.595238 105.350057
L53.642857 105.302438
" />
<path d="M53.642857 105.302438
L53.738095 105.254819
" />
<path d="M53.738095 105.254819
L53.976190 105.254819
" />
<path d="M53.976190 105.254819
L54.071428 105.302438
" />
<path d="M54.071428 105.302438
L54.119047 105.350057
" />
<path d="M54.119047 105.350057
L54.166666 105.445295
" />
<path d="M54.166666 105.445295
L54.166666 105.540533
" />
<path d="M54.166666 105.540533
L54.119047 105.683390
" />
<path d="M54.119047 105.683390
L53.547619 106.254819
" />
<path d="M53.547619 106.254819
L54.166666 106.254819
" />
</g></g>
<g style="fill:none; 
stroke:#000000; stroke-width:0.100000; stroke-opacity:1; 
stroke-linecap:round; stroke-linejoin:round;">
<text x="68.186300" y="119.181500"
textLength="2.100000" font-size="1.333333" lengthAdjust="spacingAndGlyphs"
text-anchor="middle" opacity="0" stroke-opacity="0">U1</text>
<g class="stroked-text"><desc>U1</desc>
<path d="M67.424395 118.138919
L67.424395 118.948442
" />
<path d="M67.424395 118.948442
L67.472014 119.043680
" />
<path d="M67.472014 119.043680
L67.519633 119.091300
" />
<path d="M67.519633 119.091300
L67.614871 119.138919
" />
<path d="M67.614871 119.138919
L67.805347 119.138919
" />
<path d="M67.805347 119.138919
L67.900585 119.091300
" />
<path d="M67.900585 119.091300
L67.948204 119.043680
" />
<path d="M67.948204 119.043680
L67.995823 118.948442
" />
<path d="M67.995823 118.948442
L67.995823 118.138919
" />
<path d="M68.995823 119.138919
L68.424395 119.138919
" />
<path d="M68.710109 119.138919
L68.710109 118.138919
" />
<path d="M68.710109 118.138919
L68.614871 118.281776
" />
<path d="M68.614871 118.281776
L68.519633 118.377014
" />
<path d="M68.519633 118.377014
L68.424395 118.424633
" />
</g></g>
<g style="fill:none; 
stroke:#000000; stroke-width:0.150000; stroke-opacity:1; 
stroke-linecap:round; stroke-linejoin:round;">
<text x="123.170000" y="56.620000"
textLength="2.916667" font-size="1.333333" lengthAdjust="spacingAndGlyphs"
text-anchor="middle" opacity="0" stroke-opacity="0">J15</text>
<g class="stroked-text"><desc>J15</desc>
<path d="M122.360476 55.574819
L122.360476 56.289104
" />
<path d="M122.360476 56.289104
L122.312857 56.431961
" />
<path d="M122.312857 56.431961
L122.217619 56.527200
" />
<path d="M122.217619 56.527200
L122.074762 56.574819
" />
<path d="M122.074762 56.574819
L121.979524 56.574819
" />
<path d="M123.360476 56.574819
L122.789048 56.574819
" />
<path d="M123.074762 56.574819
L123.074762 55.574819
" />
<path d="M123.074762 55.574819
L122.979524 55.717676
" />
<path d="M122.979524 55.717676
L122.884286 55.812914
" />
<path d="M122.884286 55.812914
L122.789048 55.860533
" />
<path d="M124.265238 55.574819
L123.789048 55.574819
" />
<path d="M123.789048 55.574819
L123.741429 56.051009
" />
<path d="M123.741429 56.051009
L123.789048 56.003390
" />
<path d="M123.789048 56.003390
L123.884286 55.955771
" />
<path d="M123.884286 55.955771
L124.122381 55.955771
" />
<path d="M124.122381 55.955771
L124.217619 56.003390
" />
<path d="M124.217619 56.003390
L124.265238 56.051009
" />
<path d="M124.265238 56.051009
L124.312857 56.146247
" />
<path d="M124.312857 56.146247
L124.312857 56.384342
" />
<path d="M124.312857 56.384342
L124.265238 56.479580
" />
<path d="M124.265238 56.479580
L124.217619 56.527200
" />
<path d="M124.217619 56.527200
L124.122381 56.574819
" />
<path d="M124.122381 56.574819
L123.884286 56.574819
" />
<path d="M123.884286 56.574819
L123.789048 56.527200
" />
<path d="M123.789048 56.527200
L123.741429 56.479580
" />
</g></g>
<g style="fill:none; 
stroke:#000000; stroke-width:0.100000; stroke-opacity:1; 
stroke-linecap:round; stroke-linejoin:round;">
<text x="123.291600" y="119.300200"
textLength="2.100000" font-size="1.333333" lengthAdjust="spacingAndGlyphs"
text-anchor="middle" opacity="0" stroke-opacity="0">U2</text>
<g class="stroked-text"><desc>U2</desc>
<path d="M122.529695 118.257619
L122.529695 119.067142
" />
<path d="M122.529695 119.067142
L122.577314 119.162380
" />
<path d="M122.577314 119.162380
L122.624933 119.210000
" />
<path d="M122.624933 119.210000
L122.720171 119.257619
" />
<path d="M122.720171 119.257619
L122.910647 119.257619
" />
<path d="M122.910647 119.257619
L123.005885 119.210000
" />
<path d="M123.005885 119.210000
L123.053504 119.162380
" />
<path d="M123.053504 119.162380
L123.101123 119.067142
" />
<path d="M123.101123 119.067142
L123.101123 118.257619
" />
<path d="M123.529695 118.352857
L123.577314 118.305238
" />
<path d="M123.577314 118.305238
L123.672552 118.257619
" />
<path d="M123.672552 118.257619
L123.910647 118.257619
" />
<path d="M123.910647 118.257619
L124.005885 118.305238
" />
<path d="M124.005885 118.305238
L124.053504 118.352857
" />
<path d="M124.053504 118.352857
L124.101123 118.448095
" />
<path d="M124.101123 118.448095
L124.101123 118.543333
" />
<path d="M124.101123 118.543333
L124.053504 118.686190
" />
<path d="M124.053504 118.686190
L123.482076 119.257619
" />
<path d="M123.482076 119.257619
L124.101123 119.257619
" />
</g></g>
<g style="fill:none; 
stroke:#000000; stroke-width:0.150000; stroke-opacity:1; 
stroke-linecap:round; stroke-linejoin:round;">
<text x="66.645000" y="145.380000"
textLength="2.916667" font-size="1.333333" lengthAdjust="spacingAndGlyphs"
text-anchor="middle" opacity="0" stroke-opacity="0">J14</text>
<g class="stroked-text"><desc>J14</desc>
<path d="M65.835476 144.334819
L65.835476 145.049104
" />
<path d="M65.835476 145.049104
L65.787857 145.191961
" />
<path d="M65.787857 145.191961
L65.692619 145.287200
" />
<path d="M65.692619 145.287200
L65.549762 145.334819
" />
<path d="M65.549762 145.334819
L65.454524 145.334819
" />
<path d="M66.835476 145.334819
L66.264048 145.334819
" />
<path d="M66.549762 145.334819
L66.549762 144.334819
" />
<path d="M66.549762 144.334819
L66.454524 144.477676
" />
<path d="M66.454524 144.477676
L66.359286 144.572914
" />
<path d="M66.359286 144.572914
L66.264048 144.620533
" />
<path d="M67.692619 144.668152
L67.692619 145.334819
" />
<path d="M67.454524 144.287200
L67.216429 145.001485
" />
<path d="M67.216429 145.001485
L67.835476 145.001485
" />
</g><text x="70.000000" y="54.000000"
textLength="2.916667" font-size="1.333333" lengthAdjust="spacingAndGlyphs"
text-anchor="middle" opacity="0" stroke-opacity="0">J16</text>
<g class="stroked-text"><desc>J16</desc>
<path d="M69.190476 52.954819
L69.190476 53.669104
" />
<path d="M69.190476 53.669104
L69.142857 53.811961
" />
<path d="M69.142857 53.811961
L69.047619 53.907200
" />
<path d="M69.047619 53.907200
L68.904762 53.954819
" />
<path d="M68.904762 53.954819
L68.809524 53.954819
" />
<path d="M70.190476 53.954819
L69.619048 53.954819
" />
<path d="M69.904762 53.954819
L69.904762 52.954819
" />
<path d="M69.904762 52.954819
L69.809524 53.097676
" />
<path d="M69.809524 53.097676
L69.714286 53.192914
" />
<path d="M69.714286 53.192914
L69.619048 53.240533
" />
<path d="M71.047619 52.954819
L70.857143 52.954819
" />
<path d="M70.857143 52.954819
L70.761905 53.002438
" />
<path d="M70.761905 53.002438
L70.714286 53.050057
" />
<path d="M70.714286 53.050057
L70.619048 53.192914
" />
<path d="M70.619048 53.192914
L70.571429 53.383390
" />
<path d="M70.571429 53.383390
L70.571429 53.764342
" />
<path d="M70.571429 53.764342
L70.619048 53.859580
" />
<path d="M70.619048 53.859580
L70.666667 53.907200
" />
<path d="M70.666667 53.907200
L70.761905 53.954819
" />
<path d="M70.761905 53.954819
L70.952381 53.954819
" />
<path d="M70.952381 53.954819
L71.047619 53.907200
" />
<path d="M71.047619 53.907200
L71.095238 53.859580
" />
<path d="M71.095238 53.859580
L71.142857 53.764342
" />
<path d="M71.142857 53.764342
L71.142857 53.526247
" />
<path d="M71.142857 53.526247
L71.095238 53.431009
" />
<path d="M71.095238 53.431009
L71.047619 53.383390
" />
<path d="M71.047619 53.383390
L70.952381 53.335771
" />
<path d="M70.952381 53.335771
L70.761905 53.335771
" />
<path d="M70.761905 53.335771
L70.666667 53.383390
" />
<path d="M70.666667 53.383390
L70.619048 53.431009
" />
<path d="M70.619048 53.431009
L70.571429 53.526247
" />
</g><text x="53.000000" y="98.300000"
textLength="2.964286" font-size="1.333333" lengthAdjust="spacingAndGlyphs"
text-anchor="middle" opacity="0" stroke-opacity="0">JP4</text>
<g class="stroked-text"><desc>JP4</desc>
<path d="M52.166666 97.254819
L52.166666 97.969104
" />
<path d="M52.166666 97.969104
L52.119047 98.111961
" />
<path d="M52.119047 98.111961
L52.023809 98.207200
" />
<path d="M52.023809 98.207200
L51.880952 98.254819
" />
<path d="M51.880952 98.254819
L51.785714 98.254819
" />
<path d="M52.642857 98.254819
L52.642857 97.254819
" />
<path d="M52.642857 97.254819
L53.023809 97.254819
" />
<path d="M53.023809 97.254819
L53.119047 97.302438
" />
<path d="M53.119047 97.302438
L53.166666 97.350057
" />
<path d="M53.166666 97.350057
L53.214285 97.445295
" />
<path d="M53.214285 97.445295
L53.214285 97.588152
" />
<path d="M53.214285 97.588152
L53.166666 97.683390
" />
<path d="M53.166666 97.683390
L53.119047 97.731009
" />
<path d="M53.119047 97.731009
L53.023809 97.778628
" />
<path d="M53.023809 97.778628
L52.642857 97.778628
" />
<path d="M54.071428 97.588152
L54.071428 98.254819
" />
<path d="M53.833333 97.207200
L53.595238 97.921485
" />
<path d="M53.595238 97.921485
L54.214285 97.921485
" />
</g></g>
<g style="fill:none; 
stroke:#000000; stroke-width:0.100000; stroke-opacity:1; 
stroke-linecap:round; stroke-linejoin:round;">
<text x="126.741200" y="85.209000"
textLength="2.100000" font-size="1.333333" lengthAdjust="spacingAndGlyphs"
text-anchor="middle" opacity="0" stroke-opacity="0">U3</text>
<g class="stroked-text"><desc>U3</desc>
<path d="M125.979295 84.166419
L125.979295 84.975942
" />
<path d="M125.979295 84.975942
L126.026914 85.071180
" />
<path d="M126.026914 85.071180
L126.074533 85.118800
" />
<path d="M126.074533 85.118800
L126.169771 85.166419
" />
<path d="M126.169771 85.166419
L126.360247 85.166419
" />
<path d="M126.360247 85.166419
L126.455485 85.118800
" />
<path d="M126.455485 85.118800
L126.503104 85.071180
" />
<path d="M126.503104 85.071180
L126.550723 84.975942
" />
<path d="M126.550723 84.975942
L126.550723 84.166419
" />
<path d="M126.931676 84.166419
L127.550723 84.166419
" />
<path d="M127.550723 84.166419
L127.217390 84.547371
" />
<path d="M127.217390 84.547371
L127.360247 84.547371
" />
<path d="M127.360247 84.547371
L127.455485 84.594990
" />
<path d="M127.455485 84.594990
L127.503104 84.642609
" />
<path d="M127.503104 84.642609
L127.550723 84.737847
" />
<path d="M127.550723 84.737847
L127.550723 84.975942
" />
<path d="M127.550723 84.975942
L127.503104 85.071180
" />
<path d="M127.503104 85.071180
L127.455485 85.118800
" />
<path d="M127.455485 85.118800
L127.360247 85.166419
" />
<path d="M127.360247 85.166419
L127.074533 85.166419
" />
<path d="M127.074533 85.166419
L126.979295 85.118800
" />
<path d="M126.979295 85.118800
L126.931676 85.071180
" />
</g></g>
<g style="fill:none; 
stroke:#000000; stroke-width:0.150000; stroke-opacity:1; 
stroke-linecap:round; stroke-linejoin:round;">
<text x="142.000000" y="144.670000"
textLength="1.964286" font-size="1.333333" lengthAdjust="spacingAndGlyphs"
text-anchor="middle" opacity="0" stroke-opacity="0">J1</text>
<g class="stroked-text"><desc>J1</desc>
<path d="M141.666666 143.624819
L141.666666 144.339104
" />
<path d="M141.666666 144.339104
L141.619047 144.481961
" />
<path d="M141.619047 144.481961
L141.523809 144.577200
" />
<path d="M141.523809 144.577200
L141.380952 144.624819
" />
<path d="M141.380952 144.624819
L141.285714 144.624819
" />
<path d="M142.666666 144.624819
L142.095238 144.624819
" />
<path d="M142.380952 144.624819
L142.380952 143.624819
" />
<path d="M142.380952 143.624819
L142.285714 143.767676
" />
<path d="M142.285714 143.767676
L142.190476 143.862914
" />
<path d="M142.190476 143.862914
L142.095238 143.910533
" />
</g><text x="58.000000" y="145.210000"
textLength="2.916667" font-size="1.333333" lengthAdjust="spacingAndGlyphs"
text-anchor="middle" opacity="0" stroke-opacity="0">J11</text>
<g class="stroked-text"><desc>J11</desc>
<path d="M57.190476 144.164819
L57.190476 144.879104
" />
<path d="M57.190476 144.879104
L57.142857 145.021961
" />
<path d="M57.142857 145.021961
L57.047619 145.117200
" />
<path d="M57.047619 145.117200
L56.904762 145.164819
" />
<path d="M56.904762 145.164819
L56.809524 145.164819
" />
<path d="M58.190476 145.164819
L57.619048 145.164819
" />
<path d="M57.904762 145.164819
L57.904762 144.164819
" />
<path d="M57.904762 144.164819
L57.809524 144.307676
" />
<path d="M57.809524 144.307676
L57.714286 144.402914
" />
<path d="M57.714286 144.402914
L57.619048 144.450533
" />
<path d="M59.142857 145.164819
L58.571429 145.164819
" />
<path d="M58.857143 145.164819
L58.857143 144.164819
" />
<path d="M58.857143 144.164819
L58.761905 144.307676
" />
<path d="M58.761905 144.307676
L58.666667 144.402914
" />
<path d="M58.666667 144.402914
L58.571429 144.450533
" />
</g><text x="143.000000" y="56.290000"
textLength="1.964286" font-size="1.333333" lengthAdjust="spacingAndGlyphs"
text-anchor="middle" opacity="0" stroke-opacity="0">J3</text>
<g class="stroked-text"><desc>J3</desc>
<path d="M142.666666 55.244819
L142.666666 55.959104
" />
<path d="M142.666666 55.959104
L142.619047 56.101961
" />
<path d="M142.619047 56.101961
L142.523809 56.197200
" />
<path d="M142.523809 56.197200
L142.380952 56.244819
" />
<path d="M142.380952 56.244819
L142.285714 56.244819
" />
<path d="M143.047619 55.244819
L143.666666 55.244819
" />
<path d="M143.666666 55.244819
L143.333333 55.625771
" />
<path d="M143.333333 55.625771
L143.476190 55.625771
" />
<path d="M143.476190 55.625771
L143.571428 55.673390
" />
<path d="M143.571428 55.673390
L143.619047 55.721009
" />
<path d="M143.619047 55.721009
L143.666666 55.816247
" />
<path d="M143.666666 55.816247
L143.666666 56.054342
" />
<path d="M143.666666 56.054342
L143.619047 56.149580
" />
<path d="M143.619047 56.149580
L143.571428 56.197200
" />
<path d="M143.571428 56.197200
L143.476190 56.244819
" />
<path d="M143.476190 56.244819
L143.190476 56.244819
" />
<path d="M143.190476 56.244819
L143.095238 56.197200
" />
<path d="M143.095238 56.197200
L143.047619 56.149580
" />
</g><text x="113.500000" y="145.170000"
textLength="1.964286" font-size="1.333333" lengthAdjust="spacingAndGlyphs"
text-anchor="middle" opacity="0" stroke-opacity="0">J9</text>
<g class="stroked-text"><desc>J9</desc>
<path d="M113.166666 144.124819
L113.166666 144.839104
" />
<path d="M113.166666 144.839104
L113.119047 144.981961
" />
<path d="M113.119047 144.981961
L113.023809 145.077200
" />
<path d="M113.023809 145.077200
L112.880952 145.124819
" />
<path d="M112.880952 145.124819
L112.785714 145.124819
" />
<path d="M113.690476 145.124819
L113.880952 145.124819
" />
<path d="M113.880952 145.124819
L113.976190 145.077200
" />
<path d="M113.976190 145.077200
L114.023809 145.029580
" />
<path d="M114.023809 145.029580
L114.119047 144.886723
" />
<path d="M114.119047 144.886723
L114.166666 144.696247
" />
<path d="M114.166666 144.696247
L114.166666 144.315295
" />
<path d="M114.166666 144.315295
L114.119047 144.220057
" />
<path d="M114.119047 144.220057
L114.071428 144.172438
" />
<path d="M114.071428 144.172438
L113.976190 144.124819
" />
<path d="M113.976190 144.124819
L113.785714 144.124819
" />
<path d="M113.785714 144.124819
L113.690476 144.172438
" />
<path d="M113.690476 144.172438
L113.642857 144.220057
" />
<path d="M113.642857 144.220057
L113.595238 144.315295
" />
<path d="M113.595238 144.315295
L113.595238 144.553390
" />
<path d="M113.595238 144.553390
L113.642857 144.648628
" />
<path d="M113.642857 144.648628
L113.690476 144.696247
" />
<path d="M113.690476 144.696247
L113.785714 144.743866
" />
<path d="M113.785714 144.743866
L113.976190 144.743866
" />
<path d="M113.976190 144.743866
L114.071428 144.696247
" />
<path d="M114.071428 144.696247
L114.119047 144.648628
" />
<path d="M114.119047 144.648628
L114.166666 144.553390
" />
</g><text x="85.750000" y="56.170000"
textLength="2.916667" font-size="1.333333" lengthAdjust="spacingAndGlyphs"
text-anchor="middle" opacity="0" stroke-opacity="0">J10</text>
<g class="stroked-text"><desc>J10</desc>
<path d="M84.940476 55.124819
L84.940476 55.839104
" />
<path d="M84.940476 55.839104
L84.892857 55.981961
" />
<path d="M84.892857 55.981961
L84.797619 56.077200
" />
<path d="M84.797619 56.077200
L84.654762 56.124819
" />
<path d="M84.654762 56.124819
L84.559524 56.124819
" />
<path d="M85.940476 56.124819
L85.369048 56.124819
" />
<path d="M85.654762 56.124819
L85.654762 55.124819
" />
<path d="M85.654762 55.124819
L85.559524 55.267676
" />
<path d="M85.559524 55.267676
L85.464286 55.362914
" />
<path d="M85.464286 55.362914
L85.369048 55.410533
" />
<path d="M86.559524 55.124819
L86.654762 55.124819
" />
<path d="M86.654762 55.124819
L86.750000 55.172438
" />
<path d="M86.750000 55.172438
L86.797619 55.220057
" />
<path d="M86.797619 55.220057
L86.845238 55.315295
" />
<path d="M86.845238 55.315295
L86.892857 55.505771
" />
<path d="M86.892857 55.505771
L86.892857 55.743866
" />
<path d="M86.892857 55.743866
L86.845238 55.934342
" />
<path d="M86.845238 55.934342
L86.797619 56.029580
" />
<path d="M86.797619 56.029580
L86.750000 56.077200
" />
<path d="M86.750000 56.077200
L86.654762 56.124819
" />
<path d="M86.654762 56.124819
L86.559524 56.124819
" />
<path d="M86.559524 56.124819
L86.464286 56.077200
" />
<path d="M86.464286 56.077200
L86.416667 56.029580
" />
<path d="M86.416667 56.029580
L86.369048 55.934342
" />
<path d="M86.369048 55.934342
L86.321429 55.743866
" />
<path d="M86.321429 55.743866
L86.321429 55.505771
" />
<path d="M86.321429 55.505771
L86.369048 55.315295
" />
<path d="M86.369048 55.315295
L86.416667 55.220057
" />
<path d="M86.416667 55.220057
L86.464286 55.172438
" />
<path d="M86.464286 55.172438
L86.559524 55.124819
" />
</g><text x="58.750000" y="56.330000"
textLength="1.964286" font-size="1.333333" lengthAdjust="spacingAndGlyphs"
text-anchor="middle" opacity="0" stroke-opacity="0">J4</text>
<g class="stroked-text"><desc>J4</desc>
<path d="M58.416666 55.284819
L58.416666 55.999104
" />
<path d="M58.416666 55.999104
L58.369047 56.141961
" />
<path d="M58.369047 56.141961
L58.273809 56.237200
" />
<path d="M58.273809 56.237200
L58.130952 56.284819
" />
<path d="M58.130952 56.284819
L58.035714 56.284819
" />
<path d="M59.321428 55.618152
L59.321428 56.284819
" />
<path d="M59.083333 55.237200
L58.845238 55.951485
" />
<path d="M58.845238 55.951485
L59.464285 55.951485
" />
</g><text x="87.500000" y="143.880000"
textLength="2.916667" font-size="1.333333" lengthAdjust="spacingAndGlyphs"
text-anchor="middle" opacity="0" stroke-opacity="0">J12</text>
<g class="stroked-text"><desc>J12</desc>
<path d="M86.690476 142.834819
L86.690476 143.549104
" />
<path d="M86.690476 143.549104
L86.642857 143.691961
" />
<path d="M86.642857 143.691961
L86.547619 143.787200
" />
<path d="M86.547619 143.787200
L86.404762 143.834819
" />
<path d="M86.404762 143.834819
L86.309524 143.834819
" />
<path d="M87.690476 143.834819
L87.119048 143.834819
" />
<path d="M87.404762 143.834819
L87.404762 142.834819
" />
<path d="M87.404762 142.834819
L87.309524 142.977676
" />
<path d="M87.309524 142.977676
L87.214286 143.072914
" />
<path d="M87.214286 143.072914
L87.119048 143.120533
" />
<path d="M88.071429 142.930057
L88.119048 142.882438
" />
<path d="M88.119048 142.882438
L88.214286 142.834819
" />
<path d="M88.214286 142.834819
L88.452381 142.834819
" />
<path d="M88.452381 142.834819
L88.547619 142.882438
" />
<path d="M88.547619 142.882438
L88.595238 142.930057
" />
<path d="M88.595238 142.930057
L88.642857 143.025295
" />
<path d="M88.642857 143.025295
L88.642857 143.120533
" />
<path d="M88.642857 143.120533
L88.595238 143.263390
" />
<path d="M88.595238 143.263390
L88.023810 143.834819
" />
<path d="M88.023810 143.834819
L88.642857 143.834819
" />
</g><text x="113.500000" y="56.330000"
textLength="1.964286" font-size="1.333333" lengthAdjust="spacingAndGlyphs"
text-anchor="middle" opacity="0" stroke-opacity="0">J2</text>
<g class="stroked-text"><desc>J2</desc>
<path d="M113.166666 55.284819
L113.166666 55.999104
" />
<path d="M113.166666 55.999104
L113.119047 56.141961
" />
<path d="M113.119047 56.141961
L113.023809 56.237200
" />
<path d="M113.023809 56.237200
L112.880952 56.284819
" />
<path d="M112.880952 56.284819
L112.785714 56.284819
" />
<path d="M113.595238 55.380057
L113.642857 55.332438
" />
<path d="M113.642857 55.332438
L113.738095 55.284819
" />
<path d="M113.738095 55.284819
L113.976190 55.284819
" />
<path d="M113.976190 55.284819
L114.071428 55.332438
" />
<path d="M114.071428 55.332438
L114.119047 55.380057
" />
<path d="M114.119047 55.380057
L114.166666 55.475295
" />
<path d="M114.166666 55.475295
L114.166666 55.570533
" />
<path d="M114.166666 55.570533
L114.119047 55.713390
" />
<path d="M114.119047 55.713390
L113.547619 56.284819
" />
<path d="M113.547619 56.284819
L114.166666 56.284819
" />
</g></g>
<g style="fill:none; 
stroke:#000000; stroke-width:0.120000; stroke-opacity:1; 
stroke-linecap:round; stroke-linejoin:round;">
<path d="M145.600000 96.300000
L145.600000 95.700000
" />
<path d="M146.300000 95.000000
L147.700000 95.000000
" />
<path d="M147.700000 97.000000
L146.300000 97.000000
" />
<path d="M148.400000 95.700000
L148.400000 96.300000
" />
<path d="M146.300000 95.000000 A0.699999 0.699999 0.0 0 0 145.600000 95.700000" />
<path d="M145.600000 96.300000 A0.699999 0.699999 0.0 0 0 146.300000 97.000000" />
<path d="M148.400000 95.700000 A0.700000 0.700000 0.0 0 0 147.700000 95.000000" />
<path d="M147.700000 97.000000 A0.700000 0.700000 0.0 0 0 148.400000 96.300000" />
<path d="M59.584000 137.922000
L59.584000 115.002000
" />
<path d="M62.091600 139.293600
L62.091600 140.623600
" />
<path d="M62.091600 140.623600
L60.761600 140.623600
" />
<path d="M62.244000 115.002000
L59.584000 115.002000
" />
<path d="M62.244000 137.922000
L59.584000 137.922000
" />
<path d="M62.244000 137.922000
L62.244000 115.002000
" />
<path d="M82.444000 137.922000
L82.444000 115.002000
" />
<path d="M85.104000 115.002000
L82.444000 115.002000
" />
<path d="M85.104000 137.922000
L82.444000 137.922000
" />
<path d="M85.104000 137.922000
L85.104000 115.002000
" />
<path d="M85.104000 139.192000
L85.104000 140.522000
" />
<path d="M85.104000 140.522000
L83.774000 140.522000
" />
<path d="M145.600000 104.300000
L145.600000 103.700000
" />
<path d="M146.300000 103.000000
L147.700000 103.000000
" />
<path d="M147.700000 105.000000
L146.300000 105.000000
" />
<path d="M148.400000 103.700000
L148.400000 104.300000
" />
<path d="M146.300000 103.000000 A0.699999 0.699999 0.0 0 0 145.600000 103.700000" />
<path d="M145.600000 104.300000 A0.699999 0.699999 0.0 0 0 146.300000 105.000000" />
<path d="M148.400000 103.700000 A0.700000 0.700000 0.0 0 0 147.700000 103.000000" />
<path d="M147.700000 105.000000 A0.700000 0.700000 0.0 0 0 148.400000 104.300000" />
<path d="M114.956000 137.922000
L114.956000 115.002000
" />
<path d="M117.463600 139.293600
L117.463600 140.623600
" />
<path d="M117.463600 140.623600
L116.133600 140.623600
" />
<path d="M117.616000 115.002000
L114.956000 115.002000
" />
<path d="M117.616000 137.922000
L114.956000 137.922000
" />
<path d="M117.616000 137.922000
L117.616000 115.002000
" />
<path d="M137.816000 137.922000
L137.816000 115.002000
" />
<path d="M140.476000 115.002000
L137.816000 115.002000
" />
<path d="M140.476000 137.922000
L137.816000 137.922000
" />
<path d="M140.476000 137.922000
L140.476000 115.002000
" />
<path d="M140.476000 139.192000
L140.476000 140.522000
" />
<path d="M140.476000 140.522000
L139.146000 140.522000
" />
<path d="M114.956000 82.550000
L114.956000 59.630000
" />
<path d="M117.463600 83.921600
L117.463600 85.251600
" />
<path d="M117.463600 85.251600
L116.133600 85.251600
" />
<path d="M117.616000 59.630000
L114.956000 59.630000
" />
<path d="M117.616000 82.550000
L114.956000 82.550000
" />
<path d="M117.616000 82.550000
L117.616000 59.630000
" />
<path d="M137.816000 82.550000
L137.816000 59.630000
" />
<path d="M140.476000 59.630000
L137.816000 59.630000
" />
<path d="M140.476000 82.550000
L137.816000 82.550000
" />
<path d="M140.476000 82.550000
L140.476000 59.630000
" />
<path d="M140.476000 83.820000
L140.476000 85.150000
" />
<path d="M140.476000 85.150000
L139.146000 85.150000
" />
</g>
<g style="fill:none; 
stroke:#000000; stroke-width:0.100000; stroke-opacity:1; 
stroke-linecap:round; stroke-linejoin:round;">
<path d="M67.360800 82.600800
L67.259200 82.600800
" />
<path d="M67.564000 81.635600
L67.564000 81.127600
" />
<path d="M68.732400 80.060800
L69.494400 80.060800
" />
<path d="M70.662800 80.060800
L71.475600 80.060800
" />
<path d="M72.644000 81.635600
L72.644000 81.127600
" />
<path d="M72.847200 82.600800
L72.948800 82.600800
" />
</g>
<g style="fill:none; 
stroke:#000000; stroke-width:0.120000; stroke-opacity:1; 
stroke-linecap:round; stroke-linejoin:round;">
<path d="M123.670000 146.000000
L123.670000 144.670000
" />
<path d="M125.000000 146.000000
L123.670000 146.000000
" />
<path d="M126.270000 143.340000
L131.410000 143.340000
" />
<path d="M126.270000 146.000000
L126.270000 143.340000
" />
<path d="M126.270000 146.000000
L131.410000 146.000000
" />
<path d="M131.410000 146.000000
L131.410000 143.340000
" />
<path d="M51.600000 104.300000
L51.600000 103.700000
" />
<path d="M52.300000 103.000000
L53.700000 103.000000
" />
<path d="M53.700000 105.000000
L52.300000 105.000000
" />
<path d="M54.400000 103.700000
L54.400000 104.300000
" />
<path d="M52.300000 103.000000 A0.700000 0.700000 0.0 0 0 51.600000 103.700000" />
<path d="M51.600000 104.300000 A0.700000 0.700000 0.0 0 0 52.300000 105.000000" />
<path d="M54.400000 103.700000 A0.699999 0.699999 0.0 0 0 53.700000 103.000000" />
<path d="M53.700000 105.000000 A0.699999 0.699999 0.0 0 0 54.400000 104.300000" />
</g>
<g style="fill:none; 
stroke:#000000; stroke-width:0.100000; stroke-opacity:1; 
stroke-linecap:round; stroke-linejoin:round;">
<path d="M65.341500 123.126500
L65.239900 123.126500
" />
<path d="M65.544700 122.161300
L65.544700 121.653300
" />
<path d="M66.713100 120.586500
L67.475100 120.586500
" />
<path d="M68.643500 120.586500
L69.456300 120.586500
" />
<path d="M70.624700 122.161300
L70.624700 121.653300
" />
<path d="M70.827900 123.126500
L70.929500 123.126500
" />
</g>
<g style="fill:none; 
stroke:#000000; stroke-width:0.120000; stroke-opacity:1; 
stroke-linecap:round; stroke-linejoin:round;">
<path d="M124.170000 57.450000
L124.170000 56.120000
" />
<path d="M125.500000 57.450000
L124.170000 57.450000
" />
<path d="M126.770000 54.790000
L131.910000 54.790000
" />
<path d="M126.770000 57.450000
L126.770000 54.790000
" />
<path d="M126.770000 57.450000
L131.910000 57.450000
" />
<path d="M131.910000 57.450000
L131.910000 54.790000
" />
</g>
<g style="fill:none; 
stroke:#000000; stroke-width:0.100000; stroke-opacity:1; 
stroke-linecap:round; stroke-linejoin:round;">
<path d="M120.446800 123.499200
L120.345200 123.499200
" />
<path d="M120.650000 122.534000
L120.650000 122.026000
" />
<path d="M121.818400 120.959200
L122.580400 120.959200
" />
<path d="M123.748800 120.959200
L124.561600 120.959200
" />
<path d="M125.730000 122.534000
L125.730000 122.026000
" />
<path d="M125.933200 123.499200
L126.034800 123.499200
" />
</g>
<g style="fill:none; 
stroke:#000000; stroke-width:0.120000; stroke-opacity:1; 
stroke-linecap:round; stroke-linejoin:round;">
<path d="M67.645000 146.210000
L67.645000 144.880000
" />
<path d="M68.975000 146.210000
L67.645000 146.210000
" />
<path d="M70.245000 143.550000
L75.385000 143.550000
" />
<path d="M70.245000 146.210000
L70.245000 143.550000
" />
<path d="M70.245000 146.210000
L75.385000 146.210000
" />
<path d="M75.385000 146.210000
L75.385000 143.550000
" />
<path d="M68.170000 57.330000
L68.170000 56.000000
" />
<path d="M69.500000 57.330000
L68.170000 57.330000
" />
<path d="M70.770000 54.670000
L75.910000 54.670000
" />
<path d="M70.770000 57.330000
L70.770000 54.670000
" />
<path d="M70.770000 57.330000
L75.910000 57.330000
" />
<path d="M75.910000 57.330000
L75.910000 54.670000
" />
<path d="M51.600000 96.300000
L51.600000 95.700000
" />
<path d="M52.300000 95.000000
L53.700000 95.000000
" />
<path d="M53.700000 97.000000
L52.300000 97.000000
" />
<path d="M54.400000 95.700000
L54.400000 96.300000
" />
<path d="M52.300000 95.000000 A0.700000 0.700000 0.0 0 0 51.600000 95.700000" />
<path d="M51.600000 96.300000 A0.700000 0.700000 0.0 0 0 52.300000 97.000000" />
<path d="M54.400000 95.700000 A0.699999 0.699999 0.0 0 0 53.700000 95.000000" />
<path d="M53.700000 97.000000 A0.699999 0.699999 0.0 0 0 54.400000 96.300000" />
<path d="M59.584000 82.550000
L59.584000 59.630000
" />
<path d="M62.091600 83.921600
L62.091600 85.251600
" />
<path d="M62.091600 85.251600
L60.761600 85.251600
" />
<path d="M62.244000 59.630000
L59.584000 59.630000
" />
<path d="M62.244000 82.550000
L59.584000 82.550000
" />
<path d="M62.244000 82.550000
L62.244000 59.630000
" />
<path d="M82.444000 82.550000
L82.444000 59.630000
" />
<path d="M85.104000 59.630000
L82.444000 59.630000
" />
<path d="M85.104000 82.550000
L82.444000 82.550000
" />
<path d="M85.104000 82.550000
L85.104000 59.630000
" />
<path d="M85.104000 83.820000
L85.104000 85.150000
" />
<path d="M85.104000 85.150000
L83.774000 85.150000
" />
</g>
<g style="fill:none; 
stroke:#000000; stroke-width:0.100000; stroke-opacity:1; 
stroke-linecap:round; stroke-linejoin:round;">
<path d="M123.744000 82.804000
L123.642400 82.804000
" />
<path d="M123.947200 81.838800
L123.947200 81.330800
" />
<path d="M125.115600 80.264000
L125.877600 80.264000
" />
<path d="M127.046000 80.264000
L127.858800 80.264000
" />
<path d="M129.027200 81.838800
L129.027200 81.330800
" />
<path d="M129.230400 82.804000
L129.332000 82.804000
" />
</g> 
</svg>
