<?xml version="1.0" standalone="no"?>
 <!DOCTYPE svg PUBLIC "-//W3C//DTD SVG 1.1//EN" 
 "http://www.w3.org/Graphics/SVG/1.1/DTD/svg11.dtd"> 
<svg
  xmlns:svg="http://www.w3.org/2000/svg"
  xmlns="http://www.w3.org/2000/svg"
  xmlns:xlink="http://www.w3.org/1999/xlink"
  version="1.1"
  width="297.002200mm" height="210.007200mm" viewBox="0.000000 0.000000 297.002200 210.007200">
<title>SVG Image created as DarkQuest_SiPM_Motherboard-B_Silkscreen.svg date 2025/06/11 08:09:42 </title>
  <desc>Image generated by PCBNEW </desc>
<g style="fill:#000000; fill-opacity:1.000000;stroke:#000000; stroke-opacity:1.000000;
stroke-linecap:round; stroke-linejoin:round;"
 transform="translate(0 0) scale(1 1)">
</g>
<g style="fill:none; 
stroke:#000000; stroke-width:0.150000; stroke-opacity:1; 
stroke-linecap:round; stroke-linejoin:round;">
<g transform="rotate(-90.000000 65.500000 144.000000)">
<text x="65.500000" y="144.500000"
transform="scale(-1 1) translate(-131.000000 0)"
textLength="1.107143" font-size="1.333333" lengthAdjust="spacingAndGlyphs"
text-anchor="middle" opacity="0" stroke-opacity="0">A</text>
</g>
<g class="stroked-text"><desc>A</desc>
<path d="M65.669104 143.761905
L65.669104 144.238095
" />
<path d="M65.954819 143.666667
L64.954819 144.000000
" />
<path d="M64.954819 144.000000
L65.954819 144.333333
" />
</g><text x="131.064000" y="85.344000"
transform="scale(-1 1) translate(-262.128000 0)"
textLength="7.964287" font-size="1.333333" lengthAdjust="spacingAndGlyphs"
text-anchor="start" opacity="0" stroke-opacity="0">Channel 2</text>
<g class="stroked-text"><desc>Channel 2</desc>
<path d="M130.155792 85.118580
L130.203411 85.166200
" />
<path d="M130.203411 85.166200
L130.346268 85.213819
" />
<path d="M130.346268 85.213819
L130.441506 85.213819
" />
<path d="M130.441506 85.213819
L130.584363 85.166200
" />
<path d="M130.584363 85.166200
L130.679601 85.070961
" />
<path d="M130.679601 85.070961
L130.727220 84.975723
" />
<path d="M130.727220 84.975723
L130.774839 84.785247
" />
<path d="M130.774839 84.785247
L130.774839 84.642390
" />
<path d="M130.774839 84.642390
L130.727220 84.451914
" />
<path d="M130.727220 84.451914
L130.679601 84.356676
" />
<path d="M130.679601 84.356676
L130.584363 84.261438
" />
<path d="M130.584363 84.261438
L130.441506 84.213819
" />
<path d="M130.441506 84.213819
L130.346268 84.213819
" />
<path d="M130.346268 84.213819
L130.203411 84.261438
" />
<path d="M130.203411 84.261438
L130.155792 84.309057
" />
<path d="M129.727220 85.213819
L129.727220 84.213819
" />
<path d="M129.298649 85.213819
L129.298649 84.690009
" />
<path d="M129.298649 84.690009
L129.346268 84.594771
" />
<path d="M129.346268 84.594771
L129.441506 84.547152
" />
<path d="M129.441506 84.547152
L129.584363 84.547152
" />
<path d="M129.584363 84.547152
L129.679601 84.594771
" />
<path d="M129.679601 84.594771
L129.727220 84.642390
" />
<path d="M128.393887 85.213819
L128.393887 84.690009
" />
<path d="M128.393887 84.690009
L128.441506 84.594771
" />
<path d="M128.441506 84.594771
L128.536744 84.547152
" />
<path d="M128.536744 84.547152
L128.727220 84.547152
" />
<path d="M128.727220 84.547152
L128.822458 84.594771
" />
<path d="M128.393887 85.166200
L128.489125 85.213819
" />
<path d="M128.489125 85.213819
L128.727220 85.213819
" />
<path d="M128.727220 85.213819
L128.822458 85.166200
" />
<path d="M128.822458 85.166200
L128.870077 85.070961
" />
<path d="M128.870077 85.070961
L128.870077 84.975723
" />
<path d="M128.870077 84.975723
L128.822458 84.880485
" />
<path d="M128.822458 84.880485
L128.727220 84.832866
" />
<path d="M128.727220 84.832866
L128.489125 84.832866
" />
<path d="M128.489125 84.832866
L128.393887 84.785247
" />
<path d="M127.917696 84.547152
L127.917696 85.213819
" />
<path d="M127.917696 84.642390
L127.870077 84.594771
" />
<path d="M127.870077 84.594771
L127.774839 84.547152
" />
<path d="M127.774839 84.547152
L127.631982 84.547152
" />
<path d="M127.631982 84.547152
L127.536744 84.594771
" />
<path d="M127.536744 84.594771
L127.489125 84.690009
" />
<path d="M127.489125 84.690009
L127.489125 85.213819
" />
<path d="M127.012934 84.547152
L127.012934 85.213819
" />
<path d="M127.012934 84.642390
L126.965315 84.594771
" />
<path d="M126.965315 84.594771
L126.870077 84.547152
" />
<path d="M126.870077 84.547152
L126.727220 84.547152
" />
<path d="M126.727220 84.547152
L126.631982 84.594771
" />
<path d="M126.631982 84.594771
L126.584363 84.690009
" />
<path d="M126.584363 84.690009
L126.584363 85.213819
" />
<path d="M125.727220 85.166200
L125.822458 85.213819
" />
<path d="M125.822458 85.213819
L126.012934 85.213819
" />
<path d="M126.012934 85.213819
L126.108172 85.166200
" />
<path d="M126.108172 85.166200
L126.155791 85.070961
" />
<path d="M126.155791 85.070961
L126.155791 84.690009
" />
<path d="M126.155791 84.690009
L126.108172 84.594771
" />
<path d="M126.108172 84.594771
L126.012934 84.547152
" />
<path d="M126.012934 84.547152
L125.822458 84.547152
" />
<path d="M125.822458 84.547152
L125.727220 84.594771
" />
<path d="M125.727220 84.594771
L125.679601 84.690009
" />
<path d="M125.679601 84.690009
L125.679601 84.785247
" />
<path d="M125.679601 84.785247
L126.155791 84.880485
" />
<path d="M125.108172 85.213819
L125.203410 85.166200
" />
<path d="M125.203410 85.166200
L125.251029 85.070961
" />
<path d="M125.251029 85.070961
L125.251029 84.213819
" />
<path d="M124.012933 84.309057
L123.965314 84.261438
" />
<path d="M123.965314 84.261438
L123.870076 84.213819
" />
<path d="M123.870076 84.213819
L123.631981 84.213819
" />
<path d="M123.631981 84.213819
L123.536743 84.261438
" />
<path d="M123.536743 84.261438
L123.489124 84.309057
" />
<path d="M123.489124 84.309057
L123.441505 84.404295
" />
<path d="M123.441505 84.404295
L123.441505 84.499533
" />
<path d="M123.441505 84.499533
L123.489124 84.642390
" />
<path d="M123.489124 84.642390
L124.060552 85.213819
" />
<path d="M124.060552 85.213819
L123.441505 85.213819
" />
</g><g transform="rotate(-90.000000 65.500000 56.000000)">
<text x="65.500000" y="56.500000"
transform="scale(-1 1) translate(-131.000000 0)"
textLength="1.107143" font-size="1.333333" lengthAdjust="spacingAndGlyphs"
text-anchor="middle" opacity="0" stroke-opacity="0">A</text>
</g>
<g class="stroked-text"><desc>A</desc>
<path d="M65.669104 55.761905
L65.669104 56.238095
" />
<path d="M65.954819 55.666667
L64.954819 56.000000
" />
<path d="M64.954819 56.000000
L65.954819 56.333333
" />
</g><text x="75.184000" y="85.090000"
transform="scale(-1 1) translate(-150.368000 0)"
textLength="7.964287" font-size="1.333333" lengthAdjust="spacingAndGlyphs"
text-anchor="start" opacity="0" stroke-opacity="0">Channel 3</text>
<g class="stroked-text"><desc>Channel 3</desc>
<path d="M74.275792 84.864580
L74.323411 84.912200
" />
<path d="M74.323411 84.912200
L74.466268 84.959819
" />
<path d="M74.466268 84.959819
L74.561506 84.959819
" />
<path d="M74.561506 84.959819
L74.704363 84.912200
" />
<path d="M74.704363 84.912200
L74.799601 84.816961
" />
<path d="M74.799601 84.816961
L74.847220 84.721723
" />
<path d="M74.847220 84.721723
L74.894839 84.531247
" />
<path d="M74.894839 84.531247
L74.894839 84.388390
" />
<path d="M74.894839 84.388390
L74.847220 84.197914
" />
<path d="M74.847220 84.197914
L74.799601 84.102676
" />
<path d="M74.799601 84.102676
L74.704363 84.007438
" />
<path d="M74.704363 84.007438
L74.561506 83.959819
" />
<path d="M74.561506 83.959819
L74.466268 83.959819
" />
<path d="M74.466268 83.959819
L74.323411 84.007438
" />
<path d="M74.323411 84.007438
L74.275792 84.055057
" />
<path d="M73.847220 84.959819
L73.847220 83.959819
" />
<path d="M73.418649 84.959819
L73.418649 84.436009
" />
<path d="M73.418649 84.436009
L73.466268 84.340771
" />
<path d="M73.466268 84.340771
L73.561506 84.293152
" />
<path d="M73.561506 84.293152
L73.704363 84.293152
" />
<path d="M73.704363 84.293152
L73.799601 84.340771
" />
<path d="M73.799601 84.340771
L73.847220 84.388390
" />
<path d="M72.513887 84.959819
L72.513887 84.436009
" />
<path d="M72.513887 84.436009
L72.561506 84.340771
" />
<path d="M72.561506 84.340771
L72.656744 84.293152
" />
<path d="M72.656744 84.293152
L72.847220 84.293152
" />
<path d="M72.847220 84.293152
L72.942458 84.340771
" />
<path d="M72.513887 84.912200
L72.609125 84.959819
" />
<path d="M72.609125 84.959819
L72.847220 84.959819
" />
<path d="M72.847220 84.959819
L72.942458 84.912200
" />
<path d="M72.942458 84.912200
L72.990077 84.816961
" />
<path d="M72.990077 84.816961
L72.990077 84.721723
" />
<path d="M72.990077 84.721723
L72.942458 84.626485
" />
<path d="M72.942458 84.626485
L72.847220 84.578866
" />
<path d="M72.847220 84.578866
L72.609125 84.578866
" />
<path d="M72.609125 84.578866
L72.513887 84.531247
" />
<path d="M72.037696 84.293152
L72.037696 84.959819
" />
<path d="M72.037696 84.388390
L71.990077 84.340771
" />
<path d="M71.990077 84.340771
L71.894839 84.293152
" />
<path d="M71.894839 84.293152
L71.751982 84.293152
" />
<path d="M71.751982 84.293152
L71.656744 84.340771
" />
<path d="M71.656744 84.340771
L71.609125 84.436009
" />
<path d="M71.609125 84.436009
L71.609125 84.959819
" />
<path d="M71.132934 84.293152
L71.132934 84.959819
" />
<path d="M71.132934 84.388390
L71.085315 84.340771
" />
<path d="M71.085315 84.340771
L70.990077 84.293152
" />
<path d="M70.990077 84.293152
L70.847220 84.293152
" />
<path d="M70.847220 84.293152
L70.751982 84.340771
" />
<path d="M70.751982 84.340771
L70.704363 84.436009
" />
<path d="M70.704363 84.436009
L70.704363 84.959819
" />
<path d="M69.847220 84.912200
L69.942458 84.959819
" />
<path d="M69.942458 84.959819
L70.132934 84.959819
" />
<path d="M70.132934 84.959819
L70.228172 84.912200
" />
<path d="M70.228172 84.912200
L70.275791 84.816961
" />
<path d="M70.275791 84.816961
L70.275791 84.436009
" />
<path d="M70.275791 84.436009
L70.228172 84.340771
" />
<path d="M70.228172 84.340771
L70.132934 84.293152
" />
<path d="M70.132934 84.293152
L69.942458 84.293152
" />
<path d="M69.942458 84.293152
L69.847220 84.340771
" />
<path d="M69.847220 84.340771
L69.799601 84.436009
" />
<path d="M69.799601 84.436009
L69.799601 84.531247
" />
<path d="M69.799601 84.531247
L70.275791 84.626485
" />
<path d="M69.228172 84.959819
L69.323410 84.912200
" />
<path d="M69.323410 84.912200
L69.371029 84.816961
" />
<path d="M69.371029 84.816961
L69.371029 83.959819
" />
<path d="M68.180552 83.959819
L67.561505 83.959819
" />
<path d="M67.561505 83.959819
L67.894838 84.340771
" />
<path d="M67.894838 84.340771
L67.751981 84.340771
" />
<path d="M67.751981 84.340771
L67.656743 84.388390
" />
<path d="M67.656743 84.388390
L67.609124 84.436009
" />
<path d="M67.609124 84.436009
L67.561505 84.531247
" />
<path d="M67.561505 84.531247
L67.561505 84.769342
" />
<path d="M67.561505 84.769342
L67.609124 84.864580
" />
<path d="M67.609124 84.864580
L67.656743 84.912200
" />
<path d="M67.656743 84.912200
L67.751981 84.959819
" />
<path d="M67.751981 84.959819
L68.037695 84.959819
" />
<path d="M68.037695 84.959819
L68.132933 84.912200
" />
<path d="M68.132933 84.912200
L68.180552 84.864580
" />
</g><g transform="rotate(-90.000000 80.500000 56.000000)">
<text x="80.500000" y="56.500000"
transform="scale(-1 1) translate(-161.000000 0)"
textLength="1.250000" font-size="1.333333" lengthAdjust="spacingAndGlyphs"
text-anchor="middle" opacity="0" stroke-opacity="0">K</text>
</g>
<g class="stroked-text"><desc>K</desc>
<path d="M80.954819 55.738095
L79.954819 55.738095
" />
<path d="M80.954819 56.309523
L80.383390 55.880952
" />
<path d="M79.954819 56.309523
L80.526247 55.738095
" />
</g><text x="131.064000" y="116.840000"
transform="scale(-1 1) translate(-262.128000 0)"
textLength="7.964287" font-size="1.333333" lengthAdjust="spacingAndGlyphs"
text-anchor="start" opacity="0" stroke-opacity="0">Channel 0</text>
<g class="stroked-text"><desc>Channel 0</desc>
<path d="M130.155792 116.614580
L130.203411 116.662200
" />
<path d="M130.203411 116.662200
L130.346268 116.709819
" />
<path d="M130.346268 116.709819
L130.441506 116.709819
" />
<path d="M130.441506 116.709819
L130.584363 116.662200
" />
<path d="M130.584363 116.662200
L130.679601 116.566961
" />
<path d="M130.679601 116.566961
L130.727220 116.471723
" />
<path d="M130.727220 116.471723
L130.774839 116.281247
" />
<path d="M130.774839 116.281247
L130.774839 116.138390
" />
<path d="M130.774839 116.138390
L130.727220 115.947914
" />
<path d="M130.727220 115.947914
L130.679601 115.852676
" />
<path d="M130.679601 115.852676
L130.584363 115.757438
" />
<path d="M130.584363 115.757438
L130.441506 115.709819
" />
<path d="M130.441506 115.709819
L130.346268 115.709819
" />
<path d="M130.346268 115.709819
L130.203411 115.757438
" />
<path d="M130.203411 115.757438
L130.155792 115.805057
" />
<path d="M129.727220 116.709819
L129.727220 115.709819
" />
<path d="M129.298649 116.709819
L129.298649 116.186009
" />
<path d="M129.298649 116.186009
L129.346268 116.090771
" />
<path d="M129.346268 116.090771
L129.441506 116.043152
" />
<path d="M129.441506 116.043152
L129.584363 116.043152
" />
<path d="M129.584363 116.043152
L129.679601 116.090771
" />
<path d="M129.679601 116.090771
L129.727220 116.138390
" />
<path d="M128.393887 116.709819
L128.393887 116.186009
" />
<path d="M128.393887 116.186009
L128.441506 116.090771
" />
<path d="M128.441506 116.090771
L128.536744 116.043152
" />
<path d="M128.536744 116.043152
L128.727220 116.043152
" />
<path d="M128.727220 116.043152
L128.822458 116.090771
" />
<path d="M128.393887 116.662200
L128.489125 116.709819
" />
<path d="M128.489125 116.709819
L128.727220 116.709819
" />
<path d="M128.727220 116.709819
L128.822458 116.662200
" />
<path d="M128.822458 116.662200
L128.870077 116.566961
" />
<path d="M128.870077 116.566961
L128.870077 116.471723
" />
<path d="M128.870077 116.471723
L128.822458 116.376485
" />
<path d="M128.822458 116.376485
L128.727220 116.328866
" />
<path d="M128.727220 116.328866
L128.489125 116.328866
" />
<path d="M128.489125 116.328866
L128.393887 116.281247
" />
<path d="M127.917696 116.043152
L127.917696 116.709819
" />
<path d="M127.917696 116.138390
L127.870077 116.090771
" />
<path d="M127.870077 116.090771
L127.774839 116.043152
" />
<path d="M127.774839 116.043152
L127.631982 116.043152
" />
<path d="M127.631982 116.043152
L127.536744 116.090771
" />
<path d="M127.536744 116.090771
L127.489125 116.186009
" />
<path d="M127.489125 116.186009
L127.489125 116.709819
" />
<path d="M127.012934 116.043152
L127.012934 116.709819
" />
<path d="M127.012934 116.138390
L126.965315 116.090771
" />
<path d="M126.965315 116.090771
L126.870077 116.043152
" />
<path d="M126.870077 116.043152
L126.727220 116.043152
" />
<path d="M126.727220 116.043152
L126.631982 116.090771
" />
<path d="M126.631982 116.090771
L126.584363 116.186009
" />
<path d="M126.584363 116.186009
L126.584363 116.709819
" />
<path d="M125.727220 116.662200
L125.822458 116.709819
" />
<path d="M125.822458 116.709819
L126.012934 116.709819
" />
<path d="M126.012934 116.709819
L126.108172 116.662200
" />
<path d="M126.108172 116.662200
L126.155791 116.566961
" />
<path d="M126.155791 116.566961
L126.155791 116.186009
" />
<path d="M126.155791 116.186009
L126.108172 116.090771
" />
<path d="M126.108172 116.090771
L126.012934 116.043152
" />
<path d="M126.012934 116.043152
L125.822458 116.043152
" />
<path d="M125.822458 116.043152
L125.727220 116.090771
" />
<path d="M125.727220 116.090771
L125.679601 116.186009
" />
<path d="M125.679601 116.186009
L125.679601 116.281247
" />
<path d="M125.679601 116.281247
L126.155791 116.376485
" />
<path d="M125.108172 116.709819
L125.203410 116.662200
" />
<path d="M125.203410 116.662200
L125.251029 116.566961
" />
<path d="M125.251029 116.566961
L125.251029 115.709819
" />
<path d="M123.774838 115.709819
L123.679600 115.709819
" />
<path d="M123.679600 115.709819
L123.584362 115.757438
" />
<path d="M123.584362 115.757438
L123.536743 115.805057
" />
<path d="M123.536743 115.805057
L123.489124 115.900295
" />
<path d="M123.489124 115.900295
L123.441505 116.090771
" />
<path d="M123.441505 116.090771
L123.441505 116.328866
" />
<path d="M123.441505 116.328866
L123.489124 116.519342
" />
<path d="M123.489124 116.519342
L123.536743 116.614580
" />
<path d="M123.536743 116.614580
L123.584362 116.662200
" />
<path d="M123.584362 116.662200
L123.679600 116.709819
" />
<path d="M123.679600 116.709819
L123.774838 116.709819
" />
<path d="M123.774838 116.709819
L123.870076 116.662200
" />
<path d="M123.870076 116.662200
L123.917695 116.614580
" />
<path d="M123.917695 116.614580
L123.965314 116.519342
" />
<path d="M123.965314 116.519342
L124.012933 116.328866
" />
<path d="M124.012933 116.328866
L124.012933 116.090771
" />
<path d="M124.012933 116.090771
L123.965314 115.900295
" />
<path d="M123.965314 115.900295
L123.917695 115.805057
" />
<path d="M123.917695 115.805057
L123.870076 115.757438
" />
<path d="M123.870076 115.757438
L123.774838 115.709819
" />
</g><g transform="rotate(-90.000000 121.000000 56.000000)">
<text x="121.000000" y="56.500000"
transform="scale(-1 1) translate(-242.000000 0)"
textLength="1.107143" font-size="1.333333" lengthAdjust="spacingAndGlyphs"
text-anchor="middle" opacity="0" stroke-opacity="0">A</text>
</g>
<g class="stroked-text"><desc>A</desc>
<path d="M121.169104 55.761905
L121.169104 56.238095
" />
<path d="M121.454819 55.666667
L120.454819 56.000000
" />
<path d="M120.454819 56.000000
L121.454819 56.333333
" />
</g><g transform="rotate(-90.000000 80.500000 144.000000)">
<text x="80.500000" y="144.500000"
transform="scale(-1 1) translate(-161.000000 0)"
textLength="1.250000" font-size="1.333333" lengthAdjust="spacingAndGlyphs"
text-anchor="middle" opacity="0" stroke-opacity="0">K</text>
</g>
<g class="stroked-text"><desc>K</desc>
<path d="M80.954819 143.738095
L79.954819 143.738095
" />
<path d="M80.954819 144.309523
L80.383390 143.880952
" />
<path d="M79.954819 144.309523
L80.526247 143.738095
" />
</g></g>
<g style="fill:none; 
stroke:#000000; stroke-width:0.203200; stroke-opacity:1; 
stroke-linecap:round; stroke-linejoin:round;">
<text x="144.018000" y="108.714090"
transform="scale(-1 1) translate(-288.036000 0)"
textLength="17.836265" font-size="2.266666" lengthAdjust="spacingAndGlyphs"
text-anchor="start" opacity="0" stroke-opacity="0">BU DarkQuest</text>
<g class="stroked-text"><desc>BU DarkQuest</desc>
<path d="M142.912887 107.805618
L142.670030 107.881808
" />
<path d="M142.670030 107.881808
L142.589077 107.957999
" />
<path d="M142.589077 107.957999
L142.508125 108.110380
" />
<path d="M142.508125 108.110380
L142.508125 108.338951
" />
<path d="M142.508125 108.338951
L142.589077 108.491332
" />
<path d="M142.589077 108.491332
L142.670030 108.567523
" />
<path d="M142.670030 108.567523
L142.831935 108.643713
" />
<path d="M142.831935 108.643713
L143.479554 108.643713
" />
<path d="M143.479554 108.643713
L143.479554 107.043713
" />
<path d="M143.479554 107.043713
L142.912887 107.043713
" />
<path d="M142.912887 107.043713
L142.750982 107.119903
" />
<path d="M142.750982 107.119903
L142.670030 107.196094
" />
<path d="M142.670030 107.196094
L142.589077 107.348475
" />
<path d="M142.589077 107.348475
L142.589077 107.500856
" />
<path d="M142.589077 107.500856
L142.670030 107.653237
" />
<path d="M142.670030 107.653237
L142.750982 107.729427
" />
<path d="M142.750982 107.729427
L142.912887 107.805618
" />
<path d="M142.912887 107.805618
L143.479554 107.805618
" />
<path d="M141.779554 107.043713
L141.779554 108.338951
" />
<path d="M141.779554 108.338951
L141.698601 108.491332
" />
<path d="M141.698601 108.491332
L141.617649 108.567523
" />
<path d="M141.617649 108.567523
L141.455744 108.643713
" />
<path d="M141.455744 108.643713
L141.131935 108.643713
" />
<path d="M141.131935 108.643713
L140.970030 108.567523
" />
<path d="M140.970030 108.567523
L140.889077 108.491332
" />
<path d="M140.889077 108.491332
L140.808125 108.338951
" />
<path d="M140.808125 108.338951
L140.808125 107.043713
" />
<path d="M138.703364 108.643713
L138.703364 107.043713
" />
<path d="M138.703364 107.043713
L138.298602 107.043713
" />
<path d="M138.298602 107.043713
L138.055745 107.119903
" />
<path d="M138.055745 107.119903
L137.893840 107.272284
" />
<path d="M137.893840 107.272284
L137.812887 107.424665
" />
<path d="M137.812887 107.424665
L137.731935 107.729427
" />
<path d="M137.731935 107.729427
L137.731935 107.957999
" />
<path d="M137.731935 107.957999
L137.812887 108.262761
" />
<path d="M137.812887 108.262761
L137.893840 108.415142
" />
<path d="M137.893840 108.415142
L138.055745 108.567523
" />
<path d="M138.055745 108.567523
L138.298602 108.643713
" />
<path d="M138.298602 108.643713
L138.703364 108.643713
" />
<path d="M136.274792 108.643713
L136.274792 107.805618
" />
<path d="M136.274792 107.805618
L136.355745 107.653237
" />
<path d="M136.355745 107.653237
L136.517649 107.577046
" />
<path d="M136.517649 107.577046
L136.841459 107.577046
" />
<path d="M136.841459 107.577046
L137.003364 107.653237
" />
<path d="M136.274792 108.567523
L136.436697 108.643713
" />
<path d="M136.436697 108.643713
L136.841459 108.643713
" />
<path d="M136.841459 108.643713
L137.003364 108.567523
" />
<path d="M137.003364 108.567523
L137.084316 108.415142
" />
<path d="M137.084316 108.415142
L137.084316 108.262761
" />
<path d="M137.084316 108.262761
L137.003364 108.110380
" />
<path d="M137.003364 108.110380
L136.841459 108.034189
" />
<path d="M136.841459 108.034189
L136.436697 108.034189
" />
<path d="M136.436697 108.034189
L136.274792 107.957999
" />
<path d="M135.465269 108.643713
L135.465269 107.577046
" />
<path d="M135.465269 107.881808
L135.384316 107.729427
" />
<path d="M135.384316 107.729427
L135.303364 107.653237
" />
<path d="M135.303364 107.653237
L135.141459 107.577046
" />
<path d="M135.141459 107.577046
L134.979554 107.577046
" />
<path d="M134.412888 108.643713
L134.412888 107.043713
" />
<path d="M134.250983 108.034189
L133.765269 108.643713
" />
<path d="M133.765269 107.577046
L134.412888 108.186570
" />
<path d="M131.903364 108.796094
L132.065269 108.719903
" />
<path d="M132.065269 108.719903
L132.227174 108.567523
" />
<path d="M132.227174 108.567523
L132.470031 108.338951
" />
<path d="M132.470031 108.338951
L132.631936 108.262761
" />
<path d="M132.631936 108.262761
L132.793840 108.262761
" />
<path d="M132.712888 108.643713
L132.874793 108.567523
" />
<path d="M132.874793 108.567523
L133.036698 108.415142
" />
<path d="M133.036698 108.415142
L133.117650 108.110380
" />
<path d="M133.117650 108.110380
L133.117650 107.577046
" />
<path d="M133.117650 107.577046
L133.036698 107.272284
" />
<path d="M133.036698 107.272284
L132.874793 107.119903
" />
<path d="M132.874793 107.119903
L132.712888 107.043713
" />
<path d="M132.712888 107.043713
L132.389079 107.043713
" />
<path d="M132.389079 107.043713
L132.227174 107.119903
" />
<path d="M132.227174 107.119903
L132.065269 107.272284
" />
<path d="M132.065269 107.272284
L131.984317 107.577046
" />
<path d="M131.984317 107.577046
L131.984317 108.110380
" />
<path d="M131.984317 108.110380
L132.065269 108.415142
" />
<path d="M132.065269 108.415142
L132.227174 108.567523
" />
<path d="M132.227174 108.567523
L132.389079 108.643713
" />
<path d="M132.389079 108.643713
L132.712888 108.643713
" />
<path d="M130.527174 107.577046
L130.527174 108.643713
" />
<path d="M131.255746 107.577046
L131.255746 108.415142
" />
<path d="M131.255746 108.415142
L131.174793 108.567523
" />
<path d="M131.174793 108.567523
L131.012888 108.643713
" />
<path d="M131.012888 108.643713
L130.770031 108.643713
" />
<path d="M130.770031 108.643713
L130.608127 108.567523
" />
<path d="M130.608127 108.567523
L130.527174 108.491332
" />
<path d="M129.070032 108.567523
L129.231936 108.643713
" />
<path d="M129.231936 108.643713
L129.555746 108.643713
" />
<path d="M129.555746 108.643713
L129.717651 108.567523
" />
<path d="M129.717651 108.567523
L129.798603 108.415142
" />
<path d="M129.798603 108.415142
L129.798603 107.805618
" />
<path d="M129.798603 107.805618
L129.717651 107.653237
" />
<path d="M129.717651 107.653237
L129.555746 107.577046
" />
<path d="M129.555746 107.577046
L129.231936 107.577046
" />
<path d="M129.231936 107.577046
L129.070032 107.653237
" />
<path d="M129.070032 107.653237
L128.989079 107.805618
" />
<path d="M128.989079 107.805618
L128.989079 107.957999
" />
<path d="M128.989079 107.957999
L129.798603 108.110380
" />
<path d="M128.341460 108.567523
L128.179555 108.643713
" />
<path d="M128.179555 108.643713
L127.855746 108.643713
" />
<path d="M127.855746 108.643713
L127.693841 108.567523
" />
<path d="M127.693841 108.567523
L127.612889 108.415142
" />
<path d="M127.612889 108.415142
L127.612889 108.338951
" />
<path d="M127.612889 108.338951
L127.693841 108.186570
" />
<path d="M127.693841 108.186570
L127.855746 108.110380
" />
<path d="M127.855746 108.110380
L128.098603 108.110380
" />
<path d="M128.098603 108.110380
L128.260508 108.034189
" />
<path d="M128.260508 108.034189
L128.341460 107.881808
" />
<path d="M128.341460 107.881808
L128.341460 107.805618
" />
<path d="M128.341460 107.805618
L128.260508 107.653237
" />
<path d="M128.260508 107.653237
L128.098603 107.577046
" />
<path d="M128.098603 107.577046
L127.855746 107.577046
" />
<path d="M127.855746 107.577046
L127.693841 107.653237
" />
<path d="M127.127175 107.577046
L126.479556 107.577046
" />
<path d="M126.884318 107.043713
L126.884318 108.415142
" />
<path d="M126.884318 108.415142
L126.803365 108.567523
" />
<path d="M126.803365 108.567523
L126.641460 108.643713
" />
<path d="M126.641460 108.643713
L126.479556 108.643713
" />
</g><text x="144.018000" y="111.290000"
transform="scale(-1 1) translate(-288.036000 0)"
textLength="40.341026" font-size="2.266666" lengthAdjust="spacingAndGlyphs"
text-anchor="start" opacity="0" stroke-opacity="0">EMCAL Quad SiPM Motherboard</text>
<g class="stroked-text"><desc>EMCAL Quad SiPM Motherboard</desc>
<path d="M143.479554 110.381528
L142.912887 110.381528
" />
<path d="M142.670030 111.219623
L143.479554 111.219623
" />
<path d="M143.479554 111.219623
L143.479554 109.619623
" />
<path d="M143.479554 109.619623
L142.670030 109.619623
" />
<path d="M141.941459 111.219623
L141.941459 109.619623
" />
<path d="M141.941459 109.619623
L141.374792 110.762480
" />
<path d="M141.374792 110.762480
L140.808125 109.619623
" />
<path d="M140.808125 109.619623
L140.808125 111.219623
" />
<path d="M139.027173 111.067242
L139.108125 111.143433
" />
<path d="M139.108125 111.143433
L139.350983 111.219623
" />
<path d="M139.350983 111.219623
L139.512887 111.219623
" />
<path d="M139.512887 111.219623
L139.755744 111.143433
" />
<path d="M139.755744 111.143433
L139.917649 110.991052
" />
<path d="M139.917649 110.991052
L139.998602 110.838671
" />
<path d="M139.998602 110.838671
L140.079554 110.533909
" />
<path d="M140.079554 110.533909
L140.079554 110.305337
" />
<path d="M140.079554 110.305337
L139.998602 110.000575
" />
<path d="M139.998602 110.000575
L139.917649 109.848194
" />
<path d="M139.917649 109.848194
L139.755744 109.695813
" />
<path d="M139.755744 109.695813
L139.512887 109.619623
" />
<path d="M139.512887 109.619623
L139.350983 109.619623
" />
<path d="M139.350983 109.619623
L139.108125 109.695813
" />
<path d="M139.108125 109.695813
L139.027173 109.772004
" />
<path d="M138.379554 110.762480
L137.570030 110.762480
" />
<path d="M138.541459 111.219623
L137.974792 109.619623
" />
<path d="M137.974792 109.619623
L137.408125 111.219623
" />
<path d="M136.031935 111.219623
L136.841459 111.219623
" />
<path d="M136.841459 111.219623
L136.841459 109.619623
" />
<path d="M133.036697 111.372004
L133.198602 111.295813
" />
<path d="M133.198602 111.295813
L133.360507 111.143433
" />
<path d="M133.360507 111.143433
L133.603364 110.914861
" />
<path d="M133.603364 110.914861
L133.765269 110.838671
" />
<path d="M133.765269 110.838671
L133.927173 110.838671
" />
<path d="M133.846221 111.219623
L134.008126 111.143433
" />
<path d="M134.008126 111.143433
L134.170031 110.991052
" />
<path d="M134.170031 110.991052
L134.250983 110.686290
" />
<path d="M134.250983 110.686290
L134.250983 110.152956
" />
<path d="M134.250983 110.152956
L134.170031 109.848194
" />
<path d="M134.170031 109.848194
L134.008126 109.695813
" />
<path d="M134.008126 109.695813
L133.846221 109.619623
" />
<path d="M133.846221 109.619623
L133.522412 109.619623
" />
<path d="M133.522412 109.619623
L133.360507 109.695813
" />
<path d="M133.360507 109.695813
L133.198602 109.848194
" />
<path d="M133.198602 109.848194
L133.117650 110.152956
" />
<path d="M133.117650 110.152956
L133.117650 110.686290
" />
<path d="M133.117650 110.686290
L133.198602 110.991052
" />
<path d="M133.198602 110.991052
L133.360507 111.143433
" />
<path d="M133.360507 111.143433
L133.522412 111.219623
" />
<path d="M133.522412 111.219623
L133.846221 111.219623
" />
<path d="M131.660507 110.152956
L131.660507 111.219623
" />
<path d="M132.389079 110.152956
L132.389079 110.991052
" />
<path d="M132.389079 110.991052
L132.308126 111.143433
" />
<path d="M132.308126 111.143433
L132.146221 111.219623
" />
<path d="M132.146221 111.219623
L131.903364 111.219623
" />
<path d="M131.903364 111.219623
L131.741460 111.143433
" />
<path d="M131.741460 111.143433
L131.660507 111.067242
" />
<path d="M130.122412 111.219623
L130.122412 110.381528
" />
<path d="M130.122412 110.381528
L130.203365 110.229147
" />
<path d="M130.203365 110.229147
L130.365269 110.152956
" />
<path d="M130.365269 110.152956
L130.689079 110.152956
" />
<path d="M130.689079 110.152956
L130.850984 110.229147
" />
<path d="M130.122412 111.143433
L130.284317 111.219623
" />
<path d="M130.284317 111.219623
L130.689079 111.219623
" />
<path d="M130.689079 111.219623
L130.850984 111.143433
" />
<path d="M130.850984 111.143433
L130.931936 110.991052
" />
<path d="M130.931936 110.991052
L130.931936 110.838671
" />
<path d="M130.931936 110.838671
L130.850984 110.686290
" />
<path d="M130.850984 110.686290
L130.689079 110.610099
" />
<path d="M130.689079 110.610099
L130.284317 110.610099
" />
<path d="M130.284317 110.610099
L130.122412 110.533909
" />
<path d="M128.584317 111.219623
L128.584317 109.619623
" />
<path d="M128.584317 111.143433
L128.746222 111.219623
" />
<path d="M128.746222 111.219623
L129.070031 111.219623
" />
<path d="M129.070031 111.219623
L129.231936 111.143433
" />
<path d="M129.231936 111.143433
L129.312889 111.067242
" />
<path d="M129.312889 111.067242
L129.393841 110.914861
" />
<path d="M129.393841 110.914861
L129.393841 110.457718
" />
<path d="M129.393841 110.457718
L129.312889 110.305337
" />
<path d="M129.312889 110.305337
L129.231936 110.229147
" />
<path d="M129.231936 110.229147
L129.070031 110.152956
" />
<path d="M129.070031 110.152956
L128.746222 110.152956
" />
<path d="M128.746222 110.152956
L128.584317 110.229147
" />
<path d="M126.560508 111.143433
L126.317651 111.219623
" />
<path d="M126.317651 111.219623
L125.912889 111.219623
" />
<path d="M125.912889 111.219623
L125.750984 111.143433
" />
<path d="M125.750984 111.143433
L125.670032 111.067242
" />
<path d="M125.670032 111.067242
L125.589079 110.914861
" />
<path d="M125.589079 110.914861
L125.589079 110.762480
" />
<path d="M125.589079 110.762480
L125.670032 110.610099
" />
<path d="M125.670032 110.610099
L125.750984 110.533909
" />
<path d="M125.750984 110.533909
L125.912889 110.457718
" />
<path d="M125.912889 110.457718
L126.236698 110.381528
" />
<path d="M126.236698 110.381528
L126.398603 110.305337
" />
<path d="M126.398603 110.305337
L126.479556 110.229147
" />
<path d="M126.479556 110.229147
L126.560508 110.076766
" />
<path d="M126.560508 110.076766
L126.560508 109.924385
" />
<path d="M126.560508 109.924385
L126.479556 109.772004
" />
<path d="M126.479556 109.772004
L126.398603 109.695813
" />
<path d="M126.398603 109.695813
L126.236698 109.619623
" />
<path d="M126.236698 109.619623
L125.831937 109.619623
" />
<path d="M125.831937 109.619623
L125.589079 109.695813
" />
<path d="M124.860508 111.219623
L124.860508 110.152956
" />
<path d="M124.860508 109.619623
L124.941460 109.695813
" />
<path d="M124.941460 109.695813
L124.860508 109.772004
" />
<path d="M124.860508 109.772004
L124.779555 109.695813
" />
<path d="M124.779555 109.695813
L124.860508 109.619623
" />
<path d="M124.860508 109.619623
L124.860508 109.772004
" />
<path d="M124.050984 111.219623
L124.050984 109.619623
" />
<path d="M124.050984 109.619623
L123.403365 109.619623
" />
<path d="M123.403365 109.619623
L123.241460 109.695813
" />
<path d="M123.241460 109.695813
L123.160507 109.772004
" />
<path d="M123.160507 109.772004
L123.079555 109.924385
" />
<path d="M123.079555 109.924385
L123.079555 110.152956
" />
<path d="M123.079555 110.152956
L123.160507 110.305337
" />
<path d="M123.160507 110.305337
L123.241460 110.381528
" />
<path d="M123.241460 110.381528
L123.403365 110.457718
" />
<path d="M123.403365 110.457718
L124.050984 110.457718
" />
<path d="M122.350984 111.219623
L122.350984 109.619623
" />
<path d="M122.350984 109.619623
L121.784317 110.762480
" />
<path d="M121.784317 110.762480
L121.217650 109.619623
" />
<path d="M121.217650 109.619623
L121.217650 111.219623
" />
<path d="M119.112889 111.219623
L119.112889 109.619623
" />
<path d="M119.112889 109.619623
L118.546222 110.762480
" />
<path d="M118.546222 110.762480
L117.979555 109.619623
" />
<path d="M117.979555 109.619623
L117.979555 111.219623
" />
<path d="M116.927174 111.219623
L117.089079 111.143433
" />
<path d="M117.089079 111.143433
L117.170032 111.067242
" />
<path d="M117.170032 111.067242
L117.250984 110.914861
" />
<path d="M117.250984 110.914861
L117.250984 110.457718
" />
<path d="M117.250984 110.457718
L117.170032 110.305337
" />
<path d="M117.170032 110.305337
L117.089079 110.229147
" />
<path d="M117.089079 110.229147
L116.927174 110.152956
" />
<path d="M116.927174 110.152956
L116.684317 110.152956
" />
<path d="M116.684317 110.152956
L116.522413 110.229147
" />
<path d="M116.522413 110.229147
L116.441460 110.305337
" />
<path d="M116.441460 110.305337
L116.360508 110.457718
" />
<path d="M116.360508 110.457718
L116.360508 110.914861
" />
<path d="M116.360508 110.914861
L116.441460 111.067242
" />
<path d="M116.441460 111.067242
L116.522413 111.143433
" />
<path d="M116.522413 111.143433
L116.684317 111.219623
" />
<path d="M116.684317 111.219623
L116.927174 111.219623
" />
<path d="M115.874794 110.152956
L115.227175 110.152956
" />
<path d="M115.631937 109.619623
L115.631937 110.991052
" />
<path d="M115.631937 110.991052
L115.550984 111.143433
" />
<path d="M115.550984 111.143433
L115.389079 111.219623
" />
<path d="M115.389079 111.219623
L115.227175 111.219623
" />
<path d="M114.660508 111.219623
L114.660508 109.619623
" />
<path d="M113.931936 111.219623
L113.931936 110.381528
" />
<path d="M113.931936 110.381528
L114.012889 110.229147
" />
<path d="M114.012889 110.229147
L114.174793 110.152956
" />
<path d="M114.174793 110.152956
L114.417650 110.152956
" />
<path d="M114.417650 110.152956
L114.579555 110.229147
" />
<path d="M114.579555 110.229147
L114.660508 110.305337
" />
<path d="M112.474794 111.143433
L112.636698 111.219623
" />
<path d="M112.636698 111.219623
L112.960508 111.219623
" />
<path d="M112.960508 111.219623
L113.122413 111.143433
" />
<path d="M113.122413 111.143433
L113.203365 110.991052
" />
<path d="M113.203365 110.991052
L113.203365 110.381528
" />
<path d="M113.203365 110.381528
L113.122413 110.229147
" />
<path d="M113.122413 110.229147
L112.960508 110.152956
" />
<path d="M112.960508 110.152956
L112.636698 110.152956
" />
<path d="M112.636698 110.152956
L112.474794 110.229147
" />
<path d="M112.474794 110.229147
L112.393841 110.381528
" />
<path d="M112.393841 110.381528
L112.393841 110.533909
" />
<path d="M112.393841 110.533909
L113.203365 110.686290
" />
<path d="M111.665270 111.219623
L111.665270 110.152956
" />
<path d="M111.665270 110.457718
L111.584317 110.305337
" />
<path d="M111.584317 110.305337
L111.503365 110.229147
" />
<path d="M111.503365 110.229147
L111.341460 110.152956
" />
<path d="M111.341460 110.152956
L111.179555 110.152956
" />
<path d="M110.612889 111.219623
L110.612889 109.619623
" />
<path d="M110.612889 110.229147
L110.450984 110.152956
" />
<path d="M110.450984 110.152956
L110.127174 110.152956
" />
<path d="M110.127174 110.152956
L109.965270 110.229147
" />
<path d="M109.965270 110.229147
L109.884317 110.305337
" />
<path d="M109.884317 110.305337
L109.803365 110.457718
" />
<path d="M109.803365 110.457718
L109.803365 110.914861
" />
<path d="M109.803365 110.914861
L109.884317 111.067242
" />
<path d="M109.884317 111.067242
L109.965270 111.143433
" />
<path d="M109.965270 111.143433
L110.127174 111.219623
" />
<path d="M110.127174 111.219623
L110.450984 111.219623
" />
<path d="M110.450984 111.219623
L110.612889 111.143433
" />
<path d="M108.831936 111.219623
L108.993841 111.143433
" />
<path d="M108.993841 111.143433
L109.074794 111.067242
" />
<path d="M109.074794 111.067242
L109.155746 110.914861
" />
<path d="M109.155746 110.914861
L109.155746 110.457718
" />
<path d="M109.155746 110.457718
L109.074794 110.305337
" />
<path d="M109.074794 110.305337
L108.993841 110.229147
" />
<path d="M108.993841 110.229147
L108.831936 110.152956
" />
<path d="M108.831936 110.152956
L108.589079 110.152956
" />
<path d="M108.589079 110.152956
L108.427175 110.229147
" />
<path d="M108.427175 110.229147
L108.346222 110.305337
" />
<path d="M108.346222 110.305337
L108.265270 110.457718
" />
<path d="M108.265270 110.457718
L108.265270 110.914861
" />
<path d="M108.265270 110.914861
L108.346222 111.067242
" />
<path d="M108.346222 111.067242
L108.427175 111.143433
" />
<path d="M108.427175 111.143433
L108.589079 111.219623
" />
<path d="M108.589079 111.219623
L108.831936 111.219623
" />
<path d="M106.808127 111.219623
L106.808127 110.381528
" />
<path d="M106.808127 110.381528
L106.889080 110.229147
" />
<path d="M106.889080 110.229147
L107.050984 110.152956
" />
<path d="M107.050984 110.152956
L107.374794 110.152956
" />
<path d="M107.374794 110.152956
L107.536699 110.229147
" />
<path d="M106.808127 111.143433
L106.970032 111.219623
" />
<path d="M106.970032 111.219623
L107.374794 111.219623
" />
<path d="M107.374794 111.219623
L107.536699 111.143433
" />
<path d="M107.536699 111.143433
L107.617651 110.991052
" />
<path d="M107.617651 110.991052
L107.617651 110.838671
" />
<path d="M107.617651 110.838671
L107.536699 110.686290
" />
<path d="M107.536699 110.686290
L107.374794 110.610099
" />
<path d="M107.374794 110.610099
L106.970032 110.610099
" />
<path d="M106.970032 110.610099
L106.808127 110.533909
" />
<path d="M105.998604 111.219623
L105.998604 110.152956
" />
<path d="M105.998604 110.457718
L105.917651 110.305337
" />
<path d="M105.917651 110.305337
L105.836699 110.229147
" />
<path d="M105.836699 110.229147
L105.674794 110.152956
" />
<path d="M105.674794 110.152956
L105.512889 110.152956
" />
<path d="M104.217651 111.219623
L104.217651 109.619623
" />
<path d="M104.217651 111.143433
L104.379556 111.219623
" />
<path d="M104.379556 111.219623
L104.703365 111.219623
" />
<path d="M104.703365 111.219623
L104.865270 111.143433
" />
<path d="M104.865270 111.143433
L104.946223 111.067242
" />
<path d="M104.946223 111.067242
L105.027175 110.914861
" />
<path d="M105.027175 110.914861
L105.027175 110.457718
" />
<path d="M105.027175 110.457718
L104.946223 110.305337
" />
<path d="M104.946223 110.305337
L104.865270 110.229147
" />
<path d="M104.865270 110.229147
L104.703365 110.152956
" />
<path d="M104.703365 110.152956
L104.379556 110.152956
" />
<path d="M104.379556 110.152956
L104.217651 110.229147
" />
</g><text x="144.018000" y="113.865910"
transform="scale(-1 1) translate(-288.036000 0)"
textLength="23.664841" font-size="2.266666" lengthAdjust="spacingAndGlyphs"
text-anchor="start" opacity="0" stroke-opacity="0">2025-05  Rev 10</text>
<g class="stroked-text"><desc>2025-05  Rev 10</desc>
<path d="M143.560506 112.347914
L143.479554 112.271723
" />
<path d="M143.479554 112.271723
L143.317649 112.195533
" />
<path d="M143.317649 112.195533
L142.912887 112.195533
" />
<path d="M142.912887 112.195533
L142.750982 112.271723
" />
<path d="M142.750982 112.271723
L142.670030 112.347914
" />
<path d="M142.670030 112.347914
L142.589077 112.500295
" />
<path d="M142.589077 112.500295
L142.589077 112.652676
" />
<path d="M142.589077 112.652676
L142.670030 112.881247
" />
<path d="M142.670030 112.881247
L143.641458 113.795533
" />
<path d="M143.641458 113.795533
L142.589077 113.795533
" />
<path d="M141.536696 112.195533
L141.374791 112.195533
" />
<path d="M141.374791 112.195533
L141.212887 112.271723
" />
<path d="M141.212887 112.271723
L141.131934 112.347914
" />
<path d="M141.131934 112.347914
L141.050982 112.500295
" />
<path d="M141.050982 112.500295
L140.970029 112.805057
" />
<path d="M140.970029 112.805057
L140.970029 113.186009
" />
<path d="M140.970029 113.186009
L141.050982 113.490771
" />
<path d="M141.050982 113.490771
L141.131934 113.643152
" />
<path d="M141.131934 113.643152
L141.212887 113.719343
" />
<path d="M141.212887 113.719343
L141.374791 113.795533
" />
<path d="M141.374791 113.795533
L141.536696 113.795533
" />
<path d="M141.536696 113.795533
L141.698601 113.719343
" />
<path d="M141.698601 113.719343
L141.779553 113.643152
" />
<path d="M141.779553 113.643152
L141.860506 113.490771
" />
<path d="M141.860506 113.490771
L141.941458 113.186009
" />
<path d="M141.941458 113.186009
L141.941458 112.805057
" />
<path d="M141.941458 112.805057
L141.860506 112.500295
" />
<path d="M141.860506 112.500295
L141.779553 112.347914
" />
<path d="M141.779553 112.347914
L141.698601 112.271723
" />
<path d="M141.698601 112.271723
L141.536696 112.195533
" />
<path d="M140.322410 112.347914
L140.241458 112.271723
" />
<path d="M140.241458 112.271723
L140.079553 112.195533
" />
<path d="M140.079553 112.195533
L139.674791 112.195533
" />
<path d="M139.674791 112.195533
L139.512886 112.271723
" />
<path d="M139.512886 112.271723
L139.431934 112.347914
" />
<path d="M139.431934 112.347914
L139.350981 112.500295
" />
<path d="M139.350981 112.500295
L139.350981 112.652676
" />
<path d="M139.350981 112.652676
L139.431934 112.881247
" />
<path d="M139.431934 112.881247
L140.403362 113.795533
" />
<path d="M140.403362 113.795533
L139.350981 113.795533
" />
<path d="M137.812886 112.195533
L138.622410 112.195533
" />
<path d="M138.622410 112.195533
L138.703362 112.957438
" />
<path d="M138.703362 112.957438
L138.622410 112.881247
" />
<path d="M138.622410 112.881247
L138.460505 112.805057
" />
<path d="M138.460505 112.805057
L138.055743 112.805057
" />
<path d="M138.055743 112.805057
L137.893838 112.881247
" />
<path d="M137.893838 112.881247
L137.812886 112.957438
" />
<path d="M137.812886 112.957438
L137.731933 113.109819
" />
<path d="M137.731933 113.109819
L137.731933 113.490771
" />
<path d="M137.731933 113.490771
L137.812886 113.643152
" />
<path d="M137.812886 113.643152
L137.893838 113.719343
" />
<path d="M137.893838 113.719343
L138.055743 113.795533
" />
<path d="M138.055743 113.795533
L138.460505 113.795533
" />
<path d="M138.460505 113.795533
L138.622410 113.719343
" />
<path d="M138.622410 113.719343
L138.703362 113.643152
" />
<path d="M137.003362 113.186009
L135.708124 113.186009
" />
<path d="M134.574790 112.195533
L134.412885 112.195533
" />
<path d="M134.412885 112.195533
L134.250981 112.271723
" />
<path d="M134.250981 112.271723
L134.170028 112.347914
" />
<path d="M134.170028 112.347914
L134.089076 112.500295
" />
<path d="M134.089076 112.500295
L134.008123 112.805057
" />
<path d="M134.008123 112.805057
L134.008123 113.186009
" />
<path d="M134.008123 113.186009
L134.089076 113.490771
" />
<path d="M134.089076 113.490771
L134.170028 113.643152
" />
<path d="M134.170028 113.643152
L134.250981 113.719343
" />
<path d="M134.250981 113.719343
L134.412885 113.795533
" />
<path d="M134.412885 113.795533
L134.574790 113.795533
" />
<path d="M134.574790 113.795533
L134.736695 113.719343
" />
<path d="M134.736695 113.719343
L134.817647 113.643152
" />
<path d="M134.817647 113.643152
L134.898600 113.490771
" />
<path d="M134.898600 113.490771
L134.979552 113.186009
" />
<path d="M134.979552 113.186009
L134.979552 112.805057
" />
<path d="M134.979552 112.805057
L134.898600 112.500295
" />
<path d="M134.898600 112.500295
L134.817647 112.347914
" />
<path d="M134.817647 112.347914
L134.736695 112.271723
" />
<path d="M134.736695 112.271723
L134.574790 112.195533
" />
<path d="M132.470028 112.195533
L133.279552 112.195533
" />
<path d="M133.279552 112.195533
L133.360504 112.957438
" />
<path d="M133.360504 112.957438
L133.279552 112.881247
" />
<path d="M133.279552 112.881247
L133.117647 112.805057
" />
<path d="M133.117647 112.805057
L132.712885 112.805057
" />
<path d="M132.712885 112.805057
L132.550980 112.881247
" />
<path d="M132.550980 112.881247
L132.470028 112.957438
" />
<path d="M132.470028 112.957438
L132.389075 113.109819
" />
<path d="M132.389075 113.109819
L132.389075 113.490771
" />
<path d="M132.389075 113.490771
L132.470028 113.643152
" />
<path d="M132.470028 113.643152
L132.550980 113.719343
" />
<path d="M132.550980 113.719343
L132.712885 113.795533
" />
<path d="M132.712885 113.795533
L133.117647 113.795533
" />
<path d="M133.117647 113.795533
L133.279552 113.719343
" />
<path d="M133.279552 113.719343
L133.360504 113.643152
" />
<path d="M128.098599 113.795533
L128.665266 113.033628
" />
<path d="M129.070028 113.795533
L129.070028 112.195533
" />
<path d="M129.070028 112.195533
L128.422409 112.195533
" />
<path d="M128.422409 112.195533
L128.260504 112.271723
" />
<path d="M128.260504 112.271723
L128.179551 112.347914
" />
<path d="M128.179551 112.347914
L128.098599 112.500295
" />
<path d="M128.098599 112.500295
L128.098599 112.728866
" />
<path d="M128.098599 112.728866
L128.179551 112.881247
" />
<path d="M128.179551 112.881247
L128.260504 112.957438
" />
<path d="M128.260504 112.957438
L128.422409 113.033628
" />
<path d="M128.422409 113.033628
L129.070028 113.033628
" />
<path d="M126.722409 113.719343
L126.884313 113.795533
" />
<path d="M126.884313 113.795533
L127.208123 113.795533
" />
<path d="M127.208123 113.795533
L127.370028 113.719343
" />
<path d="M127.370028 113.719343
L127.450980 113.566962
" />
<path d="M127.450980 113.566962
L127.450980 112.957438
" />
<path d="M127.450980 112.957438
L127.370028 112.805057
" />
<path d="M127.370028 112.805057
L127.208123 112.728866
" />
<path d="M127.208123 112.728866
L126.884313 112.728866
" />
<path d="M126.884313 112.728866
L126.722409 112.805057
" />
<path d="M126.722409 112.805057
L126.641456 112.957438
" />
<path d="M126.641456 112.957438
L126.641456 113.109819
" />
<path d="M126.641456 113.109819
L127.450980 113.262200
" />
<path d="M126.074789 112.728866
L125.670027 113.795533
" />
<path d="M125.670027 113.795533
L125.265266 112.728866
" />
<path d="M122.431932 113.795533
L123.403361 113.795533
" />
<path d="M122.917647 113.795533
L122.917647 112.195533
" />
<path d="M122.917647 112.195533
L123.079551 112.424104
" />
<path d="M123.079551 112.424104
L123.241456 112.576485
" />
<path d="M123.241456 112.576485
L123.403361 112.652676
" />
<path d="M121.379551 112.195533
L121.217646 112.195533
" />
<path d="M121.217646 112.195533
L121.055742 112.271723
" />
<path d="M121.055742 112.271723
L120.974789 112.347914
" />
<path d="M120.974789 112.347914
L120.893837 112.500295
" />
<path d="M120.893837 112.500295
L120.812884 112.805057
" />
<path d="M120.812884 112.805057
L120.812884 113.186009
" />
<path d="M120.812884 113.186009
L120.893837 113.490771
" />
<path d="M120.893837 113.490771
L120.974789 113.643152
" />
<path d="M120.974789 113.643152
L121.055742 113.719343
" />
<path d="M121.055742 113.719343
L121.217646 113.795533
" />
<path d="M121.217646 113.795533
L121.379551 113.795533
" />
<path d="M121.379551 113.795533
L121.541456 113.719343
" />
<path d="M121.541456 113.719343
L121.622408 113.643152
" />
<path d="M121.622408 113.643152
L121.703361 113.490771
" />
<path d="M121.703361 113.490771
L121.784313 113.186009
" />
<path d="M121.784313 113.186009
L121.784313 112.805057
" />
<path d="M121.784313 112.805057
L121.703361 112.500295
" />
<path d="M121.703361 112.500295
L121.622408 112.347914
" />
<path d="M121.622408 112.347914
L121.541456 112.271723
" />
<path d="M121.541456 112.271723
L121.379551 112.195533
" />
</g></g>
<g style="fill:none; 
stroke:#000000; stroke-width:0.150000; stroke-opacity:1; 
stroke-linecap:round; stroke-linejoin:round;">
<text x="75.438000" y="117.094000"
transform="scale(-1 1) translate(-150.876000 0)"
textLength="7.964287" font-size="1.333333" lengthAdjust="spacingAndGlyphs"
text-anchor="start" opacity="0" stroke-opacity="0">Channel 1</text>
<g class="stroked-text"><desc>Channel 1</desc>
<path d="M74.529792 116.868580
L74.577411 116.916200
" />
<path d="M74.577411 116.916200
L74.720268 116.963819
" />
<path d="M74.720268 116.963819
L74.815506 116.963819
" />
<path d="M74.815506 116.963819
L74.958363 116.916200
" />
<path d="M74.958363 116.916200
L75.053601 116.820961
" />
<path d="M75.053601 116.820961
L75.101220 116.725723
" />
<path d="M75.101220 116.725723
L75.148839 116.535247
" />
<path d="M75.148839 116.535247
L75.148839 116.392390
" />
<path d="M75.148839 116.392390
L75.101220 116.201914
" />
<path d="M75.101220 116.201914
L75.053601 116.106676
" />
<path d="M75.053601 116.106676
L74.958363 116.011438
" />
<path d="M74.958363 116.011438
L74.815506 115.963819
" />
<path d="M74.815506 115.963819
L74.720268 115.963819
" />
<path d="M74.720268 115.963819
L74.577411 116.011438
" />
<path d="M74.577411 116.011438
L74.529792 116.059057
" />
<path d="M74.101220 116.963819
L74.101220 115.963819
" />
<path d="M73.672649 116.963819
L73.672649 116.440009
" />
<path d="M73.672649 116.440009
L73.720268 116.344771
" />
<path d="M73.720268 116.344771
L73.815506 116.297152
" />
<path d="M73.815506 116.297152
L73.958363 116.297152
" />
<path d="M73.958363 116.297152
L74.053601 116.344771
" />
<path d="M74.053601 116.344771
L74.101220 116.392390
" />
<path d="M72.767887 116.963819
L72.767887 116.440009
" />
<path d="M72.767887 116.440009
L72.815506 116.344771
" />
<path d="M72.815506 116.344771
L72.910744 116.297152
" />
<path d="M72.910744 116.297152
L73.101220 116.297152
" />
<path d="M73.101220 116.297152
L73.196458 116.344771
" />
<path d="M72.767887 116.916200
L72.863125 116.963819
" />
<path d="M72.863125 116.963819
L73.101220 116.963819
" />
<path d="M73.101220 116.963819
L73.196458 116.916200
" />
<path d="M73.196458 116.916200
L73.244077 116.820961
" />
<path d="M73.244077 116.820961
L73.244077 116.725723
" />
<path d="M73.244077 116.725723
L73.196458 116.630485
" />
<path d="M73.196458 116.630485
L73.101220 116.582866
" />
<path d="M73.101220 116.582866
L72.863125 116.582866
" />
<path d="M72.863125 116.582866
L72.767887 116.535247
" />
<path d="M72.291696 116.297152
L72.291696 116.963819
" />
<path d="M72.291696 116.392390
L72.244077 116.344771
" />
<path d="M72.244077 116.344771
L72.148839 116.297152
" />
<path d="M72.148839 116.297152
L72.005982 116.297152
" />
<path d="M72.005982 116.297152
L71.910744 116.344771
" />
<path d="M71.910744 116.344771
L71.863125 116.440009
" />
<path d="M71.863125 116.440009
L71.863125 116.963819
" />
<path d="M71.386934 116.297152
L71.386934 116.963819
" />
<path d="M71.386934 116.392390
L71.339315 116.344771
" />
<path d="M71.339315 116.344771
L71.244077 116.297152
" />
<path d="M71.244077 116.297152
L71.101220 116.297152
" />
<path d="M71.101220 116.297152
L71.005982 116.344771
" />
<path d="M71.005982 116.344771
L70.958363 116.440009
" />
<path d="M70.958363 116.440009
L70.958363 116.963819
" />
<path d="M70.101220 116.916200
L70.196458 116.963819
" />
<path d="M70.196458 116.963819
L70.386934 116.963819
" />
<path d="M70.386934 116.963819
L70.482172 116.916200
" />
<path d="M70.482172 116.916200
L70.529791 116.820961
" />
<path d="M70.529791 116.820961
L70.529791 116.440009
" />
<path d="M70.529791 116.440009
L70.482172 116.344771
" />
<path d="M70.482172 116.344771
L70.386934 116.297152
" />
<path d="M70.386934 116.297152
L70.196458 116.297152
" />
<path d="M70.196458 116.297152
L70.101220 116.344771
" />
<path d="M70.101220 116.344771
L70.053601 116.440009
" />
<path d="M70.053601 116.440009
L70.053601 116.535247
" />
<path d="M70.053601 116.535247
L70.529791 116.630485
" />
<path d="M69.482172 116.963819
L69.577410 116.916200
" />
<path d="M69.577410 116.916200
L69.625029 116.820961
" />
<path d="M69.625029 116.820961
L69.625029 115.963819
" />
<path d="M67.815505 116.963819
L68.386933 116.963819
" />
<path d="M68.101219 116.963819
L68.101219 115.963819
" />
<path d="M68.101219 115.963819
L68.196457 116.106676
" />
<path d="M68.196457 116.106676
L68.291695 116.201914
" />
<path d="M68.291695 116.201914
L68.386933 116.249533
" />
</g><g transform="rotate(-90.000000 137.000000 144.000000)">
<text x="137.000000" y="144.500000"
transform="scale(-1 1) translate(-274.000000 0)"
textLength="1.250000" font-size="1.333333" lengthAdjust="spacingAndGlyphs"
text-anchor="middle" opacity="0" stroke-opacity="0">K</text>
</g>
<g class="stroked-text"><desc>K</desc>
<path d="M137.454819 143.738095
L136.454819 143.738095
" />
<path d="M137.454819 144.309523
L136.883390 143.880952
" />
<path d="M136.454819 144.309523
L137.026247 143.738095
" />
</g><g transform="rotate(-90.000000 121.000000 144.000000)">
<text x="121.000000" y="144.500000"
transform="scale(-1 1) translate(-242.000000 0)"
textLength="1.107143" font-size="1.333333" lengthAdjust="spacingAndGlyphs"
text-anchor="middle" opacity="0" stroke-opacity="0">A</text>
</g>
<g class="stroked-text"><desc>A</desc>
<path d="M121.169104 143.761905
L121.169104 144.238095
" />
<path d="M121.454819 143.666667
L120.454819 144.000000
" />
<path d="M120.454819 144.000000
L121.454819 144.333333
" />
</g><g transform="rotate(-90.000000 136.500000 56.000000)">
<text x="136.500000" y="56.500000"
transform="scale(-1 1) translate(-273.000000 0)"
textLength="1.250000" font-size="1.333333" lengthAdjust="spacingAndGlyphs"
text-anchor="middle" opacity="0" stroke-opacity="0">K</text>
</g>
<g class="stroked-text"><desc>K</desc>
<path d="M136.954819 55.738095
L135.954819 55.738095
" />
<path d="M136.954819 56.309523
L136.383390 55.880952
" />
<path d="M135.954819 56.309523
L136.526247 55.738095
" />
</g><text x="76.835000" y="61.968000"
transform="scale(-1 1) translate(-153.670000 0)"
textLength="2.202381" font-size="1.333333" lengthAdjust="spacingAndGlyphs"
text-anchor="middle" opacity="0" stroke-opacity="0">C4</text>
<g class="stroked-text"><desc>C4</desc>
<path d="M77.001666 61.827580
L77.049285 61.875200
" />
<path d="M77.049285 61.875200
L77.192142 61.922819
" />
<path d="M77.192142 61.922819
L77.287380 61.922819
" />
<path d="M77.287380 61.922819
L77.430237 61.875200
" />
<path d="M77.430237 61.875200
L77.525475 61.779961
" />
<path d="M77.525475 61.779961
L77.573094 61.684723
" />
<path d="M77.573094 61.684723
L77.620713 61.494247
" />
<path d="M77.620713 61.494247
L77.620713 61.351390
" />
<path d="M77.620713 61.351390
L77.573094 61.160914
" />
<path d="M77.573094 61.160914
L77.525475 61.065676
" />
<path d="M77.525475 61.065676
L77.430237 60.970438
" />
<path d="M77.430237 60.970438
L77.287380 60.922819
" />
<path d="M77.287380 60.922819
L77.192142 60.922819
" />
<path d="M77.192142 60.922819
L77.049285 60.970438
" />
<path d="M77.049285 60.970438
L77.001666 61.018057
" />
<path d="M76.144523 61.256152
L76.144523 61.922819
" />
<path d="M76.382618 60.875200
L76.620713 61.589485
" />
<path d="M76.620713 61.589485
L76.001666 61.589485
" />
</g><text x="133.604000" y="61.460000"
transform="scale(-1 1) translate(-267.208000 0)"
textLength="2.202381" font-size="1.333333" lengthAdjust="spacingAndGlyphs"
text-anchor="middle" opacity="0" stroke-opacity="0">C3</text>
<g class="stroked-text"><desc>C3</desc>
<path d="M133.770666 61.319580
L133.818285 61.367200
" />
<path d="M133.818285 61.367200
L133.961142 61.414819
" />
<path d="M133.961142 61.414819
L134.056380 61.414819
" />
<path d="M134.056380 61.414819
L134.199237 61.367200
" />
<path d="M134.199237 61.367200
L134.294475 61.271961
" />
<path d="M134.294475 61.271961
L134.342094 61.176723
" />
<path d="M134.342094 61.176723
L134.389713 60.986247
" />
<path d="M134.389713 60.986247
L134.389713 60.843390
" />
<path d="M134.389713 60.843390
L134.342094 60.652914
" />
<path d="M134.342094 60.652914
L134.294475 60.557676
" />
<path d="M134.294475 60.557676
L134.199237 60.462438
" />
<path d="M134.199237 60.462438
L134.056380 60.414819
" />
<path d="M134.056380 60.414819
L133.961142 60.414819
" />
<path d="M133.961142 60.414819
L133.818285 60.462438
" />
<path d="M133.818285 60.462438
L133.770666 60.510057
" />
<path d="M133.437332 60.414819
L132.818285 60.414819
" />
<path d="M132.818285 60.414819
L133.151618 60.795771
" />
<path d="M133.151618 60.795771
L133.008761 60.795771
" />
<path d="M133.008761 60.795771
L132.913523 60.843390
" />
<path d="M132.913523 60.843390
L132.865904 60.891009
" />
<path d="M132.865904 60.891009
L132.818285 60.986247
" />
<path d="M132.818285 60.986247
L132.818285 61.224342
" />
<path d="M132.818285 61.224342
L132.865904 61.319580
" />
<path d="M132.865904 61.319580
L132.913523 61.367200
" />
<path d="M132.913523 61.367200
L133.008761 61.414819
" />
<path d="M133.008761 61.414819
L133.294475 61.414819
" />
<path d="M133.294475 61.414819
L133.389713 61.367200
" />
<path d="M133.389713 61.367200
L133.437332 61.319580
" />
</g><text x="132.080000" y="132.072000"
transform="scale(-1 1) translate(-264.160000 0)"
textLength="2.202381" font-size="1.333333" lengthAdjust="spacingAndGlyphs"
text-anchor="middle" opacity="0" stroke-opacity="0">C1</text>
<g class="stroked-text"><desc>C1</desc>
<path d="M132.246666 131.931580
L132.294285 131.979200
" />
<path d="M132.294285 131.979200
L132.437142 132.026819
" />
<path d="M132.437142 132.026819
L132.532380 132.026819
" />
<path d="M132.532380 132.026819
L132.675237 131.979200
" />
<path d="M132.675237 131.979200
L132.770475 131.883961
" />
<path d="M132.770475 131.883961
L132.818094 131.788723
" />
<path d="M132.818094 131.788723
L132.865713 131.598247
" />
<path d="M132.865713 131.598247
L132.865713 131.455390
" />
<path d="M132.865713 131.455390
L132.818094 131.264914
" />
<path d="M132.818094 131.264914
L132.770475 131.169676
" />
<path d="M132.770475 131.169676
L132.675237 131.074438
" />
<path d="M132.675237 131.074438
L132.532380 131.026819
" />
<path d="M132.532380 131.026819
L132.437142 131.026819
" />
<path d="M132.437142 131.026819
L132.294285 131.074438
" />
<path d="M132.294285 131.074438
L132.246666 131.122057
" />
<path d="M131.294285 132.026819
L131.865713 132.026819
" />
<path d="M131.579999 132.026819
L131.579999 131.026819
" />
<path d="M131.579999 131.026819
L131.675237 131.169676
" />
<path d="M131.675237 131.169676
L131.770475 131.264914
" />
<path d="M131.770475 131.264914
L131.865713 131.312533
" />
</g><text x="75.692000" y="133.088000"
transform="scale(-1 1) translate(-151.384000 0)"
textLength="2.202381" font-size="1.333333" lengthAdjust="spacingAndGlyphs"
text-anchor="middle" opacity="0" stroke-opacity="0">C2</text>
<g class="stroked-text"><desc>C2</desc>
<path d="M75.858666 132.947580
L75.906285 132.995200
" />
<path d="M75.906285 132.995200
L76.049142 133.042819
" />
<path d="M76.049142 133.042819
L76.144380 133.042819
" />
<path d="M76.144380 133.042819
L76.287237 132.995200
" />
<path d="M76.287237 132.995200
L76.382475 132.899961
" />
<path d="M76.382475 132.899961
L76.430094 132.804723
" />
<path d="M76.430094 132.804723
L76.477713 132.614247
" />
<path d="M76.477713 132.614247
L76.477713 132.471390
" />
<path d="M76.477713 132.471390
L76.430094 132.280914
" />
<path d="M76.430094 132.280914
L76.382475 132.185676
" />
<path d="M76.382475 132.185676
L76.287237 132.090438
" />
<path d="M76.287237 132.090438
L76.144380 132.042819
" />
<path d="M76.144380 132.042819
L76.049142 132.042819
" />
<path d="M76.049142 132.042819
L75.906285 132.090438
" />
<path d="M75.906285 132.090438
L75.858666 132.138057
" />
<path d="M75.477713 132.138057
L75.430094 132.090438
" />
<path d="M75.430094 132.090438
L75.334856 132.042819
" />
<path d="M75.334856 132.042819
L75.096761 132.042819
" />
<path d="M75.096761 132.042819
L75.001523 132.090438
" />
<path d="M75.001523 132.090438
L74.953904 132.138057
" />
<path d="M74.953904 132.138057
L74.906285 132.233295
" />
<path d="M74.906285 132.233295
L74.906285 132.328533
" />
<path d="M74.906285 132.328533
L74.953904 132.471390
" />
<path d="M74.953904 132.471390
L75.525332 133.042819
" />
<path d="M75.525332 133.042819
L74.906285 133.042819
" />
</g></g>
<g style="fill:none; 
stroke:#000000; stroke-width:0.100000; stroke-opacity:1; 
stroke-linecap:round; stroke-linejoin:round;">
<g transform="rotate(-270.000000 67.818000 123.190000)">
<text x="67.818000" y="123.690000"
transform="scale(-1 1) translate(-135.636000 0)"
textLength="3.147619" font-size="1.333333" lengthAdjust="spacingAndGlyphs"
text-anchor="middle" opacity="0" stroke-opacity="0">SW1</text>
</g>
<g class="stroked-text"><desc>SW1</desc>
<path d="M67.408200 124.523332
L67.360580 124.380475
" />
<path d="M67.360580 124.380475
L67.360580 124.142380
" />
<path d="M67.360580 124.142380
L67.408200 124.047142
" />
<path d="M67.408200 124.047142
L67.455819 123.999523
" />
<path d="M67.455819 123.999523
L67.551057 123.951904
" />
<path d="M67.551057 123.951904
L67.646295 123.951904
" />
<path d="M67.646295 123.951904
L67.741533 123.999523
" />
<path d="M67.741533 123.999523
L67.789152 124.047142
" />
<path d="M67.789152 124.047142
L67.836771 124.142380
" />
<path d="M67.836771 124.142380
L67.884390 124.332856
" />
<path d="M67.884390 124.332856
L67.932009 124.428094
" />
<path d="M67.932009 124.428094
L67.979628 124.475713
" />
<path d="M67.979628 124.475713
L68.074866 124.523332
" />
<path d="M68.074866 124.523332
L68.170104 124.523332
" />
<path d="M68.170104 124.523332
L68.265342 124.475713
" />
<path d="M68.265342 124.475713
L68.312961 124.428094
" />
<path d="M68.312961 124.428094
L68.360580 124.332856
" />
<path d="M68.360580 124.332856
L68.360580 124.094761
" />
<path d="M68.360580 124.094761
L68.312961 123.951904
" />
<path d="M68.360580 123.618570
L67.360580 123.380475
" />
<path d="M67.360580 123.380475
L68.074866 123.189999
" />
<path d="M68.074866 123.189999
L67.360580 122.999523
" />
<path d="M67.360580 122.999523
L68.360580 122.761428
" />
<path d="M67.360580 121.856666
L67.360580 122.428094
" />
<path d="M67.360580 122.142380
L68.360580 122.142380
" />
<path d="M68.360580 122.142380
L68.217723 122.237618
" />
<path d="M68.217723 122.237618
L68.122485 122.332856
" />
<path d="M68.122485 122.332856
L68.074866 122.428094
" />
</g><text x="67.714000" y="135.826000"
transform="scale(-1 1) translate(-135.428000 0)"
textLength="2.004762" font-size="1.333333" lengthAdjust="spacingAndGlyphs"
text-anchor="start" opacity="0" stroke-opacity="0">NA</text>
<g class="stroked-text"><desc>NA</desc>
<path d="M67.410115 135.698419
L67.410115 134.698419
" />
<path d="M67.410115 134.698419
L66.838687 135.698419
" />
<path d="M66.838687 135.698419
L66.838687 134.698419
" />
<path d="M66.410115 135.412704
L65.933925 135.412704
" />
<path d="M66.505353 135.698419
L66.172020 134.698419
" />
<path d="M66.172020 134.698419
L65.838687 135.698419
" />
</g><text x="67.564000" y="138.176000"
transform="scale(-1 1) translate(-135.128000 0)"
textLength="0.957143" font-size="1.333333" lengthAdjust="spacingAndGlyphs"
text-anchor="start" opacity="0" stroke-opacity="0">A</text>
<g class="stroked-text"><desc>A</desc>
<path d="M67.307734 137.762704
L66.831544 137.762704
" />
<path d="M67.402972 138.048419
L67.069639 137.048419
" />
<path d="M67.069639 137.048419
L66.736306 138.048419
" />
</g><g transform="rotate(-270.000000 69.596000 68.072000)">
<text x="69.596000" y="68.572000"
transform="scale(-1 1) translate(-139.192000 0)"
textLength="3.147619" font-size="1.333333" lengthAdjust="spacingAndGlyphs"
text-anchor="middle" opacity="0" stroke-opacity="0">SW2</text>
</g>
<g class="stroked-text"><desc>SW2</desc>
<path d="M69.186200 69.405332
L69.138580 69.262475
" />
<path d="M69.138580 69.262475
L69.138580 69.024380
" />
<path d="M69.138580 69.024380
L69.186200 68.929142
" />
<path d="M69.186200 68.929142
L69.233819 68.881523
" />
<path d="M69.233819 68.881523
L69.329057 68.833904
" />
<path d="M69.329057 68.833904
L69.424295 68.833904
" />
<path d="M69.424295 68.833904
L69.519533 68.881523
" />
<path d="M69.519533 68.881523
L69.567152 68.929142
" />
<path d="M69.567152 68.929142
L69.614771 69.024380
" />
<path d="M69.614771 69.024380
L69.662390 69.214856
" />
<path d="M69.662390 69.214856
L69.710009 69.310094
" />
<path d="M69.710009 69.310094
L69.757628 69.357713
" />
<path d="M69.757628 69.357713
L69.852866 69.405332
" />
<path d="M69.852866 69.405332
L69.948104 69.405332
" />
<path d="M69.948104 69.405332
L70.043342 69.357713
" />
<path d="M70.043342 69.357713
L70.090961 69.310094
" />
<path d="M70.090961 69.310094
L70.138580 69.214856
" />
<path d="M70.138580 69.214856
L70.138580 68.976761
" />
<path d="M70.138580 68.976761
L70.090961 68.833904
" />
<path d="M70.138580 68.500570
L69.138580 68.262475
" />
<path d="M69.138580 68.262475
L69.852866 68.071999
" />
<path d="M69.852866 68.071999
L69.138580 67.881523
" />
<path d="M69.138580 67.881523
L70.138580 67.643428
" />
<path d="M70.043342 67.310094
L70.090961 67.262475
" />
<path d="M70.090961 67.262475
L70.138580 67.167237
" />
<path d="M70.138580 67.167237
L70.138580 66.929142
" />
<path d="M70.138580 66.929142
L70.090961 66.833904
" />
<path d="M70.090961 66.833904
L70.043342 66.786285
" />
<path d="M70.043342 66.786285
L69.948104 66.738666
" />
<path d="M69.948104 66.738666
L69.852866 66.738666
" />
<path d="M69.852866 66.738666
L69.710009 66.786285
" />
<path d="M69.710009 66.786285
L69.138580 67.357713
" />
<path d="M69.138580 67.357713
L69.138580 66.738666
" />
</g><text x="69.342000" y="82.804000"
transform="scale(-1 1) translate(-138.684000 0)"
textLength="0.957143" font-size="1.333333" lengthAdjust="spacingAndGlyphs"
text-anchor="start" opacity="0" stroke-opacity="0">A</text>
<g class="stroked-text"><desc>A</desc>
<path d="M69.085734 82.390704
L68.609544 82.390704
" />
<path d="M69.180972 82.676419
L68.847639 81.676419
" />
<path d="M68.847639 81.676419
L68.514306 82.676419
" />
</g><text x="69.492000" y="80.454000"
transform="scale(-1 1) translate(-138.984000 0)"
textLength="2.004762" font-size="1.333333" lengthAdjust="spacingAndGlyphs"
text-anchor="start" opacity="0" stroke-opacity="0">NA</text>
<g class="stroked-text"><desc>NA</desc>
<path d="M69.188115 80.326419
L69.188115 79.326419
" />
<path d="M69.188115 79.326419
L68.616687 80.326419
" />
<path d="M68.616687 80.326419
L68.616687 79.326419
" />
<path d="M68.188115 80.040704
L67.711925 80.040704
" />
<path d="M68.283353 80.326419
L67.950020 79.326419
" />
<path d="M67.950020 79.326419
L67.616687 80.326419
" />
</g><g transform="rotate(-270.000000 89.300000 118.875000)">
<text x="89.300000" y="119.375000"
transform="scale(-1 1) translate(-178.600000 0)"
textLength="2.766667" font-size="1.333333" lengthAdjust="spacingAndGlyphs"
text-anchor="middle" opacity="0" stroke-opacity="0">J21</text>
</g>
<g class="stroked-text"><desc>J21</desc>
<path d="M89.842580 119.684523
L89.128295 119.684523
" />
<path d="M89.128295 119.684523
L88.985438 119.732142
" />
<path d="M88.985438 119.732142
L88.890200 119.827380
" />
<path d="M88.890200 119.827380
L88.842580 119.970237
" />
<path d="M88.842580 119.970237
L88.842580 120.065475
" />
<path d="M89.747342 119.255951
L89.794961 119.208332
" />
<path d="M89.794961 119.208332
L89.842580 119.113094
" />
<path d="M89.842580 119.113094
L89.842580 118.874999
" />
<path d="M89.842580 118.874999
L89.794961 118.779761
" />
<path d="M89.794961 118.779761
L89.747342 118.732142
" />
<path d="M89.747342 118.732142
L89.652104 118.684523
" />
<path d="M89.652104 118.684523
L89.556866 118.684523
" />
<path d="M89.556866 118.684523
L89.414009 118.732142
" />
<path d="M89.414009 118.732142
L88.842580 119.303570
" />
<path d="M88.842580 119.303570
L88.842580 118.684523
" />
<path d="M88.842580 117.732142
L88.842580 118.303570
" />
<path d="M88.842580 118.017856
L89.842580 118.017856
" />
<path d="M89.842580 118.017856
L89.699723 118.113094
" />
<path d="M89.699723 118.113094
L89.604485 118.208332
" />
<path d="M89.604485 118.208332
L89.556866 118.303570
" />
</g><g transform="rotate(-270.000000 123.190000 123.444000)">
<text x="123.190000" y="123.944000"
transform="scale(-1 1) translate(-246.380000 0)"
textLength="3.147619" font-size="1.333333" lengthAdjust="spacingAndGlyphs"
text-anchor="middle" opacity="0" stroke-opacity="0">SW3</text>
</g>
<g class="stroked-text"><desc>SW3</desc>
<path d="M122.780200 124.777332
L122.732580 124.634475
" />
<path d="M122.732580 124.634475
L122.732580 124.396380
" />
<path d="M122.732580 124.396380
L122.780200 124.301142
" />
<path d="M122.780200 124.301142
L122.827819 124.253523
" />
<path d="M122.827819 124.253523
L122.923057 124.205904
" />
<path d="M122.923057 124.205904
L123.018295 124.205904
" />
<path d="M123.018295 124.205904
L123.113533 124.253523
" />
<path d="M123.113533 124.253523
L123.161152 124.301142
" />
<path d="M123.161152 124.301142
L123.208771 124.396380
" />
<path d="M123.208771 124.396380
L123.256390 124.586856
" />
<path d="M123.256390 124.586856
L123.304009 124.682094
" />
<path d="M123.304009 124.682094
L123.351628 124.729713
" />
<path d="M123.351628 124.729713
L123.446866 124.777332
" />
<path d="M123.446866 124.777332
L123.542104 124.777332
" />
<path d="M123.542104 124.777332
L123.637342 124.729713
" />
<path d="M123.637342 124.729713
L123.684961 124.682094
" />
<path d="M123.684961 124.682094
L123.732580 124.586856
" />
<path d="M123.732580 124.586856
L123.732580 124.348761
" />
<path d="M123.732580 124.348761
L123.684961 124.205904
" />
<path d="M123.732580 123.872570
L122.732580 123.634475
" />
<path d="M122.732580 123.634475
L123.446866 123.443999
" />
<path d="M123.446866 123.443999
L122.732580 123.253523
" />
<path d="M122.732580 123.253523
L123.732580 123.015428
" />
<path d="M123.732580 122.729713
L123.732580 122.110666
" />
<path d="M123.732580 122.110666
L123.351628 122.443999
" />
<path d="M123.351628 122.443999
L123.351628 122.301142
" />
<path d="M123.351628 122.301142
L123.304009 122.205904
" />
<path d="M123.304009 122.205904
L123.256390 122.158285
" />
<path d="M123.256390 122.158285
L123.161152 122.110666
" />
<path d="M123.161152 122.110666
L122.923057 122.110666
" />
<path d="M122.923057 122.110666
L122.827819 122.158285
" />
<path d="M122.827819 122.158285
L122.780200 122.205904
" />
<path d="M122.780200 122.205904
L122.732580 122.301142
" />
<path d="M122.732580 122.301142
L122.732580 122.586856
" />
<path d="M122.732580 122.586856
L122.780200 122.682094
" />
<path d="M122.780200 122.682094
L122.827819 122.729713
" />
</g><text x="122.578000" y="135.572000"
transform="scale(-1 1) translate(-245.156000 0)"
textLength="2.004762" font-size="1.333333" lengthAdjust="spacingAndGlyphs"
text-anchor="start" opacity="0" stroke-opacity="0">NA</text>
<g class="stroked-text"><desc>NA</desc>
<path d="M122.274115 135.444419
L122.274115 134.444419
" />
<path d="M122.274115 134.444419
L121.702687 135.444419
" />
<path d="M121.702687 135.444419
L121.702687 134.444419
" />
<path d="M121.274115 135.158704
L120.797925 135.158704
" />
<path d="M121.369353 135.444419
L121.036020 134.444419
" />
<path d="M121.036020 134.444419
L120.702687 135.444419
" />
</g><text x="122.428000" y="137.922000"
transform="scale(-1 1) translate(-244.856000 0)"
textLength="0.957143" font-size="1.333333" lengthAdjust="spacingAndGlyphs"
text-anchor="start" opacity="0" stroke-opacity="0">A</text>
<g class="stroked-text"><desc>A</desc>
<path d="M122.171734 137.508704
L121.695544 137.508704
" />
<path d="M122.266972 137.794419
L121.933639 136.794419
" />
<path d="M121.933639 136.794419
L121.600306 137.794419
" />
</g><g transform="rotate(-270.000000 125.730000 67.564000)">
<text x="125.730000" y="68.064000"
transform="scale(-1 1) translate(-251.460000 0)"
textLength="3.147619" font-size="1.333333" lengthAdjust="spacingAndGlyphs"
text-anchor="middle" opacity="0" stroke-opacity="0">SW4</text>
</g>
<g class="stroked-text"><desc>SW4</desc>
<path d="M125.320200 68.897332
L125.272580 68.754475
" />
<path d="M125.272580 68.754475
L125.272580 68.516380
" />
<path d="M125.272580 68.516380
L125.320200 68.421142
" />
<path d="M125.320200 68.421142
L125.367819 68.373523
" />
<path d="M125.367819 68.373523
L125.463057 68.325904
" />
<path d="M125.463057 68.325904
L125.558295 68.325904
" />
<path d="M125.558295 68.325904
L125.653533 68.373523
" />
<path d="M125.653533 68.373523
L125.701152 68.421142
" />
<path d="M125.701152 68.421142
L125.748771 68.516380
" />
<path d="M125.748771 68.516380
L125.796390 68.706856
" />
<path d="M125.796390 68.706856
L125.844009 68.802094
" />
<path d="M125.844009 68.802094
L125.891628 68.849713
" />
<path d="M125.891628 68.849713
L125.986866 68.897332
" />
<path d="M125.986866 68.897332
L126.082104 68.897332
" />
<path d="M126.082104 68.897332
L126.177342 68.849713
" />
<path d="M126.177342 68.849713
L126.224961 68.802094
" />
<path d="M126.224961 68.802094
L126.272580 68.706856
" />
<path d="M126.272580 68.706856
L126.272580 68.468761
" />
<path d="M126.272580 68.468761
L126.224961 68.325904
" />
<path d="M126.272580 67.992570
L125.272580 67.754475
" />
<path d="M125.272580 67.754475
L125.986866 67.563999
" />
<path d="M125.986866 67.563999
L125.272580 67.373523
" />
<path d="M125.272580 67.373523
L126.272580 67.135428
" />
<path d="M125.939247 66.325904
L125.272580 66.325904
" />
<path d="M126.320200 66.563999
L125.605914 66.802094
" />
<path d="M125.605914 66.802094
L125.605914 66.183047
" />
</g><text x="125.626000" y="80.454000"
transform="scale(-1 1) translate(-251.252000 0)"
textLength="2.004762" font-size="1.333333" lengthAdjust="spacingAndGlyphs"
text-anchor="start" opacity="0" stroke-opacity="0">NA</text>
<g class="stroked-text"><desc>NA</desc>
<path d="M125.322115 80.326419
L125.322115 79.326419
" />
<path d="M125.322115 79.326419
L124.750687 80.326419
" />
<path d="M124.750687 80.326419
L124.750687 79.326419
" />
<path d="M124.322115 80.040704
L123.845925 80.040704
" />
<path d="M124.417353 80.326419
L124.084020 79.326419
" />
<path d="M124.084020 79.326419
L123.750687 80.326419
" />
</g><text x="125.476000" y="82.804000"
transform="scale(-1 1) translate(-250.952000 0)"
textLength="0.957143" font-size="1.333333" lengthAdjust="spacingAndGlyphs"
text-anchor="start" opacity="0" stroke-opacity="0">A</text>
<g class="stroked-text"><desc>A</desc>
<path d="M125.219734 82.390704
L124.743544 82.390704
" />
<path d="M125.314972 82.676419
L124.981639 81.676419
" />
<path d="M124.981639 81.676419
L124.648306 82.676419
" />
</g></g>
<g style="fill:none; 
stroke:#000000; stroke-width:0.120000; stroke-opacity:1; 
stroke-linecap:round; stroke-linejoin:round;">
<path d="M77.546252 62.882500
L76.123748 62.882500
" />
<path d="M77.546252 64.702500
L76.123748 64.702500
" />
<path d="M133.718752 62.590000
L132.296248 62.590000
" />
<path d="M133.718752 64.410000
L132.296248 64.410000
" />
<path d="M133.337752 134.980000
L131.915248 134.980000
" />
<path d="M133.337752 136.800000
L131.915248 136.800000
" />
<path d="M76.911252 135.615000
L75.488748 135.615000
" />
<path d="M76.911252 137.435000
L75.488748 137.435000
" />
</g>
<g style="fill:none; 
stroke:#000000; stroke-width:0.100000; stroke-opacity:1; 
stroke-linecap:round; stroke-linejoin:round;">
<path d="M68.682000 134.652000
L69.482000 135.402000
" />
<path d="M69.482000 137.202000
L68.582000 138.052000
" />
<path style="fill:none; 
stroke:#000000; stroke-width:0.100000; stroke-opacity:1; 
stroke-linecap:round; stroke-linejoin:round;fill:none"
d="M 71.132000,132.302000
64.432000,132.302000
64.432000,125.702000
71.132000,125.702000
Z" /> 
</g>
<g style="fill:none; 
stroke:#000000; stroke-width:0.120000; stroke-opacity:1; 
stroke-linecap:round; stroke-linejoin:round;">
<path d="M136.440000 144.870000
L136.440000 144.470000
" />
<path d="M140.140000 144.470000
L140.140000 144.870000
" />
</g>
<g style="fill:none; 
stroke:#000000; stroke-width:0.100000; stroke-opacity:1; 
stroke-linecap:round; stroke-linejoin:round;">
<path d="M70.750000 79.310000
L71.550000 80.060000
" />
<path d="M71.550000 81.860000
L70.650000 82.710000
" />
<path style="fill:none; 
stroke:#000000; stroke-width:0.100000; stroke-opacity:1; 
stroke-linecap:round; stroke-linejoin:round;fill:none"
d="M 73.200000,76.960000
66.500000,76.960000
66.500000,70.360000
73.200000,70.360000
Z" /> 
<path style="fill:none; 
stroke:#000000; stroke-width:0.100000; stroke-opacity:1; 
stroke-linecap:round; stroke-linejoin:round;fill:none"
d="M 90.650000,126.875000
107.350000,126.875000
107.350000,110.875000
90.650000,110.875000
Z" /> 
</g>
<g style="fill:none; 
stroke:#000000; stroke-width:0.120000; stroke-opacity:1; 
stroke-linecap:round; stroke-linejoin:round;">
<path d="M59.650000 144.910000
L59.650000 144.510000
" />
<path d="M63.350000 144.510000
L63.350000 144.910000
" />
<path d="M136.150000 55.990000
L136.150000 55.590000
" />
<path d="M139.850000 55.590000
L139.850000 55.990000
" />
<path d="M115.150000 144.870000
L115.150000 144.470000
" />
<path d="M118.850000 144.470000
L118.850000 144.870000
" />
<path d="M81.150000 55.870000
L81.150000 55.470000
" />
<path d="M84.850000 55.470000
L84.850000 55.870000
" />
</g>
<g style="fill:none; 
stroke:#000000; stroke-width:0.100000; stroke-opacity:1; 
stroke-linecap:round; stroke-linejoin:round;">
<path d="M123.800000 134.682000
L124.600000 135.432000
" />
<path d="M124.600000 137.232000
L123.700000 138.082000
" />
<path style="fill:none; 
stroke:#000000; stroke-width:0.100000; stroke-opacity:1; 
stroke-linecap:round; stroke-linejoin:round;fill:none"
d="M 126.250000,132.332000
119.550000,132.332000
119.550000,125.732000
126.250000,125.732000
Z" /> 
</g>
<g style="fill:none; 
stroke:#000000; stroke-width:0.120000; stroke-opacity:1; 
stroke-linecap:round; stroke-linejoin:round;">
<path d="M59.650000 56.030000
L59.650000 55.630000
" />
<path d="M63.350000 55.630000
L63.350000 56.030000
" />
<path d="M81.150000 144.750000
L81.150000 144.350000
" />
<path d="M84.850000 144.350000
L84.850000 144.750000
" />
</g>
<g style="fill:none; 
stroke:#000000; stroke-width:0.100000; stroke-opacity:1; 
stroke-linecap:round; stroke-linejoin:round;">
<path d="M127.138000 79.310000
L127.938000 80.060000
" />
<path d="M127.938000 81.860000
L127.038000 82.710000
" />
<path style="fill:none; 
stroke:#000000; stroke-width:0.100000; stroke-opacity:1; 
stroke-linecap:round; stroke-linejoin:round;fill:none"
d="M 129.588000,76.960000
122.888000,76.960000
122.888000,70.360000
129.588000,70.360000
Z" /> 
</g>
<g style="fill:none; 
stroke:#000000; stroke-width:0.120000; stroke-opacity:1; 
stroke-linecap:round; stroke-linejoin:round;">
<path d="M115.150000 56.030000
L115.150000 55.630000
" />
<path d="M118.850000 55.630000
L118.850000 56.030000
" />
</g> 
</svg>
