<?xml version="1.0" standalone="no"?>
 <!DOCTYPE svg PUBLIC "-//W3C//DTD SVG 1.1//EN" 
 "http://www.w3.org/Graphics/SVG/1.1/DTD/svg11.dtd"> 
<svg
  xmlns:svg="http://www.w3.org/2000/svg"
  xmlns="http://www.w3.org/2000/svg"
  xmlns:xlink="http://www.w3.org/1999/xlink"
  version="1.1"
  width="297.002200mm" height="210.007200mm" viewBox="0.000000 0.000000 297.002200 210.007200">
<title>SVG Image created as DarkQuest_SiPM_Motherboard-B_Mask.svg date 2025/06/11 08:09:42 </title>
  <desc>Image generated by PCBNEW </desc>
<g style="fill:#000000; fill-opacity:1.000000;stroke:#000000; stroke-opacity:1.000000;
stroke-linecap:round; stroke-linejoin:round;"
 transform="translate(0 0) scale(1 1)">
</g>
<g style="fill:#000000; fill-opacity:1.000000; stroke:none;">
<circle cx="100.000000" cy="100.000000" r="8.400000" /> 
</g>
<g style="fill:#000000; fill-opacity:1.000000; stroke:none;">
<circle cx="100.000000" cy="137.000000" r="6.000000" /> 
</g>
<g style="fill:#000000; fill-opacity:1.000000; stroke:none;">
<circle cx="137.000000" cy="100.000000" r="6.000000" /> 
</g>
<g style="fill:#000000; fill-opacity:1.000000; stroke:none;">
<circle cx="63.000000" cy="100.000000" r="6.000000" /> 
</g>
<g style="fill:#000000; fill-opacity:1.000000; stroke:none;">
<circle cx="100.000000" cy="63.000000" r="6.000000" /> 
<path style="fill:#000000; fill-opacity:1.000000; stroke:none;fill-rule:evenodd;"
d="M 84.624000,138.342000
84.624000,140.042000
82.924000,140.042000
82.924000,138.342000
Z" /> 
</g>
<g style="fill:#000000; fill-opacity:1.000000; stroke:none;">
<circle cx="83.774000" cy="136.652000" r="0.850000" /> 
<circle cx="83.774000" cy="134.112000" r="0.850000" /> 
<circle cx="83.774000" cy="131.572000" r="0.850000" /> 
<circle cx="83.774000" cy="126.492000" r="0.850000" /> 
<circle cx="83.774000" cy="123.952000" r="0.850000" /> 
<circle cx="83.774000" cy="121.412000" r="0.850000" /> 
<circle cx="83.774000" cy="118.872000" r="0.850000" /> 
<circle cx="83.774000" cy="116.332000" r="0.850000" /> 
<path style="fill:#000000; fill-opacity:1.000000; stroke:none;fill-rule:evenodd;"
d="M 61.764000,138.342000
61.764000,140.042000
60.064000,140.042000
60.064000,138.342000
Z" /> 
<circle cx="60.914000" cy="136.652000" r="0.850000" /> 
<circle cx="60.914000" cy="134.112000" r="0.850000" /> 
<circle cx="60.914000" cy="131.572000" r="0.850000" /> 
<circle cx="60.914000" cy="126.492000" r="0.850000" /> 
<circle cx="60.914000" cy="121.412000" r="0.850000" /> 
<circle cx="60.914000" cy="118.872000" r="0.850000" /> 
<circle cx="60.914000" cy="116.332000" r="0.850000" /> 
<circle cx="60.914000" cy="129.032000" r="0.850000" /> 
<circle cx="60.914000" cy="123.952000" r="0.850000" /> 
<circle cx="83.774000" cy="129.032000" r="0.850000" /> 
<path style="fill:#000000; fill-opacity:1.000000; stroke:none;fill-rule:evenodd;"
d="M 139.996000,138.342000
139.996000,140.042000
138.296000,140.042000
138.296000,138.342000
Z" /> 
<circle cx="139.146000" cy="136.652000" r="0.850000" /> 
<circle cx="139.146000" cy="134.112000" r="0.850000" /> 
<circle cx="139.146000" cy="131.572000" r="0.850000" /> 
<circle cx="139.146000" cy="126.492000" r="0.850000" /> 
<circle cx="139.146000" cy="123.952000" r="0.850000" /> 
<circle cx="139.146000" cy="121.412000" r="0.850000" /> 
<circle cx="139.146000" cy="118.872000" r="0.850000" /> 
<circle cx="139.146000" cy="116.332000" r="0.850000" /> 
<path style="fill:#000000; fill-opacity:1.000000; stroke:none;fill-rule:evenodd;"
d="M 117.136000,138.342000
117.136000,140.042000
115.436000,140.042000
115.436000,138.342000
Z" /> 
<circle cx="116.286000" cy="136.652000" r="0.850000" /> 
<circle cx="116.286000" cy="134.112000" r="0.850000" /> 
<circle cx="116.286000" cy="131.572000" r="0.850000" /> 
<circle cx="116.286000" cy="126.492000" r="0.850000" /> 
<circle cx="116.286000" cy="121.412000" r="0.850000" /> 
<circle cx="116.286000" cy="118.872000" r="0.850000" /> 
<circle cx="116.286000" cy="116.332000" r="0.850000" /> 
<circle cx="116.286000" cy="129.032000" r="0.850000" /> 
<circle cx="116.286000" cy="123.952000" r="0.850000" /> 
<circle cx="139.146000" cy="129.032000" r="0.850000" /> 
<path style="fill:#000000; fill-opacity:1.000000; stroke:none;fill-rule:evenodd;"
d="M 139.996000,82.970000
139.996000,84.670000
138.296000,84.670000
138.296000,82.970000
Z" /> 
<circle cx="139.146000" cy="81.280000" r="0.850000" /> 
<circle cx="139.146000" cy="78.740000" r="0.850000" /> 
<circle cx="139.146000" cy="76.200000" r="0.850000" /> 
<circle cx="139.146000" cy="71.120000" r="0.850000" /> 
<circle cx="139.146000" cy="68.580000" r="0.850000" /> 
<circle cx="139.146000" cy="66.040000" r="0.850000" /> 
<circle cx="139.146000" cy="63.500000" r="0.850000" /> 
<circle cx="139.146000" cy="60.960000" r="0.850000" /> 
<path style="fill:#000000; fill-opacity:1.000000; stroke:none;fill-rule:evenodd;"
d="M 117.136000,82.970000
117.136000,84.670000
115.436000,84.670000
115.436000,82.970000
Z" /> 
<circle cx="116.286000" cy="81.280000" r="0.850000" /> 
<circle cx="116.286000" cy="78.740000" r="0.850000" /> 
<circle cx="116.286000" cy="76.200000" r="0.850000" /> 
<circle cx="116.286000" cy="71.120000" r="0.850000" /> 
<circle cx="116.286000" cy="66.040000" r="0.850000" /> 
<circle cx="116.286000" cy="63.500000" r="0.850000" /> 
<circle cx="116.286000" cy="60.960000" r="0.850000" /> 
<circle cx="116.286000" cy="73.660000" r="0.850000" /> 
<circle cx="116.286000" cy="68.580000" r="0.850000" /> 
<circle cx="139.146000" cy="73.660000" r="0.850000" /> 
<path style="fill:#000000; fill-opacity:1.000000; stroke:none;fill-rule:evenodd;"
d="M 125.850000,145.520000
124.150000,145.520000
124.150000,143.820000
125.850000,143.820000
Z" /> 
<circle cx="127.540000" cy="144.670000" r="0.850000" /> 
<circle cx="130.080000" cy="144.670000" r="0.850000" /> 
<path style="fill:#000000; fill-opacity:1.000000; stroke:none;fill-rule:evenodd;"
d="M 126.350000,56.970000
124.650000,56.970000
124.650000,55.270000
126.350000,55.270000
Z" /> 
<circle cx="128.040000" cy="56.120000" r="0.850000" /> 
<circle cx="130.580000" cy="56.120000" r="0.850000" /> 
<path style="fill:#000000; fill-opacity:1.000000; stroke:none;fill-rule:evenodd;"
d="M 69.825000,145.730000
68.125000,145.730000
68.125000,144.030000
69.825000,144.030000
Z" /> 
<circle cx="71.515000" cy="144.880000" r="0.850000" /> 
<circle cx="74.055000" cy="144.880000" r="0.850000" /> 
<path style="fill:#000000; fill-opacity:1.000000; stroke:none;fill-rule:evenodd;"
d="M 70.350000,56.850000
68.650000,56.850000
68.650000,55.150000
70.350000,55.150000
Z" /> 
<circle cx="72.040000" cy="56.000000" r="0.850000" /> 
<circle cx="74.580000" cy="56.000000" r="0.850000" /> 
<path style="fill:#000000; fill-opacity:1.000000; stroke:none;fill-rule:evenodd;"
d="M 84.624000,82.970000
84.624000,84.670000
82.924000,84.670000
82.924000,82.970000
Z" /> 
<circle cx="83.774000" cy="81.280000" r="0.850000" /> 
<circle cx="83.774000" cy="78.740000" r="0.850000" /> 
<circle cx="83.774000" cy="76.200000" r="0.850000" /> 
<circle cx="83.774000" cy="71.120000" r="0.850000" /> 
<circle cx="83.774000" cy="68.580000" r="0.850000" /> 
<circle cx="83.774000" cy="66.040000" r="0.850000" /> 
<circle cx="83.774000" cy="63.500000" r="0.850000" /> 
<circle cx="83.774000" cy="60.960000" r="0.850000" /> 
<path style="fill:#000000; fill-opacity:1.000000; stroke:none;fill-rule:evenodd;"
d="M 61.764000,82.970000
61.764000,84.670000
60.064000,84.670000
60.064000,82.970000
Z" /> 
<circle cx="60.914000" cy="81.280000" r="0.850000" /> 
<circle cx="60.914000" cy="78.740000" r="0.850000" /> 
<circle cx="60.914000" cy="76.200000" r="0.850000" /> 
<circle cx="60.914000" cy="71.120000" r="0.850000" /> 
<circle cx="60.914000" cy="66.040000" r="0.850000" /> 
<circle cx="60.914000" cy="63.500000" r="0.850000" /> 
<circle cx="60.914000" cy="60.960000" r="0.850000" /> 
<circle cx="60.914000" cy="73.660000" r="0.850000" /> 
<circle cx="60.914000" cy="68.580000" r="0.850000" /> 
<circle cx="83.774000" cy="73.660000" r="0.850000" /> 
<path style="fill:#000000; fill-opacity:1.000000; stroke:none;fill-rule:evenodd;"
d="M 79.060000,64.442500
79.040970,64.538171
78.986777,64.619277
78.905671,64.673470
78.810000,64.692500
77.985000,64.692500
77.889329,64.673470
77.808223,64.619277
77.754030,64.538171
77.735000,64.442500
77.735000,63.142500
77.754030,63.046829
77.808223,62.965723
77.889329,62.911530
77.985000,62.892500
78.810000,62.892500
78.905671,62.911530
78.986777,62.965723
79.040970,63.046829
79.060000,63.142500
Z" /> 
<path style="fill:#000000; fill-opacity:1.000000; stroke:none;fill-rule:evenodd;"
d="M 75.935000,64.442500
75.915970,64.538171
75.861777,64.619277
75.780671,64.673470
75.685000,64.692500
74.860000,64.692500
74.764329,64.673470
74.683223,64.619277
74.629030,64.538171
74.610000,64.442500
74.610000,63.142500
74.629030,63.046829
74.683223,62.965723
74.764329,62.911530
74.860000,62.892500
75.685000,62.892500
75.780671,62.911530
75.861777,62.965723
75.915970,63.046829
75.935000,63.142500
Z" /> 
<path style="fill:#000000; fill-opacity:1.000000; stroke:none;fill-rule:evenodd;"
d="M 135.232500,64.150000
135.213470,64.245671
135.159277,64.326777
135.078171,64.380970
134.982500,64.400000
134.157500,64.400000
134.061829,64.380970
133.980723,64.326777
133.926530,64.245671
133.907500,64.150000
133.907500,62.850000
133.926530,62.754329
133.980723,62.673223
134.061829,62.619030
134.157500,62.600000
134.982500,62.600000
135.078171,62.619030
135.159277,62.673223
135.213470,62.754329
135.232500,62.850000
Z" /> 
<path style="fill:#000000; fill-opacity:1.000000; stroke:none;fill-rule:evenodd;"
d="M 132.107500,64.150000
132.088470,64.245671
132.034277,64.326777
131.953171,64.380970
131.857500,64.400000
131.032500,64.400000
130.936829,64.380970
130.855723,64.326777
130.801530,64.245671
130.782500,64.150000
130.782500,62.850000
130.801530,62.754329
130.855723,62.673223
130.936829,62.619030
131.032500,62.600000
131.857500,62.600000
131.953171,62.619030
132.034277,62.673223
132.088470,62.754329
132.107500,62.850000
Z" /> 
<path style="fill:#000000; fill-opacity:1.000000; stroke:none;fill-rule:evenodd;"
d="M 134.851500,136.540000
134.832470,136.635671
134.778277,136.716777
134.697171,136.770970
134.601500,136.790000
133.776500,136.790000
133.680829,136.770970
133.599723,136.716777
133.545530,136.635671
133.526500,136.540000
133.526500,135.240000
133.545530,135.144329
133.599723,135.063223
133.680829,135.009030
133.776500,134.990000
134.601500,134.990000
134.697171,135.009030
134.778277,135.063223
134.832470,135.144329
134.851500,135.240000
Z" /> 
<path style="fill:#000000; fill-opacity:1.000000; stroke:none;fill-rule:evenodd;"
d="M 131.726500,136.540000
131.707470,136.635671
131.653277,136.716777
131.572171,136.770970
131.476500,136.790000
130.651500,136.790000
130.555829,136.770970
130.474723,136.716777
130.420530,136.635671
130.401500,136.540000
130.401500,135.240000
130.420530,135.144329
130.474723,135.063223
130.555829,135.009030
130.651500,134.990000
131.476500,134.990000
131.572171,135.009030
131.653277,135.063223
131.707470,135.144329
131.726500,135.240000
Z" /> 
<path style="fill:#000000; fill-opacity:1.000000; stroke:none;fill-rule:evenodd;"
d="M 78.425000,137.175000
78.405970,137.270671
78.351777,137.351777
78.270671,137.405970
78.175000,137.425000
77.350000,137.425000
77.254329,137.405970
77.173223,137.351777
77.119030,137.270671
77.100000,137.175000
77.100000,135.875000
77.119030,135.779329
77.173223,135.698223
77.254329,135.644030
77.350000,135.625000
78.175000,135.625000
78.270671,135.644030
78.351777,135.698223
78.405970,135.779329
78.425000,135.875000
Z" /> 
<path style="fill:#000000; fill-opacity:1.000000; stroke:none;fill-rule:evenodd;"
d="M 75.300000,137.175000
75.280970,137.270671
75.226777,137.351777
75.145671,137.405970
75.050000,137.425000
74.225000,137.425000
74.129329,137.405970
74.048223,137.351777
73.994030,137.270671
73.975000,137.175000
73.975000,135.875000
73.994030,135.779329
74.048223,135.698223
74.129329,135.644030
74.225000,135.625000
75.050000,135.625000
75.145671,135.644030
75.226777,135.698223
75.280970,135.779329
75.300000,135.875000
Z" /> 
<path style="fill:#000000; fill-opacity:1.000000; stroke:none;fill-rule:evenodd;"
d="M 66.282000,130.602000
64.782000,130.602000
64.782000,130.002000
66.282000,130.002000
Z" /> 
<path style="fill:#000000; fill-opacity:1.000000; stroke:none;fill-rule:evenodd;"
d="M 66.282000,129.302000
64.782000,129.302000
64.782000,128.702000
66.282000,128.702000
Z" /> 
<path style="fill:#000000; fill-opacity:1.000000; stroke:none;fill-rule:evenodd;"
d="M 66.282000,128.002000
64.782000,128.002000
64.782000,127.402000
66.282000,127.402000
Z" /> 
<path style="fill:#000000; fill-opacity:1.000000; stroke:none;fill-rule:evenodd;"
d="M 70.782000,130.602000
69.282000,130.602000
69.282000,130.002000
70.782000,130.002000
Z" /> 
<path style="fill:#000000; fill-opacity:1.000000; stroke:none;fill-rule:evenodd;"
d="M 70.782000,129.302000
69.282000,129.302000
69.282000,128.702000
70.782000,128.702000
Z" /> 
<path style="fill:#000000; fill-opacity:1.000000; stroke:none;fill-rule:evenodd;"
d="M 70.782000,128.002000
69.282000,128.002000
69.282000,127.402000
70.782000,127.402000
Z" /> 
<circle cx="138.290000" cy="144.670000" r="0.735000" /> 
<path style="fill:#000000; fill-opacity:1.000000; stroke:none;fill-rule:evenodd;"
d="M 136.179646,145.204646
136.180000,145.204500
137.110700,145.204500
137.111054,145.204646
137.111151,145.204784
137.160481,145.307693
137.289698,145.495760
137.449869,145.658271
137.636042,145.790201
137.842445,145.887463
138.062710,145.947054
138.290000,145.967124
138.517290,145.947054
138.737555,145.887463
138.943958,145.790201
139.130131,145.658271
139.290302,145.495760
139.419519,145.307693
139.468849,145.204784
139.469134,145.204528
139.469300,145.204500
140.400000,145.204500
140.400354,145.204646
140.400500,145.205000
140.400500,146.775000
140.400354,146.775354
140.400000,146.775500
136.180000,146.775500
136.179646,146.775354
136.179500,146.775000
136.179500,145.205000
Z" /> 
<path style="fill:#000000; fill-opacity:1.000000; stroke:none;fill-rule:evenodd;"
d="M 136.179646,142.564646
136.180000,142.564500
140.400000,142.564500
140.400354,142.564646
140.400500,142.565000
140.400500,144.135000
140.400354,144.135354
140.400000,144.135500
139.469300,144.135500
139.468946,144.135354
139.468849,144.135216
139.419519,144.032307
139.290302,143.844240
139.130131,143.681729
138.943958,143.549799
138.737555,143.452537
138.517290,143.392946
138.290000,143.372876
138.062710,143.392946
137.842445,143.452537
137.636042,143.549799
137.449869,143.681729
137.289698,143.844240
137.160481,144.032307
137.111151,144.135216
137.110866,144.135472
137.110700,144.135500
136.180000,144.135500
136.179646,144.135354
136.179500,144.135000
136.179500,142.565000
Z" /> 
<path style="fill:#000000; fill-opacity:1.000000; stroke:none;fill-rule:evenodd;"
d="M 68.350000,75.260000
66.850000,75.260000
66.850000,74.660000
68.350000,74.660000
Z" /> 
<path style="fill:#000000; fill-opacity:1.000000; stroke:none;fill-rule:evenodd;"
d="M 68.350000,73.960000
66.850000,73.960000
66.850000,73.360000
68.350000,73.360000
Z" /> 
<path style="fill:#000000; fill-opacity:1.000000; stroke:none;fill-rule:evenodd;"
d="M 68.350000,72.660000
66.850000,72.660000
66.850000,72.060000
68.350000,72.060000
Z" /> 
<path style="fill:#000000; fill-opacity:1.000000; stroke:none;fill-rule:evenodd;"
d="M 72.850000,75.260000
71.350000,75.260000
71.350000,74.660000
72.850000,74.660000
Z" /> 
<path style="fill:#000000; fill-opacity:1.000000; stroke:none;fill-rule:evenodd;"
d="M 72.850000,73.960000
71.350000,73.960000
71.350000,73.360000
72.850000,73.360000
Z" /> 
<path style="fill:#000000; fill-opacity:1.000000; stroke:none;fill-rule:evenodd;"
d="M 72.850000,72.660000
71.350000,72.660000
71.350000,72.060000
72.850000,72.060000
Z" /> 
</g>
<g style="fill:#000000; fill-opacity:1.000000; stroke:none;">
<circle cx="96.800000" cy="124.590000" r="1.825000" /> 
</g>
<g style="fill:#000000; fill-opacity:1.000000; stroke:none;">
<circle cx="96.800000" cy="113.160000" r="1.825000" /> 
</g>
<g style="fill:#000000; fill-opacity:1.000000; stroke:none;">
<circle cx="103.150000" cy="123.320000" r="0.750000" /> 
</g>
<g style="fill:#000000; fill-opacity:1.000000; stroke:none;">
<circle cx="105.690000" cy="122.050000" r="0.750000" /> 
</g>
<g style="fill:#000000; fill-opacity:1.000000; stroke:none;">
<circle cx="103.150000" cy="120.780000" r="0.750000" /> 
</g>
<g style="fill:#000000; fill-opacity:1.000000; stroke:none;">
<circle cx="105.690000" cy="119.510000" r="0.750000" /> 
</g>
<g style="fill:#000000; fill-opacity:1.000000; stroke:none;">
<circle cx="103.150000" cy="118.240000" r="0.750000" /> 
</g>
<g style="fill:#000000; fill-opacity:1.000000; stroke:none;">
<circle cx="105.690000" cy="116.970000" r="0.750000" /> 
</g>
<g style="fill:#000000; fill-opacity:1.000000; stroke:none;">
<circle cx="103.150000" cy="115.700000" r="0.750000" /> 
</g>
<g style="fill:#000000; fill-opacity:1.000000; stroke:none;">
<circle cx="105.690000" cy="114.430000" r="0.750000" /> 
</g>
<g style="fill:#000000; fill-opacity:1.000000; stroke:none;">
<circle cx="99.850000" cy="126.750000" r="1.250000" /> 
</g>
<g style="fill:#000000; fill-opacity:1.000000; stroke:none;">
<circle cx="99.850000" cy="111.000000" r="1.250000" /> 
</g>
<g style="fill:#000000; fill-opacity:1.000000; stroke:none;">
<circle cx="61.500000" cy="144.710000" r="0.735000" /> 
<path style="fill:#000000; fill-opacity:1.000000; stroke:none;fill-rule:evenodd;"
d="M 63.610354,144.175354
63.610000,144.175500
62.679300,144.175500
62.678946,144.175354
62.678849,144.175216
62.629519,144.072307
62.500302,143.884240
62.340131,143.721729
62.153958,143.589799
61.947555,143.492537
61.727290,143.432946
61.500000,143.412876
61.272710,143.432946
61.052445,143.492537
60.846042,143.589799
60.659869,143.721729
60.499698,143.884240
60.370481,144.072307
60.321151,144.175216
60.320866,144.175472
60.320700,144.175500
59.390000,144.175500
59.389646,144.175354
59.389500,144.175000
59.389500,142.605000
59.389646,142.604646
59.390000,142.604500
63.610000,142.604500
63.610354,142.604646
63.610500,142.605000
63.610500,144.175000
Z" /> 
<path style="fill:#000000; fill-opacity:1.000000; stroke:none;fill-rule:evenodd;"
d="M 63.610354,146.815354
63.610000,146.815500
59.390000,146.815500
59.389646,146.815354
59.389500,146.815000
59.389500,145.245000
59.389646,145.244646
59.390000,145.244500
60.320700,145.244500
60.321054,145.244646
60.321151,145.244784
60.370481,145.347693
60.499698,145.535760
60.659869,145.698271
60.846042,145.830201
61.052445,145.927463
61.272710,145.987054
61.500000,146.007124
61.727290,145.987054
61.947555,145.927463
62.153958,145.830201
62.340131,145.698271
62.500302,145.535760
62.629519,145.347693
62.678849,145.244784
62.679134,145.244528
62.679300,145.244500
63.610000,145.244500
63.610354,145.244646
63.610500,145.245000
63.610500,146.815000
Z" /> 
</g>
<g style="fill:#000000; fill-opacity:1.000000; stroke:none;">
<circle cx="138.000000" cy="55.790000" r="0.735000" /> 
<path style="fill:#000000; fill-opacity:1.000000; stroke:none;fill-rule:evenodd;"
d="M 135.889646,56.324646
135.890000,56.324500
136.820700,56.324500
136.821054,56.324646
136.821151,56.324784
136.870481,56.427693
136.999698,56.615760
137.159869,56.778271
137.346042,56.910201
137.552445,57.007463
137.772710,57.067054
138.000000,57.087124
138.227290,57.067054
138.447555,57.007463
138.653958,56.910201
138.840131,56.778271
139.000302,56.615760
139.129519,56.427693
139.178849,56.324784
139.179134,56.324528
139.179300,56.324500
140.110000,56.324500
140.110354,56.324646
140.110500,56.325000
140.110500,57.895000
140.110354,57.895354
140.110000,57.895500
135.890000,57.895500
135.889646,57.895354
135.889500,57.895000
135.889500,56.325000
Z" /> 
<path style="fill:#000000; fill-opacity:1.000000; stroke:none;fill-rule:evenodd;"
d="M 135.889646,53.684646
135.890000,53.684500
140.110000,53.684500
140.110354,53.684646
140.110500,53.685000
140.110500,55.255000
140.110354,55.255354
140.110000,55.255500
139.179300,55.255500
139.178946,55.255354
139.178849,55.255216
139.129519,55.152307
139.000302,54.964240
138.840131,54.801729
138.653958,54.669799
138.447555,54.572537
138.227290,54.512946
138.000000,54.492876
137.772710,54.512946
137.552445,54.572537
137.346042,54.669799
137.159869,54.801729
136.999698,54.964240
136.870481,55.152307
136.821151,55.255216
136.820866,55.255472
136.820700,55.255500
135.890000,55.255500
135.889646,55.255354
135.889500,55.255000
135.889500,53.685000
Z" /> 
</g>
<g style="fill:#000000; fill-opacity:1.000000; stroke:none;">
<circle cx="117.000000" cy="144.670000" r="0.735000" /> 
<path style="fill:#000000; fill-opacity:1.000000; stroke:none;fill-rule:evenodd;"
d="M 119.110354,144.135354
119.110000,144.135500
118.179300,144.135500
118.178946,144.135354
118.178849,144.135216
118.129519,144.032307
118.000302,143.844240
117.840131,143.681729
117.653958,143.549799
117.447555,143.452537
117.227290,143.392946
117.000000,143.372876
116.772710,143.392946
116.552445,143.452537
116.346042,143.549799
116.159869,143.681729
115.999698,143.844240
115.870481,144.032307
115.821151,144.135216
115.820866,144.135472
115.820700,144.135500
114.890000,144.135500
114.889646,144.135354
114.889500,144.135000
114.889500,142.565000
114.889646,142.564646
114.890000,142.564500
119.110000,142.564500
119.110354,142.564646
119.110500,142.565000
119.110500,144.135000
Z" /> 
<path style="fill:#000000; fill-opacity:1.000000; stroke:none;fill-rule:evenodd;"
d="M 119.110354,146.775354
119.110000,146.775500
114.890000,146.775500
114.889646,146.775354
114.889500,146.775000
114.889500,145.205000
114.889646,145.204646
114.890000,145.204500
115.820700,145.204500
115.821054,145.204646
115.821151,145.204784
115.870481,145.307693
115.999698,145.495760
116.159869,145.658271
116.346042,145.790201
116.552445,145.887463
116.772710,145.947054
117.000000,145.967124
117.227290,145.947054
117.447555,145.887463
117.653958,145.790201
117.840131,145.658271
118.000302,145.495760
118.129519,145.307693
118.178849,145.204784
118.179134,145.204528
118.179300,145.204500
119.110000,145.204500
119.110354,145.204646
119.110500,145.205000
119.110500,146.775000
Z" /> 
</g>
<g style="fill:#000000; fill-opacity:1.000000; stroke:none;">
<circle cx="83.000000" cy="55.670000" r="0.735000" /> 
<path style="fill:#000000; fill-opacity:1.000000; stroke:none;fill-rule:evenodd;"
d="M 80.889646,56.204646
80.890000,56.204500
81.820700,56.204500
81.821054,56.204646
81.821151,56.204784
81.870481,56.307693
81.999698,56.495760
82.159869,56.658271
82.346042,56.790201
82.552445,56.887463
82.772710,56.947054
83.000000,56.967124
83.227290,56.947054
83.447555,56.887463
83.653958,56.790201
83.840131,56.658271
84.000302,56.495760
84.129519,56.307693
84.178849,56.204784
84.179134,56.204528
84.179300,56.204500
85.110000,56.204500
85.110354,56.204646
85.110500,56.205000
85.110500,57.775000
85.110354,57.775354
85.110000,57.775500
80.890000,57.775500
80.889646,57.775354
80.889500,57.775000
80.889500,56.205000
Z" /> 
<path style="fill:#000000; fill-opacity:1.000000; stroke:none;fill-rule:evenodd;"
d="M 80.889646,53.564646
80.890000,53.564500
85.110000,53.564500
85.110354,53.564646
85.110500,53.565000
85.110500,55.135000
85.110354,55.135354
85.110000,55.135500
84.179300,55.135500
84.178946,55.135354
84.178849,55.135216
84.129519,55.032307
84.000302,54.844240
83.840131,54.681729
83.653958,54.549799
83.447555,54.452537
83.227290,54.392946
83.000000,54.372876
82.772710,54.392946
82.552445,54.452537
82.346042,54.549799
82.159869,54.681729
81.999698,54.844240
81.870481,55.032307
81.821151,55.135216
81.820866,55.135472
81.820700,55.135500
80.890000,55.135500
80.889646,55.135354
80.889500,55.135000
80.889500,53.565000
Z" /> 
<path style="fill:#000000; fill-opacity:1.000000; stroke:none;fill-rule:evenodd;"
d="M 121.400000,130.632000
119.900000,130.632000
119.900000,130.032000
121.400000,130.032000
Z" /> 
<path style="fill:#000000; fill-opacity:1.000000; stroke:none;fill-rule:evenodd;"
d="M 121.400000,129.332000
119.900000,129.332000
119.900000,128.732000
121.400000,128.732000
Z" /> 
<path style="fill:#000000; fill-opacity:1.000000; stroke:none;fill-rule:evenodd;"
d="M 121.400000,128.032000
119.900000,128.032000
119.900000,127.432000
121.400000,127.432000
Z" /> 
<path style="fill:#000000; fill-opacity:1.000000; stroke:none;fill-rule:evenodd;"
d="M 125.900000,130.632000
124.400000,130.632000
124.400000,130.032000
125.900000,130.032000
Z" /> 
<path style="fill:#000000; fill-opacity:1.000000; stroke:none;fill-rule:evenodd;"
d="M 125.900000,129.332000
124.400000,129.332000
124.400000,128.732000
125.900000,128.732000
Z" /> 
<path style="fill:#000000; fill-opacity:1.000000; stroke:none;fill-rule:evenodd;"
d="M 125.900000,128.032000
124.400000,128.032000
124.400000,127.432000
125.900000,127.432000
Z" /> 
</g>
<g style="fill:#000000; fill-opacity:1.000000; stroke:none;">
<circle cx="61.500000" cy="55.830000" r="0.735000" /> 
<path style="fill:#000000; fill-opacity:1.000000; stroke:none;fill-rule:evenodd;"
d="M 63.610354,55.295354
63.610000,55.295500
62.679300,55.295500
62.678946,55.295354
62.678849,55.295216
62.629519,55.192307
62.500302,55.004240
62.340131,54.841729
62.153958,54.709799
61.947555,54.612537
61.727290,54.552946
61.500000,54.532876
61.272710,54.552946
61.052445,54.612537
60.846042,54.709799
60.659869,54.841729
60.499698,55.004240
60.370481,55.192307
60.321151,55.295216
60.320866,55.295472
60.320700,55.295500
59.390000,55.295500
59.389646,55.295354
59.389500,55.295000
59.389500,53.725000
59.389646,53.724646
59.390000,53.724500
63.610000,53.724500
63.610354,53.724646
63.610500,53.725000
63.610500,55.295000
Z" /> 
<path style="fill:#000000; fill-opacity:1.000000; stroke:none;fill-rule:evenodd;"
d="M 63.610354,57.935354
63.610000,57.935500
59.390000,57.935500
59.389646,57.935354
59.389500,57.935000
59.389500,56.365000
59.389646,56.364646
59.390000,56.364500
60.320700,56.364500
60.321054,56.364646
60.321151,56.364784
60.370481,56.467693
60.499698,56.655760
60.659869,56.818271
60.846042,56.950201
61.052445,57.047463
61.272710,57.107054
61.500000,57.127124
61.727290,57.107054
61.947555,57.047463
62.153958,56.950201
62.340131,56.818271
62.500302,56.655760
62.629519,56.467693
62.678849,56.364784
62.679134,56.364528
62.679300,56.364500
63.610000,56.364500
63.610354,56.364646
63.610500,56.365000
63.610500,57.935000
Z" /> 
</g>
<g style="fill:#000000; fill-opacity:1.000000; stroke:none;">
<circle cx="83.000000" cy="144.550000" r="0.735000" /> 
<path style="fill:#000000; fill-opacity:1.000000; stroke:none;fill-rule:evenodd;"
d="M 80.889646,145.084646
80.890000,145.084500
81.820700,145.084500
81.821054,145.084646
81.821151,145.084784
81.870481,145.187693
81.999698,145.375760
82.159869,145.538271
82.346042,145.670201
82.552445,145.767463
82.772710,145.827054
83.000000,145.847124
83.227290,145.827054
83.447555,145.767463
83.653958,145.670201
83.840131,145.538271
84.000302,145.375760
84.129519,145.187693
84.178849,145.084784
84.179134,145.084528
84.179300,145.084500
85.110000,145.084500
85.110354,145.084646
85.110500,145.085000
85.110500,146.655000
85.110354,146.655354
85.110000,146.655500
80.890000,146.655500
80.889646,146.655354
80.889500,146.655000
80.889500,145.085000
Z" /> 
<path style="fill:#000000; fill-opacity:1.000000; stroke:none;fill-rule:evenodd;"
d="M 80.889646,142.444646
80.890000,142.444500
85.110000,142.444500
85.110354,142.444646
85.110500,142.445000
85.110500,144.015000
85.110354,144.015354
85.110000,144.015500
84.179300,144.015500
84.178946,144.015354
84.178849,144.015216
84.129519,143.912307
84.000302,143.724240
83.840131,143.561729
83.653958,143.429799
83.447555,143.332537
83.227290,143.272946
83.000000,143.252876
82.772710,143.272946
82.552445,143.332537
82.346042,143.429799
82.159869,143.561729
81.999698,143.724240
81.870481,143.912307
81.821151,144.015216
81.820866,144.015472
81.820700,144.015500
80.890000,144.015500
80.889646,144.015354
80.889500,144.015000
80.889500,142.445000
Z" /> 
<path style="fill:#000000; fill-opacity:1.000000; stroke:none;fill-rule:evenodd;"
d="M 124.738000,75.260000
123.238000,75.260000
123.238000,74.660000
124.738000,74.660000
Z" /> 
<path style="fill:#000000; fill-opacity:1.000000; stroke:none;fill-rule:evenodd;"
d="M 124.738000,73.960000
123.238000,73.960000
123.238000,73.360000
124.738000,73.360000
Z" /> 
<path style="fill:#000000; fill-opacity:1.000000; stroke:none;fill-rule:evenodd;"
d="M 124.738000,72.660000
123.238000,72.660000
123.238000,72.060000
124.738000,72.060000
Z" /> 
<path style="fill:#000000; fill-opacity:1.000000; stroke:none;fill-rule:evenodd;"
d="M 129.238000,75.260000
127.738000,75.260000
127.738000,74.660000
129.238000,74.660000
Z" /> 
<path style="fill:#000000; fill-opacity:1.000000; stroke:none;fill-rule:evenodd;"
d="M 129.238000,73.960000
127.738000,73.960000
127.738000,73.360000
129.238000,73.360000
Z" /> 
<path style="fill:#000000; fill-opacity:1.000000; stroke:none;fill-rule:evenodd;"
d="M 129.238000,72.660000
127.738000,72.660000
127.738000,72.060000
129.238000,72.060000
Z" /> 
</g>
<g style="fill:#000000; fill-opacity:1.000000; stroke:none;">
<circle cx="117.000000" cy="55.830000" r="0.735000" /> 
<path style="fill:#000000; fill-opacity:1.000000; stroke:none;fill-rule:evenodd;"
d="M 119.110354,55.295354
119.110000,55.295500
118.179300,55.295500
118.178946,55.295354
118.178849,55.295216
118.129519,55.192307
118.000302,55.004240
117.840131,54.841729
117.653958,54.709799
117.447555,54.612537
117.227290,54.552946
117.000000,54.532876
116.772710,54.552946
116.552445,54.612537
116.346042,54.709799
116.159869,54.841729
115.999698,55.004240
115.870481,55.192307
115.821151,55.295216
115.820866,55.295472
115.820700,55.295500
114.890000,55.295500
114.889646,55.295354
114.889500,55.295000
114.889500,53.725000
114.889646,53.724646
114.890000,53.724500
119.110000,53.724500
119.110354,53.724646
119.110500,53.725000
119.110500,55.295000
Z" /> 
<path style="fill:#000000; fill-opacity:1.000000; stroke:none;fill-rule:evenodd;"
d="M 119.110354,57.935354
119.110000,57.935500
114.890000,57.935500
114.889646,57.935354
114.889500,57.935000
114.889500,56.365000
114.889646,56.364646
114.890000,56.364500
115.820700,56.364500
115.821054,56.364646
115.821151,56.364784
115.870481,56.467693
115.999698,56.655760
116.159869,56.818271
116.346042,56.950201
116.552445,57.047463
116.772710,57.107054
117.000000,57.127124
117.227290,57.107054
117.447555,57.047463
117.653958,56.950201
117.840131,56.818271
118.000302,56.655760
118.129519,56.467693
118.178849,56.364784
118.179134,56.364528
118.179300,56.364500
119.110000,56.364500
119.110354,56.364646
119.110500,56.365000
119.110500,57.935000
Z" /> 
</g> 
</svg>
