M48
; DRILL file {KiCad 9.0.1-9.0.1-0~ubuntu24.04.1} date 2025-06-12T19:46:02-0400
; FORMAT={-:-/ absolute / inch / decimal}
; #@! TF.CreationDate,2025-06-12T19:46:02-04:00
; #@! TF.GenerationSoftware,Kicad,Pcbnew,9.0.1-9.0.1-0~ubuntu24.04.1
; #@! TF.FileFunction,Plated,1,2,PTH
FMAT,2
INCH
; #@! TA.AperFunction,Plated,PTH,ComponentDrill
T1C0.0354
; #@! TA.AperFunction,Plated,PTH,ComponentDrill
T2C0.0394
; #@! TA.AperFunction,Plated,PTH,ComponentDrill
T3C0.0669
; #@! TA.AperFunction,Plated,PTH,ComponentDrill
T4C0.2520
; #@! TA.AperFunction,Plated,PTH,ComponentDrill
T5C0.4724
%
G90
G05
T1
X4.061Y-4.5551
X4.061Y-4.6551
X4.061Y-4.7551
X4.061Y-4.8551
X4.161Y-4.5051
X4.161Y-4.6051
X4.161Y-4.7051
X4.161Y-4.8051
T2
X2.3982Y-2.4
X2.3982Y-2.5
X2.3982Y-2.6
X2.3982Y-2.7
X2.3982Y-2.8
X2.3982Y-2.9
X2.3982Y-3.0
X2.3982Y-3.1
X2.3982Y-3.2
X2.3982Y-3.3
X2.3982Y-4.58
X2.3982Y-4.68
X2.3982Y-4.78
X2.3982Y-4.88
X2.3982Y-4.98
X2.3982Y-5.08
X2.3982Y-5.18
X2.3982Y-5.28
X2.3982Y-5.38
X2.3982Y-5.48
X3.2982Y-2.4
X3.2982Y-2.5
X3.2982Y-2.6
X3.2982Y-2.7
X3.2982Y-2.8
X3.2982Y-2.9
X3.2982Y-3.0
X3.2982Y-3.1
X3.2982Y-3.2
X3.2982Y-3.3
X3.2982Y-4.58
X3.2982Y-4.68
X3.2982Y-4.78
X3.2982Y-4.88
X3.2982Y-4.98
X3.2982Y-5.08
X3.2982Y-5.18
X3.2982Y-5.28
X3.2982Y-5.38
X3.2982Y-5.48
X4.5782Y-2.4
X4.5782Y-2.5
X4.5782Y-2.6
X4.5782Y-2.7
X4.5782Y-2.8
X4.5782Y-2.9
X4.5782Y-3.0
X4.5782Y-3.1
X4.5782Y-3.2
X4.5782Y-3.3
X4.5782Y-4.58
X4.5782Y-4.68
X4.5782Y-4.78
X4.5782Y-4.88
X4.5782Y-4.98
X4.5782Y-5.08
X4.5782Y-5.18
X4.5782Y-5.28
X4.5782Y-5.38
X4.5782Y-5.48
X5.4782Y-2.4
X5.4782Y-2.5
X5.4782Y-2.6
X5.4782Y-2.7
X5.4782Y-2.8
X5.4782Y-2.9
X5.4782Y-3.0
X5.4782Y-3.1
X5.4782Y-3.2
X5.4782Y-3.3
X5.4782Y-4.58
X5.4782Y-4.68
X5.4782Y-4.78
X5.4782Y-4.88
X5.4782Y-4.98
X5.4782Y-5.08
X5.4782Y-5.18
X5.4782Y-5.28
X5.4782Y-5.38
X5.4782Y-5.48
T3
X3.9311Y-4.3701
X3.9311Y-4.9902
T4
X2.4803Y-3.937
X3.937Y-2.4803
X3.937Y-5.3937
X5.3937Y-3.937
T5
X3.937Y-3.937
M30
