%TF.GenerationSoftware,KiCad,Pcbnew,9.0.2*%
%TF.CreationDate,2025-06-11T08:09:26-04:00*%
%TF.ProjectId,DarkQuest_SiPM_Motherboard,4461726b-5175-4657-9374-5f5369504d5f,10*%
%TF.SameCoordinates,Original*%
%TF.FileFunction,Soldermask,Top*%
%TF.FilePolarity,Negative*%
%FSLAX46Y46*%
G04 Gerber Fmt 4.6, Leading zero omitted, Abs format (unit mm)*
G04 Created by KiCad (PCBNEW 9.0.2) date 2025-06-11 08:09:26*
%MOMM*%
%LPD*%
G01*
G04 APERTURE LIST*
G04 Aperture macros list*
%AMFreePoly0*
4,1,23,0.500000,-0.750000,0.000000,-0.750000,0.000000,-0.745722,-0.065263,-0.745722,-0.191342,-0.711940,-0.304381,-0.646677,-0.396677,-0.554381,-0.461940,-0.441342,-0.495722,-0.315263,-0.495722,-0.250000,-0.500000,-0.250000,-0.500000,0.250000,-0.495722,0.250000,-0.495722,0.315263,-0.461940,0.441342,-0.396677,0.554381,-0.304381,0.646677,-0.191342,0.711940,-0.065263,0.745722,0.000000,0.745722,
0.000000,0.750000,0.500000,0.750000,0.500000,-0.750000,0.500000,-0.750000,$1*%
%AMFreePoly1*
4,1,23,0.000000,0.745722,0.065263,0.745722,0.191342,0.711940,0.304381,0.646677,0.396677,0.554381,0.461940,0.441342,0.495722,0.315263,0.495722,0.250000,0.500000,0.250000,0.500000,-0.250000,0.495722,-0.250000,0.495722,-0.315263,0.461940,-0.441342,0.396677,-0.554381,0.304381,-0.646677,0.191342,-0.711940,0.065263,-0.745722,0.000000,-0.745722,0.000000,-0.750000,-0.500000,-0.750000,
-0.500000,0.750000,0.000000,0.750000,0.000000,0.745722,0.000000,0.745722,$1*%
%AMFreePoly2*
4,1,5,0.508000,-1.498600,-0.508000,-1.498600,-0.508000,1.498600,0.508000,1.498600,0.508000,-1.498600,0.508000,-1.498600,$1*%
G04 Aperture macros list end*
%ADD10C,16.800000*%
%ADD11C,12.000000*%
%ADD12FreePoly0,0.000000*%
%ADD13FreePoly1,0.000000*%
%ADD14R,1.700000X1.700000*%
%ADD15O,1.700000X1.700000*%
%ADD16R,1.625600X1.108800*%
%ADD17R,1.727200X1.117600*%
%ADD18R,5.207000X1.143000*%
%ADD19FreePoly2,0.000000*%
%ADD20FreePoly0,180.000000*%
%ADD21FreePoly1,180.000000*%
%ADD22C,3.650000*%
%ADD23C,1.500000*%
%ADD24C,2.500000*%
G04 APERTURE END LIST*
%TO.C,JP3*%
G36*
X146850000Y-95250000D02*
G01*
X147150000Y-95250000D01*
X147150000Y-96750000D01*
X146850000Y-96750000D01*
X146850000Y-95250000D01*
G37*
%TO.C,JP1*%
G36*
X146850000Y-103250000D02*
G01*
X147150000Y-103250000D01*
X147150000Y-104750000D01*
X146850000Y-104750000D01*
X146850000Y-103250000D01*
G37*
%TO.C,JP2*%
G36*
X53150000Y-104750000D02*
G01*
X52850000Y-104750000D01*
X52850000Y-103250000D01*
X53150000Y-103250000D01*
X53150000Y-104750000D01*
G37*
%TO.C,JP4*%
G36*
X53150000Y-96750000D02*
G01*
X52850000Y-96750000D01*
X52850000Y-95250000D01*
X53150000Y-95250000D01*
X53150000Y-96750000D01*
G37*
%TD*%
D10*
%TO.C,H2*%
X100000000Y-100000000D03*
%TD*%
D11*
%TO.C,H3*%
X100000000Y-137000000D03*
%TD*%
%TO.C,H4*%
X137000000Y-100000000D03*
%TD*%
%TO.C,H5*%
X63000000Y-100000000D03*
%TD*%
%TO.C,H1*%
X100000000Y-63000000D03*
%TD*%
D12*
%TO.C,JP3*%
X146350000Y-96000000D03*
D13*
X147650000Y-96000000D03*
%TD*%
D14*
%TO.C,J22*%
X83774000Y-139192000D03*
D15*
X83774000Y-136652000D03*
X83774000Y-134112000D03*
X83774000Y-131572000D03*
X83774000Y-126492000D03*
X83774000Y-123952000D03*
X83774000Y-121412000D03*
X83774000Y-118872000D03*
X83774000Y-116332000D03*
D14*
X60914000Y-139192000D03*
D15*
X60914000Y-136652000D03*
X60914000Y-134112000D03*
X60914000Y-131572000D03*
X60914000Y-126492000D03*
X60914000Y-121412000D03*
X60914000Y-118872000D03*
X60914000Y-116332000D03*
X60914000Y-129032000D03*
X60914000Y-123952000D03*
X83774000Y-129032000D03*
%TD*%
D12*
%TO.C,JP1*%
X146350000Y-104000000D03*
D13*
X147650000Y-104000000D03*
%TD*%
D14*
%TO.C,J23*%
X139146000Y-139192000D03*
D15*
X139146000Y-136652000D03*
X139146000Y-134112000D03*
X139146000Y-131572000D03*
X139146000Y-126492000D03*
X139146000Y-123952000D03*
X139146000Y-121412000D03*
X139146000Y-118872000D03*
X139146000Y-116332000D03*
D14*
X116286000Y-139192000D03*
D15*
X116286000Y-136652000D03*
X116286000Y-134112000D03*
X116286000Y-131572000D03*
X116286000Y-126492000D03*
X116286000Y-121412000D03*
X116286000Y-118872000D03*
X116286000Y-116332000D03*
X116286000Y-129032000D03*
X116286000Y-123952000D03*
X139146000Y-129032000D03*
%TD*%
D14*
%TO.C,J24*%
X139146000Y-83820000D03*
D15*
X139146000Y-81280000D03*
X139146000Y-78740000D03*
X139146000Y-76200000D03*
X139146000Y-71120000D03*
X139146000Y-68580000D03*
X139146000Y-66040000D03*
X139146000Y-63500000D03*
X139146000Y-60960000D03*
D14*
X116286000Y-83820000D03*
D15*
X116286000Y-81280000D03*
X116286000Y-78740000D03*
X116286000Y-76200000D03*
X116286000Y-71120000D03*
X116286000Y-66040000D03*
X116286000Y-63500000D03*
X116286000Y-60960000D03*
X116286000Y-73660000D03*
X116286000Y-68580000D03*
X139146000Y-73660000D03*
%TD*%
D16*
%TO.C,U4*%
X67818000Y-80513600D03*
D17*
X72390000Y-80518000D03*
D18*
X70091300Y-82410300D03*
D19*
X70104000Y-81457800D03*
%TD*%
D14*
%TO.C,J13*%
X125000000Y-144670000D03*
D15*
X127540000Y-144670000D03*
X130080000Y-144670000D03*
%TD*%
D20*
%TO.C,JP2*%
X53650000Y-104000000D03*
D21*
X52350000Y-104000000D03*
%TD*%
D16*
%TO.C,U1*%
X65798700Y-121039300D03*
D17*
X70370700Y-121043700D03*
D18*
X68072000Y-122936000D03*
D19*
X68084700Y-121983500D03*
%TD*%
D14*
%TO.C,J15*%
X125500000Y-56120000D03*
D15*
X128040000Y-56120000D03*
X130580000Y-56120000D03*
%TD*%
D16*
%TO.C,U2*%
X120904000Y-121412000D03*
D17*
X125476000Y-121416400D03*
D18*
X123177300Y-123308700D03*
D19*
X123190000Y-122356200D03*
%TD*%
D14*
%TO.C,J14*%
X68975000Y-144880000D03*
D15*
X71515000Y-144880000D03*
X74055000Y-144880000D03*
%TD*%
D14*
%TO.C,J16*%
X69500000Y-56000000D03*
D15*
X72040000Y-56000000D03*
X74580000Y-56000000D03*
%TD*%
D20*
%TO.C,JP4*%
X53650000Y-96000000D03*
D21*
X52350000Y-96000000D03*
%TD*%
D14*
%TO.C,J25*%
X83774000Y-83820000D03*
D15*
X83774000Y-81280000D03*
X83774000Y-78740000D03*
X83774000Y-76200000D03*
X83774000Y-71120000D03*
X83774000Y-68580000D03*
X83774000Y-66040000D03*
X83774000Y-63500000D03*
X83774000Y-60960000D03*
D14*
X60914000Y-83820000D03*
D15*
X60914000Y-81280000D03*
X60914000Y-78740000D03*
X60914000Y-76200000D03*
X60914000Y-71120000D03*
X60914000Y-66040000D03*
X60914000Y-63500000D03*
X60914000Y-60960000D03*
X60914000Y-73660000D03*
X60914000Y-68580000D03*
X83774000Y-73660000D03*
%TD*%
D16*
%TO.C,U3*%
X124201200Y-80716800D03*
D17*
X128773200Y-80721200D03*
D18*
X126474500Y-82613500D03*
D19*
X126487200Y-81661000D03*
%TD*%
D22*
%TO.C,J21*%
X96800000Y-124590000D03*
X96800000Y-113160000D03*
D23*
X103150000Y-123320000D03*
X105690000Y-122050000D03*
X103150000Y-120780000D03*
X105690000Y-119510000D03*
X103150000Y-118240000D03*
X105690000Y-116970000D03*
X103150000Y-115700000D03*
X105690000Y-114430000D03*
D24*
X99850000Y-126750000D03*
X99850000Y-111000000D03*
%TD*%
M02*
