<?xml version="1.0" standalone="no"?>
 <!DOCTYPE svg PUBLIC "-//W3C//DTD SVG 1.1//EN" 
 "http://www.w3.org/Graphics/SVG/1.1/DTD/svg11.dtd"> 
<svg
  xmlns:svg="http://www.w3.org/2000/svg"
  xmlns="http://www.w3.org/2000/svg"
  xmlns:xlink="http://www.w3.org/1999/xlink"
  version="1.1"
  width="297.002200mm" height="210.007200mm" viewBox="0.000000 0.000000 297.002200 210.007200">
<title>SVG Image created as DarkQuest_SiPM_Motherboard-F_Mask.svg date 2025/06/11 08:09:42 </title>
  <desc>Image generated by PCBNEW </desc>
<g style="fill:#000000; fill-opacity:1.000000;stroke:#000000; stroke-opacity:1.000000;
stroke-linecap:round; stroke-linejoin:round;"
 transform="translate(0 0) scale(1 1)">
<path style="fill:#000000; fill-opacity:1.000000; stroke:none;fill-rule:evenodd;"
d="M 146.850000,95.250000
147.150000,95.250000
147.150000,96.750000
146.850000,96.750000
Z" /> 
<path style="fill:#000000; fill-opacity:1.000000; stroke:none;fill-rule:evenodd;"
d="M 146.850000,103.250000
147.150000,103.250000
147.150000,104.750000
146.850000,104.750000
Z" /> 
<path style="fill:#000000; fill-opacity:1.000000; stroke:none;fill-rule:evenodd;"
d="M 53.150000,104.750000
52.850000,104.750000
52.850000,103.250000
53.150000,103.250000
Z" /> 
<path style="fill:#000000; fill-opacity:1.000000; stroke:none;fill-rule:evenodd;"
d="M 53.150000,96.750000
52.850000,96.750000
52.850000,95.250000
53.150000,95.250000
Z" /> 
</g>
<g style="fill:#000000; fill-opacity:1.000000; stroke:none;">
<circle cx="100.000000" cy="100.000000" r="8.400000" /> 
</g>
<g style="fill:#000000; fill-opacity:1.000000; stroke:none;">
<circle cx="100.000000" cy="137.000000" r="6.000000" /> 
</g>
<g style="fill:#000000; fill-opacity:1.000000; stroke:none;">
<circle cx="137.000000" cy="100.000000" r="6.000000" /> 
</g>
<g style="fill:#000000; fill-opacity:1.000000; stroke:none;">
<circle cx="63.000000" cy="100.000000" r="6.000000" /> 
</g>
<g style="fill:#000000; fill-opacity:1.000000; stroke:none;">
<circle cx="100.000000" cy="63.000000" r="6.000000" /> 
<path style="fill:#000000; fill-opacity:1.000000; stroke:none;fill-rule:evenodd;"
d="M 146.850000,96.750000
146.350000,96.750000
146.350000,96.745722
146.284737,96.745722
146.158658,96.711940
146.045619,96.646677
145.953323,96.554381
145.888060,96.441342
145.854278,96.315263
145.854278,96.250000
145.850000,96.250000
145.850000,95.750000
145.854278,95.750000
145.854278,95.684737
145.888060,95.558658
145.953323,95.445619
146.045619,95.353323
146.158658,95.288060
146.284737,95.254278
146.350000,95.254278
146.350000,95.250000
146.850000,95.250000
Z" /> 
<path style="fill:#000000; fill-opacity:1.000000; stroke:none;fill-rule:evenodd;"
d="M 147.650000,95.254278
147.715263,95.254278
147.841342,95.288060
147.954381,95.353323
148.046677,95.445619
148.111940,95.558658
148.145722,95.684737
148.145722,95.750000
148.150000,95.750000
148.150000,96.250000
148.145722,96.250000
148.145722,96.315263
148.111940,96.441342
148.046677,96.554381
147.954381,96.646677
147.841342,96.711940
147.715263,96.745722
147.650000,96.745722
147.650000,96.750000
147.150000,96.750000
147.150000,95.250000
147.650000,95.250000
Z" /> 
<path style="fill:#000000; fill-opacity:1.000000; stroke:none;fill-rule:evenodd;"
d="M 84.624000,138.342000
84.624000,140.042000
82.924000,140.042000
82.924000,138.342000
Z" /> 
</g>
<g style="fill:#000000; fill-opacity:1.000000; stroke:none;">
<circle cx="83.774000" cy="136.652000" r="0.850000" /> 
<circle cx="83.774000" cy="134.112000" r="0.850000" /> 
<circle cx="83.774000" cy="131.572000" r="0.850000" /> 
<circle cx="83.774000" cy="126.492000" r="0.850000" /> 
<circle cx="83.774000" cy="123.952000" r="0.850000" /> 
<circle cx="83.774000" cy="121.412000" r="0.850000" /> 
<circle cx="83.774000" cy="118.872000" r="0.850000" /> 
<circle cx="83.774000" cy="116.332000" r="0.850000" /> 
<path style="fill:#000000; fill-opacity:1.000000; stroke:none;fill-rule:evenodd;"
d="M 61.764000,138.342000
61.764000,140.042000
60.064000,140.042000
60.064000,138.342000
Z" /> 
<circle cx="60.914000" cy="136.652000" r="0.850000" /> 
<circle cx="60.914000" cy="134.112000" r="0.850000" /> 
<circle cx="60.914000" cy="131.572000" r="0.850000" /> 
<circle cx="60.914000" cy="126.492000" r="0.850000" /> 
<circle cx="60.914000" cy="121.412000" r="0.850000" /> 
<circle cx="60.914000" cy="118.872000" r="0.850000" /> 
<circle cx="60.914000" cy="116.332000" r="0.850000" /> 
<circle cx="60.914000" cy="129.032000" r="0.850000" /> 
<circle cx="60.914000" cy="123.952000" r="0.850000" /> 
<circle cx="83.774000" cy="129.032000" r="0.850000" /> 
<path style="fill:#000000; fill-opacity:1.000000; stroke:none;fill-rule:evenodd;"
d="M 146.850000,104.750000
146.350000,104.750000
146.350000,104.745722
146.284737,104.745722
146.158658,104.711940
146.045619,104.646677
145.953323,104.554381
145.888060,104.441342
145.854278,104.315263
145.854278,104.250000
145.850000,104.250000
145.850000,103.750000
145.854278,103.750000
145.854278,103.684737
145.888060,103.558658
145.953323,103.445619
146.045619,103.353323
146.158658,103.288060
146.284737,103.254278
146.350000,103.254278
146.350000,103.250000
146.850000,103.250000
Z" /> 
<path style="fill:#000000; fill-opacity:1.000000; stroke:none;fill-rule:evenodd;"
d="M 147.650000,103.254278
147.715263,103.254278
147.841342,103.288060
147.954381,103.353323
148.046677,103.445619
148.111940,103.558658
148.145722,103.684737
148.145722,103.750000
148.150000,103.750000
148.150000,104.250000
148.145722,104.250000
148.145722,104.315263
148.111940,104.441342
148.046677,104.554381
147.954381,104.646677
147.841342,104.711940
147.715263,104.745722
147.650000,104.745722
147.650000,104.750000
147.150000,104.750000
147.150000,103.250000
147.650000,103.250000
Z" /> 
<path style="fill:#000000; fill-opacity:1.000000; stroke:none;fill-rule:evenodd;"
d="M 139.996000,138.342000
139.996000,140.042000
138.296000,140.042000
138.296000,138.342000
Z" /> 
<circle cx="139.146000" cy="136.652000" r="0.850000" /> 
<circle cx="139.146000" cy="134.112000" r="0.850000" /> 
<circle cx="139.146000" cy="131.572000" r="0.850000" /> 
<circle cx="139.146000" cy="126.492000" r="0.850000" /> 
<circle cx="139.146000" cy="123.952000" r="0.850000" /> 
<circle cx="139.146000" cy="121.412000" r="0.850000" /> 
<circle cx="139.146000" cy="118.872000" r="0.850000" /> 
<circle cx="139.146000" cy="116.332000" r="0.850000" /> 
<path style="fill:#000000; fill-opacity:1.000000; stroke:none;fill-rule:evenodd;"
d="M 117.136000,138.342000
117.136000,140.042000
115.436000,140.042000
115.436000,138.342000
Z" /> 
<circle cx="116.286000" cy="136.652000" r="0.850000" /> 
<circle cx="116.286000" cy="134.112000" r="0.850000" /> 
<circle cx="116.286000" cy="131.572000" r="0.850000" /> 
<circle cx="116.286000" cy="126.492000" r="0.850000" /> 
<circle cx="116.286000" cy="121.412000" r="0.850000" /> 
<circle cx="116.286000" cy="118.872000" r="0.850000" /> 
<circle cx="116.286000" cy="116.332000" r="0.850000" /> 
<circle cx="116.286000" cy="129.032000" r="0.850000" /> 
<circle cx="116.286000" cy="123.952000" r="0.850000" /> 
<circle cx="139.146000" cy="129.032000" r="0.850000" /> 
<path style="fill:#000000; fill-opacity:1.000000; stroke:none;fill-rule:evenodd;"
d="M 139.996000,82.970000
139.996000,84.670000
138.296000,84.670000
138.296000,82.970000
Z" /> 
<circle cx="139.146000" cy="81.280000" r="0.850000" /> 
<circle cx="139.146000" cy="78.740000" r="0.850000" /> 
<circle cx="139.146000" cy="76.200000" r="0.850000" /> 
<circle cx="139.146000" cy="71.120000" r="0.850000" /> 
<circle cx="139.146000" cy="68.580000" r="0.850000" /> 
<circle cx="139.146000" cy="66.040000" r="0.850000" /> 
<circle cx="139.146000" cy="63.500000" r="0.850000" /> 
<circle cx="139.146000" cy="60.960000" r="0.850000" /> 
<path style="fill:#000000; fill-opacity:1.000000; stroke:none;fill-rule:evenodd;"
d="M 117.136000,82.970000
117.136000,84.670000
115.436000,84.670000
115.436000,82.970000
Z" /> 
<circle cx="116.286000" cy="81.280000" r="0.850000" /> 
<circle cx="116.286000" cy="78.740000" r="0.850000" /> 
<circle cx="116.286000" cy="76.200000" r="0.850000" /> 
<circle cx="116.286000" cy="71.120000" r="0.850000" /> 
<circle cx="116.286000" cy="66.040000" r="0.850000" /> 
<circle cx="116.286000" cy="63.500000" r="0.850000" /> 
<circle cx="116.286000" cy="60.960000" r="0.850000" /> 
<circle cx="116.286000" cy="73.660000" r="0.850000" /> 
<circle cx="116.286000" cy="68.580000" r="0.850000" /> 
<circle cx="139.146000" cy="73.660000" r="0.850000" /> 
<path style="fill:#000000; fill-opacity:1.000000; stroke:none;fill-rule:evenodd;"
d="M 67.005200,81.068000
67.005200,79.959200
68.630800,79.959200
68.630800,81.068000
Z" /> 
<path style="fill:#000000; fill-opacity:1.000000; stroke:none;fill-rule:evenodd;"
d="M 71.526400,81.076800
71.526400,79.959200
73.253600,79.959200
73.253600,81.076800
Z" /> 
<path style="fill:#000000; fill-opacity:1.000000; stroke:none;fill-rule:evenodd;"
d="M 72.694800,82.981800
67.487800,82.981800
67.487800,81.838800
72.694800,81.838800
Z" /> 
<path style="fill:#000000; fill-opacity:1.000000; stroke:none;fill-rule:evenodd;"
d="M 70.612000,82.956400
69.596000,82.956400
69.596000,79.959200
70.612000,79.959200
Z" /> 
<path style="fill:#000000; fill-opacity:1.000000; stroke:none;fill-rule:evenodd;"
d="M 125.850000,145.520000
124.150000,145.520000
124.150000,143.820000
125.850000,143.820000
Z" /> 
<circle cx="127.540000" cy="144.670000" r="0.850000" /> 
<circle cx="130.080000" cy="144.670000" r="0.850000" /> 
<path style="fill:#000000; fill-opacity:1.000000; stroke:none;fill-rule:evenodd;"
d="M 53.150000,103.250000
53.650000,103.250000
53.650000,103.254278
53.715263,103.254278
53.841342,103.288060
53.954381,103.353323
54.046677,103.445619
54.111940,103.558658
54.145722,103.684737
54.145722,103.750000
54.150000,103.750000
54.150000,104.250000
54.145722,104.250000
54.145722,104.315263
54.111940,104.441342
54.046677,104.554381
53.954381,104.646677
53.841342,104.711940
53.715263,104.745722
53.650000,104.745722
53.650000,104.750000
53.150000,104.750000
Z" /> 
<path style="fill:#000000; fill-opacity:1.000000; stroke:none;fill-rule:evenodd;"
d="M 52.350000,104.745722
52.284737,104.745722
52.158658,104.711940
52.045619,104.646677
51.953323,104.554381
51.888060,104.441342
51.854278,104.315263
51.854278,104.250000
51.850000,104.250000
51.850000,103.750000
51.854278,103.750000
51.854278,103.684737
51.888060,103.558658
51.953323,103.445619
52.045619,103.353323
52.158658,103.288060
52.284737,103.254278
52.350000,103.254278
52.350000,103.250000
52.850000,103.250000
52.850000,104.750000
52.350000,104.750000
Z" /> 
<path style="fill:#000000; fill-opacity:1.000000; stroke:none;fill-rule:evenodd;"
d="M 64.985900,121.593700
64.985900,120.484900
66.611500,120.484900
66.611500,121.593700
Z" /> 
<path style="fill:#000000; fill-opacity:1.000000; stroke:none;fill-rule:evenodd;"
d="M 69.507100,121.602500
69.507100,120.484900
71.234300,120.484900
71.234300,121.602500
Z" /> 
<path style="fill:#000000; fill-opacity:1.000000; stroke:none;fill-rule:evenodd;"
d="M 70.675500,123.507500
65.468500,123.507500
65.468500,122.364500
70.675500,122.364500
Z" /> 
<path style="fill:#000000; fill-opacity:1.000000; stroke:none;fill-rule:evenodd;"
d="M 68.592700,123.482100
67.576700,123.482100
67.576700,120.484900
68.592700,120.484900
Z" /> 
<path style="fill:#000000; fill-opacity:1.000000; stroke:none;fill-rule:evenodd;"
d="M 126.350000,56.970000
124.650000,56.970000
124.650000,55.270000
126.350000,55.270000
Z" /> 
<circle cx="128.040000" cy="56.120000" r="0.850000" /> 
<circle cx="130.580000" cy="56.120000" r="0.850000" /> 
<path style="fill:#000000; fill-opacity:1.000000; stroke:none;fill-rule:evenodd;"
d="M 120.091200,121.966400
120.091200,120.857600
121.716800,120.857600
121.716800,121.966400
Z" /> 
<path style="fill:#000000; fill-opacity:1.000000; stroke:none;fill-rule:evenodd;"
d="M 124.612400,121.975200
124.612400,120.857600
126.339600,120.857600
126.339600,121.975200
Z" /> 
<path style="fill:#000000; fill-opacity:1.000000; stroke:none;fill-rule:evenodd;"
d="M 125.780800,123.880200
120.573800,123.880200
120.573800,122.737200
125.780800,122.737200
Z" /> 
<path style="fill:#000000; fill-opacity:1.000000; stroke:none;fill-rule:evenodd;"
d="M 123.698000,123.854800
122.682000,123.854800
122.682000,120.857600
123.698000,120.857600
Z" /> 
<path style="fill:#000000; fill-opacity:1.000000; stroke:none;fill-rule:evenodd;"
d="M 69.825000,145.730000
68.125000,145.730000
68.125000,144.030000
69.825000,144.030000
Z" /> 
<circle cx="71.515000" cy="144.880000" r="0.850000" /> 
<circle cx="74.055000" cy="144.880000" r="0.850000" /> 
<path style="fill:#000000; fill-opacity:1.000000; stroke:none;fill-rule:evenodd;"
d="M 70.350000,56.850000
68.650000,56.850000
68.650000,55.150000
70.350000,55.150000
Z" /> 
<circle cx="72.040000" cy="56.000000" r="0.850000" /> 
<circle cx="74.580000" cy="56.000000" r="0.850000" /> 
<path style="fill:#000000; fill-opacity:1.000000; stroke:none;fill-rule:evenodd;"
d="M 53.150000,95.250000
53.650000,95.250000
53.650000,95.254278
53.715263,95.254278
53.841342,95.288060
53.954381,95.353323
54.046677,95.445619
54.111940,95.558658
54.145722,95.684737
54.145722,95.750000
54.150000,95.750000
54.150000,96.250000
54.145722,96.250000
54.145722,96.315263
54.111940,96.441342
54.046677,96.554381
53.954381,96.646677
53.841342,96.711940
53.715263,96.745722
53.650000,96.745722
53.650000,96.750000
53.150000,96.750000
Z" /> 
<path style="fill:#000000; fill-opacity:1.000000; stroke:none;fill-rule:evenodd;"
d="M 52.350000,96.745722
52.284737,96.745722
52.158658,96.711940
52.045619,96.646677
51.953323,96.554381
51.888060,96.441342
51.854278,96.315263
51.854278,96.250000
51.850000,96.250000
51.850000,95.750000
51.854278,95.750000
51.854278,95.684737
51.888060,95.558658
51.953323,95.445619
52.045619,95.353323
52.158658,95.288060
52.284737,95.254278
52.350000,95.254278
52.350000,95.250000
52.850000,95.250000
52.850000,96.750000
52.350000,96.750000
Z" /> 
<path style="fill:#000000; fill-opacity:1.000000; stroke:none;fill-rule:evenodd;"
d="M 84.624000,82.970000
84.624000,84.670000
82.924000,84.670000
82.924000,82.970000
Z" /> 
<circle cx="83.774000" cy="81.280000" r="0.850000" /> 
<circle cx="83.774000" cy="78.740000" r="0.850000" /> 
<circle cx="83.774000" cy="76.200000" r="0.850000" /> 
<circle cx="83.774000" cy="71.120000" r="0.850000" /> 
<circle cx="83.774000" cy="68.580000" r="0.850000" /> 
<circle cx="83.774000" cy="66.040000" r="0.850000" /> 
<circle cx="83.774000" cy="63.500000" r="0.850000" /> 
<circle cx="83.774000" cy="60.960000" r="0.850000" /> 
<path style="fill:#000000; fill-opacity:1.000000; stroke:none;fill-rule:evenodd;"
d="M 61.764000,82.970000
61.764000,84.670000
60.064000,84.670000
60.064000,82.970000
Z" /> 
<circle cx="60.914000" cy="81.280000" r="0.850000" /> 
<circle cx="60.914000" cy="78.740000" r="0.850000" /> 
<circle cx="60.914000" cy="76.200000" r="0.850000" /> 
<circle cx="60.914000" cy="71.120000" r="0.850000" /> 
<circle cx="60.914000" cy="66.040000" r="0.850000" /> 
<circle cx="60.914000" cy="63.500000" r="0.850000" /> 
<circle cx="60.914000" cy="60.960000" r="0.850000" /> 
<circle cx="60.914000" cy="73.660000" r="0.850000" /> 
<circle cx="60.914000" cy="68.580000" r="0.850000" /> 
<circle cx="83.774000" cy="73.660000" r="0.850000" /> 
<path style="fill:#000000; fill-opacity:1.000000; stroke:none;fill-rule:evenodd;"
d="M 123.388400,81.271200
123.388400,80.162400
125.014000,80.162400
125.014000,81.271200
Z" /> 
<path style="fill:#000000; fill-opacity:1.000000; stroke:none;fill-rule:evenodd;"
d="M 127.909600,81.280000
127.909600,80.162400
129.636800,80.162400
129.636800,81.280000
Z" /> 
<path style="fill:#000000; fill-opacity:1.000000; stroke:none;fill-rule:evenodd;"
d="M 129.078000,83.185000
123.871000,83.185000
123.871000,82.042000
129.078000,82.042000
Z" /> 
<path style="fill:#000000; fill-opacity:1.000000; stroke:none;fill-rule:evenodd;"
d="M 126.995200,83.159600
125.979200,83.159600
125.979200,80.162400
126.995200,80.162400
Z" /> 
<circle cx="96.800000" cy="124.590000" r="1.825000" /> 
</g>
<g style="fill:#000000; fill-opacity:1.000000; stroke:none;">
<circle cx="96.800000" cy="113.160000" r="1.825000" /> 
</g>
<g style="fill:#000000; fill-opacity:1.000000; stroke:none;">
<circle cx="103.150000" cy="123.320000" r="0.750000" /> 
</g>
<g style="fill:#000000; fill-opacity:1.000000; stroke:none;">
<circle cx="105.690000" cy="122.050000" r="0.750000" /> 
</g>
<g style="fill:#000000; fill-opacity:1.000000; stroke:none;">
<circle cx="103.150000" cy="120.780000" r="0.750000" /> 
</g>
<g style="fill:#000000; fill-opacity:1.000000; stroke:none;">
<circle cx="105.690000" cy="119.510000" r="0.750000" /> 
</g>
<g style="fill:#000000; fill-opacity:1.000000; stroke:none;">
<circle cx="103.150000" cy="118.240000" r="0.750000" /> 
</g>
<g style="fill:#000000; fill-opacity:1.000000; stroke:none;">
<circle cx="105.690000" cy="116.970000" r="0.750000" /> 
</g>
<g style="fill:#000000; fill-opacity:1.000000; stroke:none;">
<circle cx="103.150000" cy="115.700000" r="0.750000" /> 
</g>
<g style="fill:#000000; fill-opacity:1.000000; stroke:none;">
<circle cx="105.690000" cy="114.430000" r="0.750000" /> 
</g>
<g style="fill:#000000; fill-opacity:1.000000; stroke:none;">
<circle cx="99.850000" cy="126.750000" r="1.250000" /> 
</g>
<g style="fill:#000000; fill-opacity:1.000000; stroke:none;">
<circle cx="99.850000" cy="111.000000" r="1.250000" /> 
</g> 
</svg>
